<?xml version="1.0" standalone="no"?>
<!DOCTYPE svg PUBLIC "-//W3C//DTD SVG 1.1//EN" "http://www.w3.org/Graphics/SVG/1.1/DTD/svg11.dtd" >
<svg xmlns="http://www.w3.org/2000/svg" xmlns:xlink="http://www.w3.org/1999/xlink" version="1.1">
<metadata>
Created by FontForge 20161003 at Fri Jan 26 16:12:56 2018
 By www-data
Copyright \(c\) 2016 by Francis John S. Villo. All rights reserved.
</metadata>
<defs>
<font id="Amarillo" horiz-adv-x="560" >
  <font-face 
    font-family="Amarillo"
    font-weight="400"
    font-stretch="normal"
    units-per-em="1000"
    panose-1="0 0 5 0 0 0 0 2 0 4"
    ascent="750"
    descent="-250"
    x-height="758"
    cap-height="1357"
    bbox="-1524 -1368 5835 1794.38"
    underline-thickness="50"
    underline-position="-100"
    stemh="92"
    stemv="55"
    unicode-range="U+000D-FB02"
  />
<missing-glyph horiz-adv-x="500" 
 />
    <glyph glyph-name="l_l" unicode="ll" horiz-adv-x="910" 
d="M387 1105c67 0 87 -93 83 -150c-16 -178 -163 -364 -301 -490c-1 0 -32 -118 -42 -223c-2 -17 -2 -32 -2 -47c0 -64 15 -114 59 -114c109 0 219 225 279 349l5 12c48 277 184 763 389 763c64 0 86 -102 86 -164c-19 -191 -171 -399 -312 -534v1c-1 0 -34 -130 -44 -244
c-3 -26 -3 -40 -3 -52c0 -69 15 -124 63 -124c138 0 259 332 328 463c6 3 13 5 17 5c10 0 20 -11 25 -21c-89 -191 -228 -538 -397 -538c-136 0 -171 131 -171 257c0 15 0 32 1 48c-78 -153 -176 -306 -292 -306c-130 0 -164 122 -164 236c0 18 0 37 2 54v-1
c16 190 157 820 391 820zM872 1120c-45 0 -146 -218 -218 -515c56 52 221 257 239 421c4 37 -2 94 -21 94zM401 1026c-43 0 -141 -205 -210 -476c55 49 217 239 231 391c4 34 -1 85 -21 85z" />
    <glyph glyph-name="A_r" unicode="Ar" horiz-adv-x="2202" 
d="M385 646c117 0 195 -77 195 -179c0 -27 -5 -56 -17 -89c160 123 383 166 531 123c163 261 305 563 377 845v-1c3 8 10 17 18 19c8 11 22 16 41 16c120 0 148 -84 148 -177c0 -13 0 -35 -1 -50c-20 -183 -88 -467 -151 -733c88 1 174 43 252 127c-84 14 -120 90 -113 168
c12 86 79 192 174 192c59 0 83 -35 79 -104c-8 -75 -47 -171 -58 -200c32 -8 62 -8 89 -8c55 0 91 -1 85 -65c-1 -10 -3 -22 -6 -34l-10 -41c-23 -96 -54 -221 -62 -294c-3 -42 8 -75 22 -77c74 29 210 285 268 397l3 7h-1c6 13 10 22 25 22c10 0 18 -8 25 -20l-11 -21
c-55 -111 -172 -349 -266 -426c-27 -22 -66 -39 -103 -39c-69 0 -95 84 -95 177c0 15 1 31 2 45c6 68 47 240 75 311l-68 3l-7 1c-96 -122 -200 -166 -313 -176c-17 -94 -26 -205 -26 -312c0 -249 57 -493 251 -493c39 0 89 12 142 36c18 -6 29 -14 29 -24
c0 -9 -8 -24 -18 -36c-81 -35 -152 -49 -219 -49c-277 0 -375 306 -375 623c0 86 8 181 22 267c-68 12 -129 28 -200 48c-117 -182 -257 -357 -398 -480c-93 -80 -196 -155 -331 -155c-198 0 -380 156 -380 400c0 208 141 456 376 456zM1054 436l-2 5c-48 12 -91 16 -130 16
c-160 0 -302 -83 -421 -218c-8 -5 -20 -10 -28 -10c-16 0 -31 9 -30 27c49 55 95 135 82 215c-21 57 -63 78 -95 81c-100 4 -215 -168 -244 -339c-26 -140 37 -366 222 -366c41 0 81 12 126 33c155 83 346 295 520 556zM1460 1075l-6 2c-72 -176 -176 -388 -301 -596
c60 -18 115 -35 175 -48c60 269 105 487 132 642zM1782 660c-3 -25 5 -44 31 -49c12 23 49 115 54 167c1 15 1 21 -3 21c-21 0 -77 -82 -82 -139z" />
    <glyph glyph-name="A_s" unicode="As" horiz-adv-x="2175" 
d="M344 646c117 0 195 -77 195 -179c0 -27 -5 -56 -17 -89c160 123 383 166 531 123c163 261 305 563 377 845v-1c3 8 10 17 18 19c8 11 22 16 41 16c120 0 148 -84 148 -177c0 -13 0 -35 -1 -50c-20 -183 -88 -467 -151 -733c87 1 171 42 248 124c-32 55 -53 123 -53 189
c0 64 20 127 74 171c24 21 59 32 92 32c46 0 88 -21 88 -75c0 -41 -22 -96 -47 -156c-12 -30 -25 -61 -36 -93c103 -154 194 -324 196 -417c61 90 121 205 154 272c1 2 3 5 3 5l8 16h-1c6 13 10 22 25 22c12 0 21 -8 26 -20l-6 -12l-3 -3c-58 -118 -182 -366 -288 -446
c-65 -44 -160 -71 -236 -71c-88 0 -157 32 -151 101c2 19 22 43 43 43c16 0 16 -18 15 -34c-1 -43 46 -50 85 -48c106 4 151 72 155 182c-1 71 -40 188 -117 304c-1 1 -2 1 -2 2c-89 -97 -184 -134 -286 -143c-17 -94 -26 -205 -26 -312c0 -249 57 -493 251 -493
c39 0 89 12 142 36c18 -6 29 -14 29 -24c0 -9 -8 -24 -18 -36c-81 -35 -152 -49 -219 -49c-277 0 -375 306 -375 623c0 86 8 181 22 267c-68 12 -129 28 -200 48c-117 -182 -257 -357 -398 -480c-93 -80 -196 -155 -331 -155c-198 0 -380 156 -380 400
c0 208 141 456 376 456zM1013 436l-2 5c-48 12 -91 16 -130 16c-160 0 -302 -83 -421 -218c-8 -5 -20 -10 -28 -10c-16 0 -31 9 -30 27c49 55 95 135 82 215c-21 57 -63 78 -95 81c-100 4 -215 -168 -244 -339c-26 -140 37 -366 222 -366c41 0 81 12 126 33
c155 83 346 295 520 556zM1419 1075l-6 2c-72 -176 -176 -388 -301 -596c60 -18 115 -35 175 -48c60 269 105 487 132 642zM1820 651l10 24c25 59 60 148 50 170h1c-4 8 -8 12 -13 13c-23 4 -60 -77 -60 -148c0 -21 4 -41 12 -59z" />
    <glyph glyph-name="A_x" unicode="Ax" horiz-adv-x="2482" 
d="M374 646c117 0 195 -77 195 -179c0 -27 -5 -56 -17 -89c160 123 383 166 531 123c163 261 305 563 377 845v-1c3 8 10 17 18 19c8 11 22 16 41 16c120 0 148 -84 148 -177c0 -13 0 -35 -1 -50c-20 -183 -88 -467 -151 -733c86 2 170 41 246 121c69 74 140 281 267 284
c125 2 143 -114 148 -252l150 228c20 2 39 4 40 -29l-24 -38l-164 -250c1 -21 2 -40 4 -61c13 -162 38 -320 102 -287c75 52 170 219 213 298l13 26c13 24 28 52 43 78c20 8 38 11 42 -17c-20 -34 -38 -66 -53 -96l-26 -45c-51 -92 -104 -190 -174 -269
c-40 -44 -85 -79 -134 -89c-98 -22 -150 99 -180 236l-173 -262l-16 -25c-3 1 -5 2 -6 2c-12 -3 -30 -7 -36 23l218 332c-12 76 -19 153 -25 218s-10 118 -19 139c-7 16 -15 24 -23 24c-44 0 -106 -140 -150 -186c-97 -111 -193 -149 -297 -158c-17 -94 -26 -205 -26 -312
c0 -249 57 -493 251 -493c39 0 89 12 142 36c18 -6 29 -14 29 -24c0 -9 -8 -24 -18 -36c-81 -35 -152 -49 -219 -49c-277 0 -375 306 -375 623c0 86 8 181 22 267c-68 12 -129 28 -200 48c-117 -182 -257 -357 -398 -480c-93 -80 -196 -155 -331 -155
c-198 0 -380 156 -380 400c0 208 141 456 376 456zM1043 436l-2 5c-48 12 -91 16 -130 16c-160 0 -302 -83 -421 -218c-8 -5 -20 -10 -28 -10c-16 0 -31 9 -30 27c49 55 95 135 82 215c-21 57 -63 78 -95 81c-100 4 -215 -168 -244 -339c-26 -140 37 -366 222 -366
c41 0 81 12 126 33c155 83 346 295 520 556zM1449 1075l-6 2c-72 -176 -176 -388 -301 -596c60 -18 115 -35 175 -48c60 269 105 487 132 642z" />
    <glyph glyph-name="A_z" unicode="Az" horiz-adv-x="2542" 
d="M394 646c117 0 195 -77 195 -179c0 -27 -5 -56 -17 -89c160 123 383 166 531 123c163 261 305 563 377 845v-1c3 8 10 17 18 19c8 11 22 16 41 16c120 0 148 -84 148 -177c0 -13 0 -35 -1 -50c-20 -183 -88 -467 -151 -733c81 2 160 36 232 106c17 16 36 35 96 140l37 76
c1 19 12 94 36 90c9 -3 10 -10 13 -20l4 -10c15 -27 82 -36 157 -36c53 0 109 4 157 7c34 2 61 3 79 3c71 -1 153 -38 137 -123c-1 -8 -5 -16 -14 -16c-3 0 -8 1 -13 5l-2 1c-193 -102 -414 -329 -557 -502c8 -4 23 -5 46 -5c28 0 65 3 105 6c48 3 100 7 146 7
c51 0 95 -4 120 -20c19 -12 35 -23 47 -43c19 36 38 71 58 106v-1l177 310l2 2c22 13 33 3 41 -11l-130 -236l-129 -232c0 -6 -1 -19 -2 -26c-3 -9 -7 -16 -16 -16c-39 37 -104 47 -180 47c-50 0 -104 -4 -156 -8c-48 -4 -94 -8 -133 -8c-33 0 -62 3 -83 10
c-32 9 -48 30 -48 59c0 25 12 56 41 93c127 161 401 362 523 452l42 32c-8 2 -20 3 -35 3c-23 0 -57 -2 -89 -5c-43 -4 -94 -8 -141 -8c-71 0 -139 10 -180 44l-22 -42c-27 -54 -49 -94 -97 -146c-88 -95 -181 -131 -283 -140c-17 -94 -26 -205 -26 -312
c0 -249 57 -493 251 -493c39 0 89 12 142 36c18 -6 29 -14 29 -24c0 -9 -8 -24 -18 -36c-81 -35 -152 -49 -219 -49c-277 0 -375 306 -375 623c0 86 8 181 22 267c-68 12 -129 28 -200 48c-117 -182 -257 -357 -398 -480c-93 -80 -196 -155 -331 -155
c-198 0 -380 156 -380 400c0 208 141 456 376 456zM1063 436l-2 5c-48 12 -91 16 -130 16c-160 0 -302 -83 -421 -218c-8 -5 -20 -10 -28 -10c-16 0 -31 9 -30 27c49 55 95 135 82 215c-21 57 -63 78 -95 81c-100 4 -215 -168 -244 -339c-26 -140 37 -366 222 -366
c41 0 81 12 126 33c155 83 346 295 520 556zM1469 1075l-6 2c-72 -176 -176 -388 -301 -596c60 -18 115 -35 175 -48c60 269 105 487 132 642z" />
    <glyph glyph-name="r_r" unicode="rr" horiz-adv-x="838" 
d="M742 -492c-144 0 -261 98 -265 301c-97 30 -209 45 -331 45c-102 0 -214 -10 -330 -28c-326 -51 -640 -189 -754 -448c-1 -3 -4 -8 -5 -12c-8 -20 -18 -52 -43 -54c-26 1 -45 39 -56 78c-7 24 -10 48 -10 73c0 118 80 235 171 313c158 123 423 188 669 213
c64 6 133 8 195 8c187 0 364 -28 509 -97c44 263 118 457 177 609c11 30 20 59 33 89c-13 0 -23 0 -32 1c-10 0 -29 1 -39 2c-130 -268 -240 -485 -329 -558c-27 -22 -66 -39 -103 -39c-69 0 -95 84 -95 177c0 15 1 31 2 45c6 68 47 240 75 311l-68 3
c-23 -46 -47 -96 -70 -141l-42 10l69 137c-91 9 -131 88 -124 169c12 86 79 192 174 192c59 0 83 -35 79 -104c-8 -75 -47 -171 -58 -200c32 -8 62 -8 89 -8c55 0 91 -1 85 -65c-1 -10 -3 -22 -6 -34l-10 -41c-23 -96 -54 -221 -62 -294c-3 -42 8 -75 22 -77
c109 67 259 377 329 524c-101 5 -135 92 -128 181c8 98 77 206 179 206c58 0 84 -40 80 -111c-7 -71 -39 -163 -53 -203l-4 -12c15 -3 37 -4 55 -4c11 0 23 1 35 1c11 0 23 1 32 1c24 0 45 -2 61 -9c19 -8 26 -27 26 -56c0 -68 -48 -188 -76 -258c-5 -13 -13 -30 -17 -43
c-53 -156 -113 -333 -140 -475c32 -25 56 -45 80 -74c0 90 46 150 108 173c26 10 51 15 75 15c98 0 161 -82 161 -175c0 -98 -88 -212 -256 -251c-20 -4 -44 -6 -64 -6zM735 -365v1c-10 30 -37 72 -102 111c7 -84 46 -181 139 -168c116 15 176 118 176 197
c0 49 -22 87 -69 87c-8 0 -20 -1 -33 -5c-47 -15 -88 -73 -88 -143c0 -21 4 -43 14 -66l-1 1c8 -16 2 -22 -12 -30c-13 -6 -20 3 -24 15zM581 730c-3 -27 5 -46 31 -53c11 26 51 125 56 180c1 15 -1 22 -4 22c-22 0 -78 -88 -83 -149zM63 660c-3 -25 5 -44 31 -49
c12 23 49 115 54 167c1 15 1 21 -3 21c-21 0 -77 -82 -82 -139z" />
    <glyph glyph-name="t_t" unicode="tt" horiz-adv-x="860" 
d="M302 990c-4 -39 -14 -93 -27 -153l32 3c78 5 158 12 233 13c20 85 34 154 37 185c1 22 -2 37 -4 50c-1 7 -2 13 -2 18c2 19 19 23 38 23c104 0 120 -70 114 -139c-4 -38 -12 -90 -25 -148c108 -17 197 -59 249 -137c9 -12 -8 -33 -28 -25l-1 1c-60 47 -144 71 -238 80
c-14 -62 -31 -127 -47 -187l-10 -37l-3 -13c-17 -69 -64 -253 -64 -364c0 -38 5 -69 20 -80c13 -9 41 -2 79 26c83 66 159 219 205 315h-1c17 37 33 67 48 85c1 1 5 1 11 1c9 0 18 -6 23 -19l-36 -75h1c-87 -179 -202 -420 -347 -420c-119 0 -160 62 -160 168
c0 14 1 28 2 44s4 34 7 56c-75 -139 -165 -268 -271 -268c-118 0 -159 62 -159 167c0 14 1 29 2 45c8 93 58 304 103 494l10 43h-11c-119 0 -216 22 -258 83c-8 14 -6 41 24 29c61 -19 136 -27 213 -27c16 0 34 0 53 1c22 97 39 177 42 210c1 22 -2 37 -4 50
c-1 7 -2 13 -2 18c2 19 19 23 37 23c104 0 121 -70 115 -139zM504 699l15 67c-69 -2 -142 -7 -211 -12c-18 -2 -36 -3 -52 -4l-44 -176l-10 -37l-3 -13c-18 -69 -65 -253 -65 -364c0 -38 5 -69 21 -80c13 -9 40 -2 78 26c84 66 159 219 205 315h-1c1 3 2 5 4 8
c19 85 41 180 63 270z" />
    <glyph glyph-name=".notdef" horiz-adv-x="500" 
 />
    <glyph glyph-name="NULL" horiz-adv-x="0" 
 />
    <glyph glyph-name="NULL" horiz-adv-x="0" 
 />
    <glyph glyph-name="CR" unicode="&#xd;" horiz-adv-x="500" 
 />
    <glyph glyph-name="space" unicode=" " horiz-adv-x="500" 
 />
    <glyph glyph-name="E" unicode="E" horiz-adv-x="1462" 
d="M544 -503c-206 36 -288 180 -288 345c0 221 146 485 342 595c-78 33 -130 90 -159 146c-141 14 -254 112 -284 275c-4 20 -6 47 -6 72c0 10 0 25 1 35c8 113 48 243 130 274c33 10 53 -13 54 -30c0 -7 -1 -13 -8 -16c-5 -2 -13 -2 -20 -2c-4 0 -7 0 -9 -1
c-48 -19 -74 -104 -78 -186c-2 -24 -1 -55 3 -79c23 -108 94 -224 188 -246c-1 17 -2 39 -1 58c15 262 324 588 587 630c9 1 24 1 32 1c242 0 335 -240 333 -447c-6 -104 -54 -215 -139 -236c-78 -11 -180 36 -186 151c-65 -78 -194 -176 -324 -245c16 -28 54 -43 85 -49
c12 -2 29 -4 40 -4c20 0 37 2 55 5c2 0 3 1 5 1s3 1 5 1c25 3 48 5 67 1c21 -6 30 -19 28 -34c0 -16 -12 -33 -32 -43c-161 -80 -408 -393 -408 -623c0 -81 36 -156 116 -201c29 -14 62 -22 91 -22c147 0 302 162 385 276c99 141 214 332 346 571c16 8 28 11 35 6
c4 -3 6 -11 5 -20c-126 -239 -244 -433 -338 -574c-134 -193 -358 -391 -585 -391c-22 0 -45 2 -68 6zM1094 945c-3 -16 -5 -29 -5 -42c-5 -89 48 -173 117 -165c36 15 62 71 63 142c3 143 -35 338 -164 338c-33 0 -76 -16 -123 -45c-157 -106 -327 -312 -335 -477
c-1 -8 -1 -21 0 -30c152 52 319 146 404 302c8 10 17 13 24 13c16 0 24 -20 19 -36z" />
    <glyph glyph-name="F" unicode="F" horiz-adv-x="1301" 
d="M752 336l-2 1c-62 -33 -115 -84 -143 -154c-8 -9 -25 2 -27 14c17 123 88 213 178 253c2 33 3 68 4 104c0 5 1 16 1 21c1 6 1 16 1 23c0 17 2 34 2 51c2 48 5 102 9 163c-42 -21 -122 -47 -191 -47c-49 0 -93 20 -102 65c-3 12 -4 23 -4 34c0 101 108 197 206 209
c5 0 14 1 20 2c10 1 23 2 33 2c65 0 128 -21 177 -69c134 38 286 72 437 102c220 46 464 100 654 167h-1c22 8 104 35 115 63c1 6 3 12 3 16c0 6 0 12 8 15h-1c8 3 19 -2 24 -12c27 -49 -73 -118 -103 -136c-225 -135 -598 -224 -846 -282l-50 -12
c-71 -16 -135 -30 -177 -46c1 -15 3 -29 3 -86c0 -51 1 -131 -9 -289c2 0 9 0 13 1c2 0 6 0 7 1h-1c125 23 258 51 328 125c14 20 22 -6 24 -22c-19 -126 -169 -168 -322 -201l-29 -5c-8 -3 -15 -5 -29 -6v-22c0 -2 -1 -4 -1 -5v-4h1c-26 -274 -92 -616 -317 -803
c-77 -55 -186 -93 -286 -93h-43c-224 32 -358 223 -358 461c1 190 101 384 269 446c27 9 53 12 77 12c125 0 169 -111 169 -240c0 -47 -3 -82 -6 -109v1c-16 -34 -35 -28 -44 -23c-1 6 0 12 0 19v64c0 4 1 8 1 13c0 80 -9 167 -84 170c-98 8 -207 -178 -235 -358
c-5 -34 -6 -57 -6 -70c0 -173 89 -320 214 -323c249 16 367 360 415 625c11 59 19 117 24 174zM758 949v1c-3 45 -30 65 -60 65c-50 0 -120 -49 -131 -114c1 -16 54 -1 101 13l17 5c40 12 74 23 73 30z" />
    <glyph glyph-name="G" unicode="G" horiz-adv-x="1255" 
d="M839 30l12 58c-29 -29 -57 -56 -86 -80c-143 -123 -302 -194 -425 -194c-147 0 -257 92 -257 298c0 17 2 38 4 58c11 108 52 253 112 390c-175 28 -263 192 -263 368c0 16 1 30 2 46c12 143 102 353 235 353c34 0 46 -29 44 -47c-1 -10 -5 -15 -10 -15h-9
c-8 5 -17 8 -21 8c-72 0 -137 -142 -152 -248c-1 -11 -1 -28 -1 -38c0 -152 73 -301 227 -319c185 351 479 653 770 653c110 0 209 -44 272 -149c55 -93 85 -216 85 -325c0 -15 -1 -29 -2 -42c-12 -125 -66 -223 -178 -223c-89 0 -195 75 -194 201
c-106 -90 -308 -190 -514 -226c-74 -173 -104 -297 -115 -406c-1 -16 -2 -34 -2 -49c0 -101 31 -167 103 -167c135 0 290 149 397 282c3 20 2 22 1 36c0 11 -7 22 -13 30c-1 5 -4 4 -5 9c-2 12 17 27 41 30c36 4 66 5 90 2c63 -7 90 -45 94 -74c1 -222 -130 -604 -214 -831
c-74 -194 -196 -455 -399 -490c-14 -1 -26 -3 -40 -5c-92 -10 -151 10 -188 48c-33 30 -45 60 -47 92c-3 29 1 60 16 91c71 159 338 342 501 448c50 150 91 285 129 427zM1048 909l4 2c3 0 7 -1 9 -1h13c-9 -28 -13 -53 -15 -73c-9 -105 50 -198 127 -198c49 0 74 62 83 139
c1 14 3 35 3 51c0 180 -78 401 -223 401c-176 0 -370 -280 -506 -553c182 25 401 84 505 232zM494 -919c72 109 150 307 198 435c-139 -95 -354 -250 -413 -370c-35 -66 12 -147 96 -147c37 1 86 35 119 82z" />
    <glyph glyph-name="ampersand" unicode="&#x26;" horiz-adv-x="861" 
d="M643 490c-15 23 -6 65 31 92c15 10 34 16 53 16c20 0 42 -10 52 -34c18 -42 23 -91 20 -131c-9 -99 -72 -191 -156 -261l2 -2c65 -97 138 -215 138 -343c0 -8 0 -19 -1 -28c-4 -45 -28 -161 -124 -161c-28 0 -49 16 -46 49c1 12 4 26 11 40c34 71 51 119 55 160
c4 63 -34 131 -98 231l-4 5c-109 -71 -239 -113 -346 -113c-134 0 -232 64 -220 221c12 134 106 269 210 401c-45 90 -70 185 -70 297c0 19 1 43 3 64c16 160 141 380 347 380c150 0 185 -144 185 -240c0 -10 0 -23 -1 -32c-25 -190 -150 -362 -265 -506l-48 -59
c40 -58 86 -117 133 -177c32 -43 63 -80 94 -123c39 44 68 96 74 147c2 33 -7 73 -29 107zM264 723c4 -12 9 -24 9 -24l1 -1c117 146 234 291 245 421c2 20 2 37 2 53c0 95 -27 126 -65 126c-116 0 -218 -187 -230 -330c-2 -16 -2 -31 -2 -47c0 -67 13 -135 40 -198z
M192 181c-6 -74 35 -105 96 -105c72 0 171 42 250 104c-32 45 -67 89 -101 132c-41 50 -81 101 -119 154c-66 -89 -117 -184 -126 -285z" />
    <glyph glyph-name="D" unicode="D" horiz-adv-x="1395" 
d="M748 994l-1 -1h1c-41 -274 -138 -837 -167 -987v1c-25 -70 -68 -140 -166 -140c-22 0 -29 0 -34 1h1c-24 9 -45 18 -34 42c-2 8 3 16 6 21c7 10 18 30 28 52c46 148 78 405 103 595l7 54c18 136 34 264 55 329c-65 -38 -154 -74 -223 -85c-79 -7 -144 27 -144 90
c0 24 12 53 34 86c70 92 220 172 288 203c151 67 289 98 400 98c335 0 487 -268 487 -599c0 -122 -31 -285 -68 -411c-113 -310 -376 -644 -689 -764c-87 -27 -189 -46 -276 -46c-117 0 -233 33 -325 97c-104 82 -177 207 -177 353c0 48 10 108 25 161
c64 167 250 306 382 306c85 0 149 -50 149 -170c0 -26 -2 -51 -7 -75v1c-14 -25 -32 -21 -43 -10c1 14 2 28 2 40c0 97 -36 138 -86 138c-86 0 -208 -115 -252 -248c-19 -64 -30 -127 -30 -179c0 -108 34 -200 102 -264c59 -60 143 -84 230 -84s180 26 255 69
c196 118 374 412 465 696c44 143 73 305 73 435c0 256 -94 451 -324 451c-71 0 -166 -22 -268 -66c-108 -45 -197 -102 -237 -146c-23 -26 -35 -50 -35 -67c0 -20 21 -31 61 -22c54 16 129 58 187 92l41 24c29 16 54 30 68 35c28 11 55 17 72 17c58 0 68 -52 64 -123z" />
    <glyph glyph-name="a" unicode="a" horiz-adv-x="731" 
d="M533 472l-1 -1c-3 -4 -20 -9 -25 -9c-7 0 -15 4 -21 12c5 14 7 27 9 41c3 68 -24 153 -97 153c-141 0 -296 -363 -306 -480c-3 -38 1 -90 48 -90c84 0 190 191 240 289c4 15 16 35 14 59c-2 18 19 23 39 24c79 -7 105 -39 109 -81c4 -43 -14 -95 -21 -138
c-5 -27 -31 -184 19 -139c65 65 148 215 200 314c15 32 31 63 42 81c5 2 10 3 15 3c12 0 19 -8 24 -19l-10 -22c-55 -111 -172 -349 -266 -426c-27 -22 -67 -39 -103 -39c-95 0 -103 156 -93 223c0 3 0 1 1 10c-72 -119 -175 -237 -287 -237c-105 0 -139 79 -139 170
c0 8 0 20 1 29c25 201 217 561 444 561c117 0 184 -123 176 -234c-2 -19 -6 -37 -12 -54z" />
    <glyph glyph-name="b" unicode="b" horiz-adv-x="698" 
d="M749 503l1 1c16 17 30 11 43 -8c-56 -134 -240 -378 -452 -477c-54 -25 -124 -51 -190 -51c-18 0 -33 2 -49 6c-76 21 -127 86 -122 189c4 117 62 360 111 563c33 140 63 261 67 311c1 22 -2 38 -4 50c-1 7 -2 13 -2 18c1 18 18 23 36 23c104 0 121 -70 115 -139
c-11 -108 -52 -270 -92 -420c-4 -18 -5 -17 -10 -37c70 104 161 193 260 193c105 0 140 -77 140 -166c0 -11 -1 -22 -2 -33c-10 -107 -81 -278 -174 -399c123 91 253 228 324 376zM384 627c-76 0 -169 -152 -223 -253l1 1l-6 -24c-15 -57 -41 -160 -41 -226
c0 -37 7 -63 29 -63c9 0 18 3 29 9c127 66 249 363 258 466c4 38 0 90 -47 90z" />
    <glyph glyph-name="c" unicode="c" 
d="M539 274c-71 -129 -171 -295 -357 -295c-139 0 -190 126 -190 264c0 17 0 34 2 52v-1c19 223 165 488 350 488c118 0 187 -119 179 -232c-2 -24 -5 -64 -39 -64c-7 1 -12 3 -20 11c5 18 9 36 10 50c4 56 -12 114 -47 114c-80 0 -221 -258 -248 -448c-1 -11 -2 -24 -2 -35
c0 -63 19 -118 79 -118c105 0 187 135 239 223v-1c32 55 60 112 82 156c10 20 26 48 36 67c7 3 13 5 15 5c12 0 19 -8 24 -19l-10 -22c-24 -49 -61 -122 -103 -195z" />
    <glyph glyph-name="d" unicode="d" horiz-adv-x="809" 
d="M517 -7c-117 0 -161 63 -161 170c0 12 1 26 2 41c1 18 -1 18 4 44c-74 -123 -178 -252 -294 -252c-105 0 -140 78 -140 167c0 10 0 22 1 32c25 201 217 561 444 561c36 0 66 -11 93 -31l10 38c29 126 55 233 58 274c1 22 -2 38 -4 50c-1 7 -2 13 -2 18c1 18 19 23 38 23
c104 0 120 -70 114 -139c-5 -61 -41 -214 -79 -376c-5 -27 -16 -66 -26 -109c-29 -113 -66 -264 -66 -353c0 -12 0 -23 2 -32c4 -29 17 -41 36 -41c33 0 79 35 105 65c69 77 129 202 169 283c18 37 31 65 39 76c5 4 12 5 16 5c11 0 18 -8 23 -19c-13 -24 -26 -55 -40 -83
c-47 -96 -102 -210 -163 -291c-45 -57 -100 -116 -179 -121zM392 397l-1 -1c14 66 31 139 48 212c3 14 8 26 11 41c-13 10 -29 15 -48 15c-141 0 -296 -363 -306 -480c-4 -38 0 -90 47 -90c90 0 202 211 249 303z" />
    <glyph glyph-name="e" unicode="e" 
d="M534 274c-71 -129 -171 -295 -357 -295c-139 0 -190 126 -190 264c0 17 0 34 2 52v-1c19 223 165 488 350 488c117 0 187 -110 181 -216c-17 -150 -197 -252 -332 -281c-5 -22 -8 -47 -11 -73c-1 -10 -1 -23 -1 -33c0 -58 16 -114 81 -119c102 3 182 138 233 223v-1
c32 55 60 112 82 156c10 20 26 48 36 67c7 3 13 5 15 5c12 0 19 -8 24 -19l-10 -22c-24 -49 -61 -122 -103 -195zM457 634c-10 20 -23 29 -36 29c-78 0 -198 -238 -220 -324c90 12 261 99 271 219c3 25 -2 50 -15 76z" />
    <glyph glyph-name="f" unicode="f" horiz-adv-x="477" 
d="M204 494c-32 -119 -66 -244 -89 -341c28 -43 55 -82 77 -203c100 65 200 279 268 426c26 54 45 98 63 126c20 9 27 6 41 -12c-16 -30 -35 -73 -57 -119c-78 -169 -192 -412 -313 -476c1 -22 2 -48 2 -76c0 -67 -3 -147 -7 -218c-4 -57 -10 -110 -15 -144
c-18 -115 -47 -323 -211 -323c-116 0 -158 115 -158 288c0 303 142 824 237 1164c36 130 74 270 81 320c2 13 2 23 2 34c0 13 0 25 -1 35s-2 19 -1 25c4 21 24 27 44 26c98 -5 125 -69 125 -144c0 -17 -1 -38 -4 -55c-8 -50 -45 -187 -84 -333zM145 -177c0 25 -1 46 -2 61
h-1c-21 2 -53 4 -82 27c-3 -13 -4 -25 -7 -37c-22 -117 -44 -236 -58 -373c-4 -43 -6 -86 -6 -125c0 -77 13 -138 47 -147c38 0 69 106 86 232c6 47 12 99 15 148c6 80 8 157 8 214zM94 85l-16 -84c17 -25 48 -53 63 -58c-9 70 -26 121 -47 142z" />
    <glyph glyph-name="g" unicode="g" horiz-adv-x="684" 
d="M719 479c0 1 1 1 1 2c14 9 28 13 45 -7c-69 -142 -182 -339 -273 -399c-89 -438 -235 -906 -493 -875c-75 9 -124 80 -124 175c0 22 3 46 9 69c67 244 236 413 417 571c11 52 22 104 32 147l16 68c-74 -114 -173 -226 -281 -226c-104 0 -139 77 -139 167c0 9 1 22 2 32
c25 201 217 561 443 561c118 0 186 -123 176 -234c-2 -18 -5 -36 -12 -54c-3 -4 -21 -10 -25 -10c-7 0 -16 4 -22 11c5 15 7 28 9 42c4 68 -24 153 -96 153c-141 0 -296 -363 -306 -480c-4 -38 0 -90 47 -90c74 0 160 138 216 245c7 15 15 34 17 53c1 7 1 13 1 19l-4 23
c-2 8 -2 14 -2 18c2 18 19 23 39 24c89 0 122 -43 129 -98c-6 -72 -14 -143 -25 -223c71 67 150 210 203 316zM-70 -623c0 -35 14 -60 50 -60c32 4 61 27 87 62c79 101 140 298 184 442l21 69l6 27l4 12c-93 -73 -182 -169 -251 -274c-29 -48 -101 -193 -101 -278z" />
    <glyph glyph-name="h" unicode="h" horiz-adv-x="695" 
d="M224 629l-35 -156c17 23 31 49 49 75c71 112 154 239 260 239c73 0 95 -54 88 -125c-7 -73 -40 -171 -71 -262c-31 -87 -60 -175 -66 -234c-1 -27 1 -77 23 -77c63 0 251 371 262 392l3 7h-1c6 13 10 22 26 22c11 0 19 -8 24 -19l-30 -61c-80 -158 -212 -422 -334 -422
c-92 0 -122 57 -122 136c0 9 0 21 1 30c13 103 64 243 103 347c27 72 50 131 53 158c1 13 -2 18 -9 18c-72 0 -222 -259 -277 -352v1l-16 -28h1c-22 -53 -39 -131 -45 -193c-3 -47 4 -81 8 -99c2 -6 3 -11 3 -15c0 -11 -9 -14 -23 -14c-96 0 -121 85 -121 167
c0 13 1 27 2 41c8 93 58 304 103 494c36 153 69 292 73 339c1 22 -2 37 -4 50c-1 7 -2 13 -2 18c1 18 18 23 37 23c101 0 120 -72 115 -139c-4 -40 -45 -218 -78 -361z" />
    <glyph glyph-name="i" unicode="i" horiz-adv-x="373" 
d="M90 662v-1c2 11 3 21 3 28c0 9 1 15 2 19c5 17 23 19 42 14c55 -20 80 -42 80 -80c0 -19 -5 -41 -13 -68c-27 -86 -70 -255 -83 -366c-1 -13 -2 -30 -2 -41c0 -47 9 -78 31 -79c56 0 172 220 237 344c17 32 30 57 40 73c6 3 11 5 15 5c10 0 18 -8 25 -20l-11 -21
c-78 -162 -234 -464 -350 -464c-93 0 -123 80 -123 180c0 16 1 33 2 49c11 130 50 256 91 382zM271 918c15 -26 20 -48 19 -67c-4 -45 -46 -71 -83 -71c-32 0 -60 26 -58 81c4 43 32 91 70 91c17 0 36 -10 52 -34z" />
    <glyph glyph-name="j" unicode="j" horiz-adv-x="311" 
d="M359 500l4 3c1 0 3 0 6 1c9 2 20 5 36 -9c-70 -142 -182 -340 -273 -399c-91 -438 -235 -906 -494 -875c-74 8 -123 80 -123 174c0 23 3 46 9 70c64 245 236 412 417 571c36 171 111 555 113 611c2 23 -2 40 -5 54c-2 8 -2 14 -2 18c2 18 19 23 39 24
c89 0 122 -43 129 -98c-11 -136 -29 -269 -68 -469c75 61 156 212 212 324zM-430 -602c0 -35 14 -61 51 -61c31 4 60 29 87 63c78 105 143 311 186 453c7 21 12 41 18 59v-1c5 17 7 21 11 39c-93 -74 -183 -170 -251 -275c-30 -47 -102 -193 -102 -277zM184 943h1
c11 -27 13 -50 10 -68c-10 -46 -55 -65 -90 -61c-33 4 -60 28 -48 88c10 42 42 86 80 82c17 -2 34 -14 47 -41z" />
    <glyph glyph-name="k" unicode="k" horiz-adv-x="586" 
d="M302 989c-9 -92 -37 -214 -70 -341c26 25 55 45 85 59c34 16 68 23 96 23c66 0 108 -47 104 -122c-16 -142 -156 -302 -298 -327c13 -37 91 -219 156 -224c36 -4 87 101 153 237c28 60 63 133 103 209c14 5 30 6 38 -15c-38 -77 -71 -150 -99 -210
c-73 -153 -129 -268 -189 -283c-109 -21 -218 122 -255 213c-7 -37 -10 -62 -13 -95c-1 -12 -2 -22 -2 -32c0 -32 6 -56 10 -69v1c2 -6 3 -12 3 -15c0 -9 -8 -14 -23 -14c-96 0 -122 91 -122 178c0 14 1 28 2 42c7 93 57 304 103 494c36 153 68 292 72 339c1 22 -2 38 -4 50
c-1 7 -2 12 -2 19c2 18 18 22 38 22c103 0 120 -70 114 -139zM294 636c-31 -18 -65 -54 -90 -90c-18 -70 -37 -137 -52 -205c104 19 215 206 215 284c0 19 -7 31 -22 31c-11 0 -28 -7 -51 -20z" />
    <glyph glyph-name="l" unicode="l" horiz-adv-x="455" 
d="M387 1105c67 0 87 -93 83 -150c-16 -178 -163 -364 -301 -490c-1 0 -32 -118 -42 -223c-2 -17 -2 -32 -2 -47c0 -64 15 -114 59 -114c109 0 219 225 279 349c16 36 30 65 38 75c5 4 12 5 16 5c12 0 19 -8 24 -19l-34 -69h1c-84 -179 -203 -426 -350 -426
c-130 0 -164 122 -164 236c0 18 0 37 2 54v-1c16 190 157 820 391 820zM401 1026c-43 0 -141 -205 -210 -476c55 49 217 239 231 391c4 34 -1 85 -21 85z" />
    <glyph glyph-name="m" unicode="m" horiz-adv-x="1027" 
d="M784 671c1 8 -1 14 -5 16c-1 0 -2 1 -5 1c-62 0 -165 -169 -241 -295c-29 -46 -53 -85 -71 -110l1 1c-21 -61 -36 -119 -41 -167c-2 -35 2 -71 18 -103c1 -3 2 -5 1 -12c-1 -10 -9 -13 -23 -13c-96 0 -128 67 -128 149c0 9 0 22 1 31c12 106 63 246 103 350
c28 71 51 132 53 160c1 13 -1 18 -9 18c-71 0 -221 -259 -276 -352v1l-17 -28h1c-20 -53 -38 -131 -44 -193c-3 -47 4 -81 9 -99c2 -6 3 -12 3 -16c-2 -10 -11 -13 -24 -13c-97 0 -121 85 -121 167c0 13 1 27 2 41c8 90 31 188 54 274c17 71 35 140 39 188c1 21 -2 37 -4 50
c-1 7 -2 11 -2 18c2 17 18 23 37 23c101 0 120 -73 115 -139c-3 -36 -12 -74 -21 -106c-5 -23 -7 -24 -10 -42c17 23 34 50 52 78c72 112 152 238 258 238c75 0 96 -61 92 -125c-4 -46 -20 -103 -40 -159c7 11 12 18 19 29c74 115 157 246 265 246c73 0 93 -54 88 -125
c-6 -75 -38 -174 -72 -265c-30 -86 -60 -172 -65 -232c-3 -26 0 -76 23 -76c58 -1 229 328 259 387c0 1 2 5 3 6l3 6h-1c6 13 10 22 25 22c12 0 20 -8 25 -19l-30 -60c-80 -159 -212 -423 -334 -423c-91 0 -123 56 -123 134c0 9 1 22 2 32c12 104 63 243 103 347
c27 72 50 131 53 159z" />
    <glyph glyph-name="n" unicode="n" horiz-adv-x="689" 
d="M193 513c-4 -15 -8 -28 -10 -40c16 22 31 49 49 75c71 112 154 239 260 239c74 0 95 -53 89 -125c-6 -74 -39 -172 -73 -265c-29 -85 -58 -174 -65 -231c-1 -27 1 -77 23 -77c58 -1 229 328 259 386c0 1 2 5 3 6l4 8c6 12 10 21 24 21c13 0 20 -8 25 -19
c-9 -16 -22 -40 -32 -63c-79 -157 -208 -420 -332 -420c-92 0 -123 58 -123 137c0 8 0 20 1 29c12 103 63 243 103 347c27 72 50 131 53 158c1 13 -2 18 -9 18c-72 0 -222 -259 -277 -352v1l-16 -28h1c-22 -54 -40 -131 -45 -193c-1 -11 -1 -21 -1 -31c0 -32 5 -55 9 -69
c2 -6 3 -10 3 -14c0 -11 -9 -14 -22 -14c-97 0 -122 85 -122 167c0 13 1 27 2 41c7 87 33 196 55 280c18 71 34 137 38 182c1 21 -2 37 -4 50c-1 7 -2 12 -2 17c1 18 19 24 38 24c101 0 119 -73 114 -139c-3 -36 -11 -74 -20 -106z" />
    <glyph glyph-name="o" unicode="o" horiz-adv-x="684" 
d="M201 7c-152 0 -199 180 -199 323c0 20 0 40 2 56c5 63 14 120 29 159c26 32 64 46 101 46c21 0 45 -6 63 -15c14 141 59 294 218 294c130 0 184 -115 184 -262c0 -20 -1 -39 -3 -57v1c-10 -103 -45 -218 -96 -314c103 21 158 123 209 222l22 40c6 3 13 6 17 6
c7 0 14 -4 18 -20c-45 -107 -143 -295 -298 -304c-68 -103 -160 -175 -267 -175zM308 520c0 -113 21 -257 132 -278c52 84 89 202 98 307c2 18 2 35 2 52c0 115 -39 208 -128 208c-62 0 -90 -96 -100 -203c-2 -24 -4 -54 -4 -86zM399 186c-133 40 -188 134 -202 256
c-4 -21 -6 -45 -8 -67c-2 -21 -3 -42 -3 -62c0 -99 23 -191 93 -191c45 0 83 22 120 64z" />
    <glyph glyph-name="p" unicode="p" horiz-adv-x="762" 
d="M805 500l1 2c24 18 38 7 50 -5c-53 -108 -168 -261 -309 -368c-79 -58 -197 -129 -302 -129c-51 0 -105 22 -144 62c-10 -51 -19 -98 -28 -137c-29 -140 -49 -227 -63 -372c-2 -20 -2 -37 -2 -53c0 -40 4 -69 7 -86c1 -9 2 -12 2 -20c-2 -14 -11 -17 -22 -17
c-92 0 -122 117 -122 232c0 20 1 43 3 63c13 124 64 379 104 576c34 170 70 340 75 404c3 28 0 51 -2 69c-1 11 -2 19 -1 26c1 22 18 29 37 29c83 0 107 -66 107 -146c0 -14 -1 -30 -2 -45c0 -7 -1 -18 -2 -24c58 113 144 215 247 242c15 4 29 5 44 5c95 0 140 -79 155 -165
c4 -22 6 -48 6 -76c0 -112 -32 -254 -96 -371c98 81 196 187 257 304zM158 339c-12 -64 -25 -131 -40 -201c28 -46 81 -80 137 -67c134 30 205 342 205 494c0 18 -2 35 -4 48c-5 38 -24 87 -74 75c-96 -21 -191 -246 -224 -349z" />
    <glyph glyph-name="q" unicode="q" horiz-adv-x="607" 
d="M242 -268l18 137c10 72 21 155 33 232c3 22 4 35 10 71c-68 -96 -151 -172 -244 -172c-106 0 -139 78 -139 169c0 8 0 21 1 30c25 201 218 561 444 561c117 0 184 -123 176 -234c-2 -18 -6 -36 -12 -53c-3 -5 -21 -11 -26 -11c-6 0 -15 4 -21 12c5 14 7 27 9 41
c4 68 -24 153 -96 153c-142 0 -297 -363 -307 -480c-3 -38 1 -90 48 -90c66 0 147 118 201 216h-1c13 38 30 73 54 99v-1l5 11h4c25 18 61 29 100 25c19 -2 30 -12 26 -29c0 -1 -5 -11 -10 -20c-6 -11 -15 -24 -21 -51c-16 -49 -32 -160 -50 -283l4 10
c94 198 188 395 205 439c19 6 35 11 44 -21c-23 -58 -150 -325 -256 -551c-7 -14 -17 -34 -23 -48v1c-18 -120 -38 -236 -58 -305c-29 -100 -101 -219 -205 -206c-12 2 -20 7 -16 18c1 2 4 8 9 17c12 18 31 52 47 101c22 79 36 148 47 212z" />
    <glyph glyph-name="r" unicode="r" horiz-adv-x="483" 
d="M43 399l-42 10l69 137c-91 9 -131 88 -124 169c12 86 79 192 174 192c59 0 83 -35 79 -104c-8 -75 -47 -171 -58 -200c32 -8 62 -8 89 -8c55 0 91 -1 85 -65c-1 -10 -3 -22 -6 -34l-10 -41c-23 -96 -54 -221 -62 -294c-3 -42 8 -75 22 -77c74 29 210 285 268 397l3 7h-1
c6 13 10 22 25 22c10 0 18 -8 25 -20l-11 -21c-55 -111 -172 -349 -266 -426c-27 -22 -66 -39 -103 -39c-69 0 -95 84 -95 177c0 15 1 31 2 45c6 68 47 240 75 311l-68 3c-23 -46 -47 -96 -70 -141zM63 660c-3 -25 5 -44 31 -49c12 23 49 115 54 167c1 15 1 21 -3 21
c-21 0 -77 -82 -82 -139z" />
    <glyph glyph-name="s" unicode="s" horiz-adv-x="456" 
d="M35 904c24 21 59 32 92 32c46 0 88 -21 88 -75c0 -41 -22 -96 -47 -156c-12 -30 -25 -61 -36 -93c103 -154 194 -324 196 -417c61 90 121 205 154 272c1 2 3 5 3 5l8 16h-1c6 13 10 22 25 22c12 0 21 -8 26 -20l-6 -12l-3 -3c-58 -118 -182 -366 -288 -446
c-65 -44 -160 -71 -236 -71c-88 0 -157 32 -151 101c2 19 22 43 43 43c16 0 16 -18 15 -34c-1 -43 46 -50 85 -48c106 4 151 72 155 182c-1 71 -40 188 -90 265l-44 -99l-36 13l53 125c-46 59 -79 145 -79 227c0 64 20 127 74 171zM101 651l10 24c25 59 60 148 50 170h1
c-4 8 -8 12 -13 13c-23 4 -60 -77 -60 -148c0 -21 4 -41 12 -59z" />
    <glyph glyph-name="t" unicode="t" horiz-adv-x="430" 
d="M300 990c-3 -35 -11 -75 -20 -120c117 1 219 -23 265 -125h-1c6 -11 -6 -28 -22 -21c-55 56 -140 71 -233 71h-25c-13 -59 -29 -120 -45 -182l-19 -76l-3 -13c-18 -69 -65 -253 -65 -364c0 -38 5 -69 21 -80c12 -9 40 -2 78 26c83 66 159 219 205 315h-1
c18 37 33 67 48 85c1 1 5 1 11 1c10 0 18 -6 23 -19l-36 -75h1c-86 -179 -202 -420 -347 -420c-119 0 -159 62 -159 167c0 14 1 29 2 45c8 92 63 328 108 520l14 57c-45 -4 -86 -7 -125 -7c-81 0 -147 16 -172 71c-6 14 -5 39 20 24l-1 1c40 -17 88 -23 139 -23
c48 0 105 6 157 11c18 83 33 151 36 179c1 22 -2 37 -4 50c-1 7 -2 13 -2 18c2 19 18 23 37 23c104 0 121 -70 115 -139z" />
    <glyph glyph-name="u" unicode="u" horiz-adv-x="710" 
d="M185 741c39 -24 50 -76 46 -128c-5 -58 -25 -121 -39 -161c-25 -76 -69 -226 -78 -306c-1 -29 1 -54 13 -54c54 0 202 252 260 348l-1 -1c26 81 47 136 53 217c1 10 -1 23 -3 33c-1 7 -2 15 -2 15c2 26 19 35 64 35c63 0 80 -54 74 -114c-7 -73 -35 -170 -61 -258
c-24 -79 -47 -152 -50 -200c-3 -26 0 -78 22 -78c63 0 252 371 263 392l3 7h-1c6 13 10 22 25 22c13 0 20 -8 25 -19c-9 -16 -22 -40 -33 -63c-78 -157 -207 -420 -331 -420c-93 0 -123 54 -123 131v29c1 20 5 43 10 65c-2 -2 -3 -6 -5 -8c-70 -108 -147 -226 -255 -226
c-69 0 -93 51 -93 126c0 13 1 27 2 41c8 88 41 209 68 308c22 80 43 157 47 201c2 21 -2 35 -5 45v-1c-2 6 -2 10 -2 15c1 18 19 24 37 24c26 0 58 -10 70 -17z" />
    <glyph glyph-name="v" unicode="v" horiz-adv-x="686" 
d="M732 491l1 2c16 11 26 8 43 -8c-40 -92 -122 -174 -218 -190c-35 -5 -76 2 -111 22c-29 -58 -60 -112 -84 -153c-47 -79 -116 -169 -222 -165c-91 2 -117 107 -117 235c0 105 17 226 30 314c9 57 15 101 14 121c-1 18 -7 32 -11 42c-2 5 -4 8 -4 14c-2 18 14 25 32 28
c26 4 61 0 73 -5c42 -21 63 -70 66 -121c2 -53 -7 -121 -16 -160c-10 -58 -26 -156 -31 -232c0 -3 -1 -7 -1 -10c0 -12 -1 -28 -1 -44c0 -39 5 -82 39 -85c42 -4 80 49 102 86c26 43 57 98 93 169c-36 47 -53 123 -53 202c0 180 84 390 210 381c57 -4 78 -42 78 -99
c0 -90 -55 -227 -112 -352l-56 -116c20 -17 44 -27 66 -27c8 0 18 2 28 4c67 17 129 79 162 147zM566 883c-80 21 -138 -246 -138 -396c0 -36 3 -63 10 -79l41 77c49 99 119 260 119 341c0 32 -9 52 -32 57z" />
    <glyph glyph-name="w" unicode="w" horiz-adv-x="998" 
d="M1042 491l1 2c16 11 26 8 42 -8c-39 -92 -121 -174 -217 -190c-35 -5 -77 2 -112 22c-15 -25 -25 -46 -37 -72c-56 -112 -124 -249 -260 -249c-129 0 -129 118 -128 220c0 17 1 17 0 33l-12 -19c-71 -108 -147 -226 -256 -226c-69 0 -92 51 -92 126c0 13 1 27 2 41
c7 92 39 206 67 309c23 83 43 156 47 200c2 21 -2 35 -4 45v-1c-2 5 -2 10 -2 16c2 17 17 23 37 23c25 0 58 -10 69 -17c38 -26 51 -77 47 -129c-5 -58 -26 -119 -40 -160c-24 -76 -68 -226 -77 -306c-1 -29 1 -54 13 -54c53 0 202 252 259 348l-1 -1c27 81 47 136 53 217
c1 10 -1 23 -3 33c-1 7 -2 15 -2 15c2 26 19 35 64 35c66 0 81 -52 76 -115c-2 -23 -13 -72 -27 -131c-23 -102 -54 -234 -57 -317c-4 -58 17 -78 43 -72c70 15 126 125 165 205l19 38c-37 47 -53 122 -53 202c0 180 83 389 210 380c57 -4 79 -44 79 -101
c0 -86 -49 -212 -95 -314l-11 -21l1 1l-8 -16l-28 -59l-28 -57c20 -17 44 -27 66 -27c8 0 18 2 28 4c67 17 129 79 162 147zM876 883c-80 21 -138 -246 -138 -396c0 -34 4 -62 10 -78l6 12c11 21 24 43 35 64c49 99 119 260 119 341c0 32 -9 52 -32 57z" />
    <glyph glyph-name="x" unicode="x" horiz-adv-x="763" 
d="M65 450c-20 -12 -29 -8 -39 -2c-3 0 -9 1 -10 1l18 39c45 102 149 334 275 337c125 2 143 -114 148 -252l150 228c20 2 39 4 40 -29l-24 -38l-164 -250c1 -21 2 -40 4 -61c13 -162 38 -320 102 -287c75 52 170 219 213 298l13 26c13 24 28 52 43 78c20 8 38 11 42 -17
c-20 -34 -38 -66 -53 -96l-26 -45c-51 -92 -104 -190 -174 -269c-40 -44 -85 -79 -134 -89c-98 -22 -150 99 -180 236l-173 -262l-16 -25c-3 1 -5 2 -6 2c-12 -3 -30 -7 -36 23l218 332c-12 76 -19 153 -25 218s-10 118 -19 139c-7 16 -15 24 -23 24
c-53 0 -137 -198 -159 -249z" />
    <glyph glyph-name="y" unicode="y" horiz-adv-x="658" 
d="M702 494l4 3c1 0 3 0 6 1c9 2 21 5 36 -9c-69 -142 -182 -340 -273 -399c-90 -438 -235 -906 -494 -875c-74 9 -123 80 -123 174c0 23 3 46 9 70c66 245 235 413 417 571c14 70 31 150 52 255l-13 -19c-85 -135 -178 -267 -280 -267c-69 0 -94 51 -94 126c0 13 1 27 2 41
c8 88 42 209 69 308c22 80 43 157 47 201c2 21 -2 35 -4 45c-1 5 -2 8 -2 14c1 18 18 24 36 24c26 0 58 -10 70 -17c38 -26 51 -77 47 -128c-4 -52 -20 -103 -33 -142l-6 -19c-25 -77 -70 -227 -79 -306c-1 -29 1 -54 13 -54c49 0 177 216 242 328v-1c5 8 11 16 15 24l-1 -1
c20 102 31 176 32 199c2 23 -2 40 -4 54c-2 8 -2 14 -2 18c2 18 18 23 39 24c88 0 121 -43 128 -98c-11 -136 -28 -268 -67 -468c74 60 155 211 211 323zM-87 -608c0 -35 14 -61 50 -61c31 4 61 28 87 63c78 103 141 302 185 444c8 24 13 48 20 68v-1l10 39
c-93 -73 -182 -169 -251 -274c-29 -48 -101 -194 -101 -278z" />
    <glyph glyph-name="z" unicode="z" horiz-adv-x="823" 
d="M877 501l2 2c22 13 33 3 41 -11l-259 -468c0 -6 -1 -19 -2 -26c-3 -9 -7 -16 -16 -16c-39 37 -104 47 -180 47c-50 0 -104 -4 -156 -8c-48 -4 -94 -8 -133 -8c-33 0 -62 3 -83 10c-32 9 -48 30 -48 59c0 25 12 56 41 93c127 161 401 362 523 452l42 32c-8 2 -20 3 -35 3
c-23 0 -57 -2 -89 -5c-43 -4 -94 -8 -141 -8c-71 0 -139 10 -180 44l-154 -296c-16 -5 -32 -6 -45 11l176 334c1 19 12 94 36 90c9 -3 10 -10 13 -20l4 -10c15 -27 82 -36 157 -36c53 0 109 4 157 7c34 2 61 3 79 3c71 -1 153 -38 137 -123c-1 -8 -5 -16 -14 -16
c-3 0 -8 1 -13 5l-2 1c-193 -102 -414 -329 -557 -502c8 -4 23 -5 46 -5c28 0 65 3 105 6c48 3 100 7 146 7c51 0 95 -4 120 -20c19 -12 35 -23 47 -43c19 36 38 71 235 415z" />
    <glyph glyph-name="O" unicode="O" horiz-adv-x="1364" 
d="M523 660l1 -5c-1 -9 -2 -18 -5 -29c-20 -95 -54 -264 -69 -431c24 2 50 6 75 8h13c4 0 6 0 10 1c-9 83 -20 208 -20 350c0 54 1 114 7 171c29 286 136 581 434 581c258 0 368 -234 368 -533c0 -35 -2 -77 -5 -114c-50 -507 -376 -1136 -811 -1136
c-230 0 -356 189 -391 420c-47 -35 -84 -76 -88 -110c-1 -3 1 -13 3 -20c1 -5 1 -13 1 -16c0 -7 -6 -14 -15 -14c-15 0 -39 30 -43 39c-3 16 -6 41 -6 55c8 62 60 129 136 183c-3 27 -3 52 -3 81c0 57 3 111 8 163c11 128 33 246 59 327v-1c45 58 117 86 186 86
c57 0 114 -21 155 -56zM681 110c-42 10 -78 13 -106 13c-49 0 -89 -11 -129 -23c-2 -206 47 -389 233 -389c305 0 550 512 588 942c3 36 4 73 4 108c0 263 -90 476 -304 476c-150 0 -218 -225 -241 -461c-6 -63 -9 -133 -9 -195c0 -130 14 -284 28 -377l11 -61
c4 -14 7 -26 6 -34s-7 -12 -14 -12c-9 0 -24 3 -42 8c-4 0 -9 1 -13 2z" />
    <glyph glyph-name="germandbls" unicode="&#xdf;" horiz-adv-x="1481" 
d="M1003 515c1 0 2 1 3 1c173 1 273 180 286 325c1 16 1 34 0 49c-7 87 -42 130 -88 130c-69 0 -163 -82 -214 -178c-68 -141 -104 -359 -127 -520c-15 -112 -29 -210 -52 -254v1c-21 -63 -62 -123 -155 -123c-12 0 -23 1 -33 2c-25 7 -45 15 -36 38c2 6 4 10 10 17
c7 10 17 26 26 46v-1c8 36 16 80 24 131c35 202 88 499 223 691c78 105 198 188 315 188c18 0 36 -1 51 -5c136 -35 198 -138 189 -247c-11 -120 -100 -253 -221 -318c90 -44 157 -126 169 -217c4 -33 4 -64 2 -95c-29 -333 -423 -499 -783 -499c-327 0 -623 135 -600 401
c3 32 9 65 21 99c58 158 241 283 366 283c83 0 141 -48 131 -169c-1 -14 -6 -40 -8 -55c-10 -21 -23 -32 -41 -21c10 117 -27 163 -79 163c-76 0 -187 -101 -232 -215c-13 -38 -21 -77 -24 -109c-19 -213 167 -312 387 -312c297 0 655 177 684 501c1 12 1 30 1 41
c-4 125 -69 181 -202 183c-10 8 -4 40 7 48z" />
    <glyph glyph-name="B" unicode="B" horiz-adv-x="1312" 
d="M772 996c-43 -274 -138 -835 -169 -984c-29 -80 -78 -157 -198 -141c-25 9 -48 20 -36 44c0 7 2 13 7 20c9 10 18 31 28 55l-1 -1c47 157 78 389 103 590c22 165 38 308 63 381c-66 -38 -149 -75 -223 -84c-84 -8 -149 30 -143 98c2 23 12 50 34 79
c67 93 215 173 287 205c129 55 302 99 446 95c213 -4 394 -109 390 -377c0 -9 -1 -24 -2 -34c-17 -206 -145 -409 -381 -467c148 -58 224 -160 237 -270c3 -26 3 -56 1 -83c-30 -362 -503 -597 -826 -597c-40 0 -77 4 -111 11c-247 51 -421 233 -400 490c4 40 11 79 24 120
c58 179 244 307 380 307c93 0 163 -57 151 -201c-1 -13 -3 -30 -6 -45c-18 -26 -34 -23 -43 -11c9 129 -32 179 -87 179c-85 0 -204 -114 -250 -245c-14 -45 -25 -93 -28 -134c-15 -208 90 -370 288 -393c16 -3 31 -3 45 -3c289 0 651 314 656 609c3 125 -71 222 -263 243
c-10 10 -3 45 12 55c235 69 343 251 358 429c1 12 2 24 2 34c2 150 -72 226 -177 255c-34 10 -73 15 -113 15c-87 0 -190 -25 -277 -56c-114 -46 -198 -101 -237 -144c-21 -24 -34 -46 -35 -63c-2 -23 19 -35 61 -25c50 15 125 56 185 91c43 25 86 50 109 59
c27 11 54 17 72 17c59 0 70 -52 67 -123z" />
    <glyph glyph-name="C" unicode="C" horiz-adv-x="1378" 
d="M1452 456l-31 -58c-99 -170 -229 -394 -354 -544c-144 -169 -372 -272 -555 -249c-394 50 -312 580 -206 907c-157 4 -239 161 -232 335c12 131 85 337 195 358c30 6 42 -20 41 -36c1 -10 -4 -15 -9 -15c-6 -1 -11 0 -16 1h-8c-64 -13 -117 -152 -127 -250
c-3 -146 65 -295 205 -286c120 301 399 724 766 724c73 0 139 -31 185 -98c58 -87 87 -212 82 -320c-5 -116 -52 -210 -148 -230c-77 -12 -175 35 -176 150c-89 -102 -251 -219 -436 -288c-49 -136 -90 -289 -102 -432c-2 -22 -3 -45 -4 -67c-19 -119 22 -259 121 -310
c119 -63 272 31 372 130c131 145 261 366 352 521h-1l41 71c20 13 34 9 45 -14zM1122 947c-4 -13 -6 -27 -8 -40c-7 -90 40 -172 113 -163c40 13 66 69 69 141c10 168 -69 392 -206 373c-153 -34 -316 -314 -423 -583c157 53 327 143 414 293c30 32 50 4 41 -21z" />
    <glyph glyph-name="A" unicode="A" horiz-adv-x="1680" 
d="M344 646c117 0 195 -77 195 -179c0 -27 -5 -56 -17 -89c160 123 383 166 531 123c163 261 305 563 377 845v-1c3 8 10 17 18 19c8 11 22 16 41 16c120 0 148 -84 148 -177c0 -13 0 -35 -1 -50c-20 -183 -88 -467 -151 -733c106 2 208 62 297 182c23 17 36 5 40 -17
c-108 -163 -222 -208 -351 -220c-17 -94 -26 -205 -26 -312c0 -249 57 -493 251 -493c39 0 89 12 142 36c18 -6 29 -14 29 -24c0 -9 -8 -24 -18 -36c-81 -35 -152 -49 -219 -49c-277 0 -375 306 -375 623c0 86 8 181 22 267c-68 12 -129 28 -200 48
c-117 -182 -257 -357 -398 -480c-93 -80 -196 -155 -331 -155c-198 0 -380 156 -380 400c0 208 141 456 376 456zM1013 436l-2 5c-48 12 -91 16 -130 16c-160 0 -302 -83 -421 -218c-8 -5 -20 -10 -28 -10c-16 0 -31 9 -30 27c49 55 95 135 82 215c-21 57 -63 78 -95 81
c-100 4 -215 -168 -244 -339c-26 -140 37 -366 222 -366c41 0 81 12 126 33c155 83 346 295 520 556zM1419 1075l-6 2c-72 -176 -176 -388 -301 -596c60 -18 115 -35 175 -48c60 269 105 487 132 642z" />
    <glyph glyph-name="E.001" unicode="&#xe000;" horiz-adv-x="1333" 
d="M636 -199c47 -118 173 -189 290 -172c101 15 196 98 228 234c22 99 20 206 -43 232c-86 27 -153 -59 -180 -126c-10 2 -29 4 -30 32c36 116 141 191 271 142c110 -57 138 -143 116 -271c-68 -394 -697 -438 -908 -137c-137 196 -110 485 190 694c-84 34 -138 86 -172 144
c-146 12 -265 103 -308 266c-8 32 -13 68 -14 106c-4 113 25 236 107 267c29 10 50 -12 52 -28c1 -8 1 -15 -5 -16c-5 -2 -13 -2 -19 -2c-3 0 -6 0 -8 -1c-47 -17 -67 -101 -64 -182c1 -25 4 -53 10 -76c33 -113 110 -224 212 -242c-3 18 -5 37 -6 57
c-9 263 265 588 530 615c10 1 23 1 32 1c240 0 355 -234 371 -436c3 -103 -37 -209 -120 -230c-77 -10 -181 36 -195 150c-60 -78 -180 -175 -305 -242c18 -30 57 -44 91 -50c12 -2 27 -3 38 -3c21 0 40 2 60 5c28 3 51 6 73 2c20 -6 30 -18 30 -32c1 -16 -10 -31 -28 -41
c-234 -122 -380 -446 -296 -660zM1019 925c-2 -14 -3 -28 -2 -41c3 -89 61 -172 132 -162c38 13 57 69 51 141c-9 139 -64 330 -193 330c-34 0 -74 -13 -120 -43c-152 -103 -300 -302 -294 -468c0 -9 1 -20 3 -30c150 51 307 141 379 293c25 32 48 4 44 -20z" />
    <glyph glyph-name="H" unicode="H" horiz-adv-x="1540" 
d="M1308 1095c3 37 -8 61 -7 72c2 17 17 21 36 21c112 0 131 -74 125 -146c-12 -142 -70 -373 -130 -603c63 1 122 11 174 34c24 15 20 -15 13 -30c-41 -78 -118 -105 -214 -108c-22 -83 -44 -163 -62 -237c-55 -211 -170 -649 165 -635c24 -17 17 -30 -8 -47
c-477 -59 -387 413 -323 696c15 70 34 150 55 233c-72 8 -148 20 -224 27c-32 -120 -71 -237 -99 -344c-34 -119 -73 -233 -107 -299c-33 -68 -94 -122 -211 -70c-21 7 -35 19 -29 33c7 11 34 26 51 61c12 24 30 72 50 134c49 156 106 318 153 486
c-93 -10 -177 -41 -241 -110c-15 -7 -28 13 -19 26c65 131 167 181 287 194c62 265 137 721 -169 809c-138 27 -311 -139 -353 -336c-37 -181 32 -373 129 -385c115 -20 237 189 259 273c7 1 40 21 41 -19c-51 -193 -243 -401 -438 -314c-156 81 -196 281 -130 466
c80 229 284 388 516 371c114 -10 220 -62 284 -143c146 -191 121 -459 56 -726c73 -7 148 -19 222 -28c66 256 138 521 148 644z" />
    <glyph glyph-name="T" unicode="T" horiz-adv-x="1260" 
d="M126 899c-8 14 -10 35 8 40c18 4 16 -6 24 -15c23 -25 95 -18 123 -15c511 40 1129 464 1662 467c140 1 258 -63 314 -208c28 -127 -42 -281 -175 -329c-25 -9 -53 -13 -80 -13c-132 0 -225 111 -240 215c13 28 31 22 40 15c7 -54 79 -188 174 -175
c108 22 156 156 152 244c-22 263 -409 102 -673 14c-107 -36 -179 -65 -290 -98c-8 -175 -28 -286 -54 -406c-32 -137 -58 -287 -98 -439c-68 -260 -173 -515 -400 -638c-96 -52 -214 -64 -324 -36c-217 59 -326 268 -288 498c29 188 159 354 339 375
c196 14 274 -182 257 -359c-2 -24 -3 -80 -35 -80c-29 3 -18 31 -17 50c10 98 -9 273 -108 291c-91 21 -248 -130 -301 -303c-56 -189 20 -399 158 -418c323 -20 474 431 544 686c53 199 83 390 118 578c13 64 18 109 19 134l-1 12c-205 -69 -411 -154 -608 -151
c-63 2 -206 11 -240 64z" />
    <glyph glyph-name="I" unicode="I" horiz-adv-x="1053" 
d="M1090 1085c-23 -159 -70 -340 -123 -537c-87 -345 -128 -506 -128 -643c0 -158 52 -288 241 -280c28 -22 20 -37 -9 -56c-29 -4 -57 -6 -84 -6c-248 0 -316 171 -316 371c0 127 31 275 91 526c57 219 143 553 143 708c0 59 -14 92 -44 84c-88 -28 -196 -92 -294 -171
c-77 -60 -454 -386 -454 -577c0 -16 3 -33 10 -47l3 -8c5 -13 14 -34 0 -45c-19 -14 -71 31 -81 47c-19 37 -30 82 -30 122c0 182 163 402 366 562c145 114 352 222 505 222c117 0 205 -65 205 -240c0 -10 0 -21 -1 -32z" />
    <glyph glyph-name="J" unicode="J" horiz-adv-x="1014" 
d="M843 1240c-90 -31 -191 -92 -286 -167c-90 -72 -444 -387 -444 -572c0 -15 2 -29 9 -45l-1 1l2 -7c7 -16 15 -39 1 -48c-21 -14 -73 31 -81 48c-20 36 -30 79 -30 119c0 180 161 399 361 559c143 113 346 219 495 219c116 0 200 -65 200 -238v-33
c-24 -156 -68 -337 -107 -487c-5 -19 -9 -37 -13 -54l-10 -34l-6 -22l-17 -67c-71 -280 -211 -838 -422 -873h-3c-9 -1 -16 -2 -37 -2c-84 0 -134 40 -163 101c-24 52 -35 103 -35 152c0 46 11 97 24 143c80 234 329 472 481 613c54 181 126 473 126 614c0 59 -11 92 -44 80
zM513 -227c73 158 160 460 215 657c-138 -131 -324 -321 -382 -507c-12 -42 -21 -82 -21 -118c0 -8 1 -20 4 -38c13 -72 39 -105 72 -105c37 -1 79 40 112 111z" />
    <glyph glyph-name="Q" unicode="Q" horiz-adv-x="990" 
d="M323 7c90 8 157 5 244 -21c183 218 349 833 302 1117c-16 96 -64 139 -124 147c-306 41 -742 -893 -497 -1049c17 -11 31 -34 -29 -36c-475 -19 -84 1192 574 1170c137 -5 217 -62 253 -175c100 -310 -127 -946 -374 -1211c42 -17 74 -33 115 -56
c233 -130 409 -351 327 -543c-7 -13 -50 -63 -67 -53c-13 8 -2 33 2 43c60 176 -341 435 -420 477c-20 12 -40 22 -59 32c-32 -28 -61 -46 -86 -57c-226 -98 -515 141 -161 215zM349 -154c48 0 87 16 132 41c-62 23 -114 33 -166 32c-154 -5 -57 -73 34 -73z" />
    <glyph glyph-name="K" unicode="K" horiz-adv-x="1312" 
d="M802 1162c145 -186 120 -448 55 -708c80 37 170 111 253 203c67 70 398 468 303 614c-6 9 -21 30 -11 41c15 16 67 -15 77 -26c118 -153 -6 -431 -201 -642c-117 -128 -259 -231 -385 -264c219 -392 398 -991 853 -928c12 3 17 13 30 0c11 -14 -6 -32 -20 -36
c-648 -165 -849 450 -950 852c-26 -89 -54 -175 -76 -256c-34 -116 -72 -227 -105 -292c-33 -66 -95 -129 -211 -78c-20 7 -32 28 -25 42c17 23 40 31 57 50c22 26 45 76 59 116c64 194 107 386 157 594c61 256 143 716 -164 803c-135 26 -306 -136 -347 -328
c-37 -177 32 -365 127 -376c113 -20 233 184 255 266c7 1 39 21 40 -18c-50 -189 -239 -392 -431 -307c-154 79 -193 274 -129 455c79 224 280 379 509 362c112 -9 217 -60 280 -139z" />
    <glyph glyph-name="L" unicode="L" horiz-adv-x="1161" 
d="M220 -339c-168 37 -228 140 -222 241c2 54 25 109 59 151c45 51 112 79 172 79c85 0 165 -51 172 -151c0 -24 -4 -47 -14 -70c48 34 108 54 179 65c80 156 136 367 173 509c2 7 5 13 6 20c-32 -10 -62 -14 -94 -14c-36 0 -71 6 -103 12c-189 44 -269 220 -261 392
c9 175 116 348 289 376c11 2 26 3 37 3c143 0 231 -129 216 -221c-15 -32 -28 -26 -40 -14c-3 94 -51 125 -82 132c-11 2 -24 3 -34 3c-142 0 -228 -165 -236 -323c-5 -103 24 -208 91 -257c36 -27 81 -43 130 -43c33 0 75 11 112 26l32 112c68 252 144 522 287 617
c45 27 105 45 159 45c65 0 124 -27 143 -95c5 -19 7 -38 6 -62c-10 -196 -263 -533 -433 -627l-29 -118c-36 -142 -78 -318 -152 -471c89 -7 170 -30 259 -58c282 -91 538 -272 528 -461c-1 -12 -2 -27 -5 -38c-4 -20 -44 -74 -66 -68c-18 6 -14 35 -10 46
c9 185 -523 403 -625 432c-50 18 -72 20 -106 25c-12 2 -24 3 -40 6c-99 -122 -269 -208 -420 -208c-26 0 -53 2 -78 7zM1005 740l-17 -82c119 53 337 346 346 525c6 88 -46 134 -117 72c-130 -114 -181 -362 -212 -515zM281 -200v1c33 39 67 98 70 150c1 10 0 22 -2 32
c-12 49 -53 73 -96 73c-33 0 -68 -15 -91 -42c-27 -31 -40 -74 -43 -115c-3 -61 18 -124 68 -155c31 -20 61 -28 89 -28c90 0 172 82 228 156c-78 -8 -141 -37 -172 -90c-21 -18 -53 -9 -51 18z" />
    <glyph glyph-name="M" unicode="M" horiz-adv-x="2038" 
d="M1153 1096c5 28 0 52 -4 68v-1c-2 9 -4 16 -3 25c5 23 28 26 53 27c69 -5 109 -24 134 -54c59 -67 77 -206 88 -303l4 -27c8 -80 14 -178 21 -277c8 -127 14 -237 26 -320c103 225 309 542 416 742v8c2 18 -2 31 -5 42c-1 6 -3 10 -2 17c0 19 18 23 38 26
c108 10 129 -53 124 -116c-10 -141 -79 -410 -137 -637c-60 -233 -84 -327 -91 -415c-11 -121 8 -234 120 -257c8 -2 21 -1 36 -1c35 0 76 1 76 -21c0 -9 -8 -19 -24 -31c-52 -10 -99 -14 -139 -12c-205 11 -237 176 -222 350c7 76 23 155 37 219c21 100 55 239 86 357
c27 105 42 168 62 257c-31 -67 -77 -132 -328 -593v1c-3 -10 -8 -20 -10 -29c-12 -35 -26 -62 -64 -71c-59 -14 -86 22 -97 61c-30 112 -44 344 -55 536l-5 101c-27 -83 -51 -159 -73 -229c-39 -129 -73 -238 -113 -346c-106 -299 -259 -594 -518 -731
c-69 -37 -147 -56 -223 -56c-46 0 -93 7 -135 21h1c-196 62 -290 249 -271 467c3 38 10 79 20 119c55 215 222 408 419 429c191 11 263 -172 247 -356c-2 -21 -6 -45 -10 -65c0 -2 -1 -6 -2 -9c-5 -32 -17 -92 -47 -92c-22 -2 -27 11 -25 27c0 9 3 20 6 28c2 5 4 14 4 13
c8 28 15 62 18 97c9 104 -10 220 -100 232c-94 25 -276 -148 -358 -339c-18 -51 -33 -112 -38 -160c-13 -158 44 -295 153 -316h-1c10 -1 20 -1 29 -1c327 0 536 489 641 772c65 167 236 742 241 823z" />
    <glyph glyph-name="N" unicode="N" horiz-adv-x="1830" 
d="M1333 1050c16 -24 26 -86 33 -131l3 -28h1c44 -245 54 -500 107 -751c113 280 191 568 320 855c65 135 164 265 294 275c46 -1 109 -16 161 -50c10 -22 8 -35 -21 -43c-27 13 -55 20 -80 20c-15 0 -31 -3 -47 -8c-71 -26 -130 -112 -173 -200
c-118 -238 -260 -751 -350 -921c-20 -40 -53 -79 -100 -79c-16 0 -32 3 -49 11c-8 5 -13 12 -14 18c-2 3 -6 10 -6 13c-67 219 -69 479 -106 731c-13 -45 -28 -93 -44 -139c-11 -34 -23 -70 -34 -106l-22 -68c-28 -96 -65 -208 -101 -303c-103 -277 -258 -558 -511 -689
c-65 -33 -145 -52 -220 -52c-48 0 -94 7 -136 20c-199 59 -295 234 -277 443c3 31 9 66 22 109v-1c53 204 217 385 414 404c191 11 263 -161 248 -334c-2 -18 -5 -42 -8 -60c-1 -3 -1 -10 -2 -12c-6 -33 -22 -94 -54 -82c-22 7 -16 25 -10 41l6 14v-1c5 18 9 47 13 85
c9 109 -16 229 -103 234c-93 23 -272 -144 -354 -322c-17 -45 -32 -103 -36 -147c-13 -146 51 -277 157 -301l-1 1h28c321 0 531 459 634 727c65 175 120 365 166 530l13 45c5 17 11 35 15 52c21 66 34 120 38 148c3 23 -1 42 -5 54c-4 13 -5 21 -5 23c2 19 24 26 50 25
c69 3 121 -12 146 -50z" />
    <glyph glyph-name="V" unicode="V" horiz-adv-x="1732" 
d="M963 1198l-7 5c189 -150 214 -398 192 -659c-3 -28 -4 -55 -8 -82c-10 -93 -26 -200 -42 -293l-8 -47c-9 -45 -18 -97 -24 -141c-15 -89 -36 -187 -58 -267c215 202 429 624 518 796c102 212 216 487 231 660c4 45 2 88 -5 117c-7 18 -17 59 -5 82c23 27 77 -27 90 -49
c25 -71 34 -160 26 -257c-25 -281 -220 -694 -419 -992c-112 -158 -258 -325 -374 -419c-82 -63 -177 -121 -269 -121c-18 0 -40 1 -50 3c-21 3 -41 13 -36 29c1 5 7 14 11 20v-1c13 13 28 34 35 57c41 116 127 518 156 848c9 109 11 204 9 268c-18 214 -108 436 -329 459
c-159 -19 -335 -216 -353 -419c-16 -193 93 -372 206 -362c118 2 218 176 248 288c0 5 -1 12 0 17c3 21 6 41 35 43c20 2 24 -16 22 -36c-1 -16 -4 -26 -7 -34v1c-2 -6 -2 -7 -2 -8l1 1c-3 -6 -3 -5 -3 -5c0 -3 -1 -4 -1 -6h1c-50 -177 -200 -360 -387 -360
c-22 0 -44 1 -58 5c-172 41 -253 195 -238 369c1 14 7 46 16 77c59 238 281 453 537 494c32 4 64 7 77 7c105 0 203 -30 272 -88z" />
    <glyph glyph-name="W" unicode="W" horiz-adv-x="1965" 
d="M1343 -230l-2 4c-10 72 -16 162 -24 251l-2 20c-7 97 -16 180 -27 254c-91 -165 -209 -387 -297 -554c-4 -7 -11 -19 -13 -25c-3 -4 -6 -12 -7 -14c-30 -60 -67 -122 -130 -156c-25 -13 -50 -19 -81 -19c-15 0 -40 3 -57 6c-22 2 -41 13 -37 29c2 5 7 13 12 19
c10 12 25 31 32 51c9 22 22 72 31 133l8 39c39 174 79 357 100 541h-1l2 25c1 10 3 20 3 30c23 254 -6 636 -295 671c-148 -13 -308 -194 -325 -382c-14 -175 86 -338 190 -329c107 2 200 160 226 265h-1c0 1 2 5 2 11c3 21 6 40 34 42c21 2 25 -15 23 -35
c-2 -19 -9 -40 -11 -47v1c-45 -163 -187 -332 -359 -332c-19 0 -38 1 -55 5c-160 37 -235 178 -221 338c1 13 6 41 14 72c57 222 257 420 500 454c30 5 56 7 70 7c95 0 188 -29 252 -81c165 -136 198 -361 177 -595c-2 -26 -5 -53 -9 -80c-9 -86 -26 -184 -41 -269l-8 -43
c-8 -43 -16 -87 -21 -129l-6 -30c-1 -9 -4 -22 -5 -31c-2 -15 0 -12 -5 -32c94 184 206 395 290 544c-3 10 -12 21 -18 27h1c-2 2 -5 6 -7 10c-3 14 8 20 25 30c19 9 33 14 49 16c10 3 18 2 26 -1c27 -5 46 -30 52 -57c28 -105 50 -314 62 -485l3 -29c32 96 65 209 100 328
l13 44l13 45v-1c38 135 76 270 113 382c75 231 206 592 454 592c56 0 115 -17 185 -58c4 -12 7 -21 6 -31c-1 -12 -9 -20 -31 -26c-34 15 -63 22 -93 22c-208 0 -311 -362 -366 -550l-39 -131l-26 -88c-69 -247 -169 -575 -235 -726c-20 -40 -57 -85 -99 -100
c-13 -4 -28 -5 -37 -5c-72 0 -74 79 -77 163z" />
    <glyph glyph-name="P" unicode="P" horiz-adv-x="1478" 
d="M488 460c12 17 25 46 31 80c18 15 32 24 49 -13c0 -30 -16 -66 -38 -104c-35 -52 -83 -85 -135 -105c-38 -13 -74 -19 -107 -19c-167 0 -257 160 -257 331c0 51 8 104 24 152c82 243 303 429 508 536c130 67 287 107 424 107c127 0 246 -29 339 -90
c148 -104 214 -274 214 -452c0 -299 -188 -615 -486 -655c-42 -5 -84 -9 -127 -9c-72 -280 -181 -534 -425 -534c-51 0 -108 10 -173 36c-23 23 -23 40 13 51c29 -9 56 -12 82 -12c164 0 242 170 285 336c59 227 97 533 113 752c0 20 -5 42 -9 53c-2 5 -4 10 -4 16
c1 19 19 27 39 28c120 5 143 -65 145 -138c2 -146 -19 -305 -51 -500c217 -1 353 253 353 502c0 238 -125 471 -425 471c-78 0 -171 -18 -275 -54c-213 -85 -392 -256 -432 -495c-5 -27 -7 -54 -7 -79c0 -135 64 -259 193 -259c10 0 19 0 30 2c42 6 81 27 109 65z" />
    <glyph glyph-name="R" unicode="R" horiz-adv-x="1478" 
d="M499 458l1 3c15 18 27 45 32 79c17 13 31 22 46 -14c0 -33 -13 -63 -33 -98c-37 -57 -85 -89 -139 -109c-37 -14 -72 -20 -107 -20c-168 0 -257 160 -257 329c0 47 9 102 27 152c84 242 307 431 505 538c132 67 291 107 425 107c125 0 243 -29 338 -92
c149 -102 214 -275 214 -451c0 -290 -200 -602 -486 -655h1c15 0 -17 -2 -26 -3h-2l66 -128c146 -286 311 -599 608 -599c46 0 53 1 63 2c0 0 1 2 4 3c6 2 13 2 18 -5c14 -17 -5 -37 -15 -40c-65 -14 -125 -21 -181 -21c-432 0 -594 410 -680 716
c-73 -252 -182 -468 -406 -468c-52 0 -111 11 -176 38c-20 21 -21 38 16 49c26 -7 51 -10 81 -10c164 0 243 169 286 334c60 233 97 534 113 752h-1c0 21 -4 44 -8 54l-6 17c0 15 18 23 40 24c119 6 142 -63 144 -136c2 -147 -20 -305 -52 -501c215 -5 351 248 351 499
c0 240 -124 474 -425 474c-74 0 -170 -18 -270 -52c-203 -88 -395 -265 -434 -495c-5 -26 -7 -54 -7 -80c0 -134 64 -258 194 -258h31c41 6 79 27 108 66z" />
    <glyph glyph-name="S" unicode="S" horiz-adv-x="1177" 
d="M88 41c9 0 12 -8 9 -22l-7 -14c-6 -11 -13 -23 -13 -42c0 -11 3 -28 10 -49c41 -153 185 -220 346 -220c73 0 154 15 221 38c100 41 267 133 267 238c0 17 -3 32 -7 43c-20 41 -73 69 -133 86c-56 13 -131 27 -188 37l-26 4c-217 36 -443 82 -513 283
c-11 39 -22 88 -22 129c0 73 20 168 57 271c89 245 297 458 521 495h-1c37 10 68 13 97 13c262 0 503 -279 503 -555c0 -17 -1 -39 -3 -58c-29 -183 -207 -325 -356 -325c-79 0 -152 48 -185 142c-6 19 -5 37 8 48c17 12 31 -9 42 -31c26 -64 72 -93 116 -93
c90 0 185 118 185 282h1c-11 228 -197 494 -399 495c-222 2 -319 -228 -325 -453c-1 -17 -2 -34 -2 -51c0 -78 11 -143 36 -200c56 -140 202 -197 328 -242l22 -8c41 -15 84 -31 118 -49c80 -38 154 -103 185 -198c10 -33 15 -66 15 -100c0 -177 -142 -335 -310 -409
c-63 -26 -136 -40 -209 -40c-247 0 -500 162 -485 380c5 51 37 175 97 175z" />
    <glyph glyph-name="Y" unicode="Y" horiz-adv-x="1602" 
d="M1224 -118c57 210 100 409 144 611c-129 -195 -236 -342 -313 -433c-102 -113 -181 -171 -249 -171c-24 0 -49 5 -75 16c-43 18 -55 65 -55 116c0 40 7 84 14 117l17 63c34 133 74 291 94 430c7 61 14 132 14 204c0 202 -54 425 -304 464h1c-150 13 -308 -133 -328 -299
v1c-14 -150 87 -303 190 -305c105 -11 198 117 226 201c0 4 2 8 2 12c2 17 7 34 35 34c20 0 24 -12 24 -27c0 -17 -3 -30 -6 -39c-2 -3 -3 -6 -3 -10c-46 -127 -170 -251 -333 -251c-28 0 -57 3 -87 11c-146 47 -223 163 -223 291c0 31 5 64 15 95c57 192 255 342 504 341
c124 1 249 -38 327 -100c133 -108 180 -261 180 -420c0 -62 -6 -128 -15 -189c-10 -77 -32 -168 -53 -252c-16 -65 -31 -130 -42 -191l-3 -14c-5 -26 -13 -66 -13 -95c0 -20 4 -35 13 -40c17 -5 52 19 92 63c115 122 298 390 387 545l-1 -1c12 69 21 129 21 169
c0 17 -6 32 -10 44c-2 6 -4 6 -4 15c0 17 19 23 41 24c114 4 149 -59 150 -117c-16 -321 -165 -873 -257 -1189c-79 -269 -206 -627 -384 -649c-11 -1 -23 -2 -34 -2c-80 0 -130 37 -160 95c-24 46 -32 93 -32 140c0 43 7 86 22 129c75 220 321 433 471 563zM981 -826
c72 146 155 419 208 598c-129 -118 -308 -296 -369 -462c-11 -37 -20 -75 -20 -108c0 -10 1 -22 4 -34c11 -66 37 -96 68 -96c34 -1 77 37 109 102z" />
    <glyph glyph-name="U" unicode="U" horiz-adv-x="1623" 
d="M1491 964c1 19 -3 34 -6 46c-2 6 -4 6 -3 16c2 18 22 25 44 26c118 4 148 -63 144 -123c-14 -148 -96 -416 -167 -651l-56 -184c-22 -73 -53 -176 -61 -273c-12 -138 22 -265 204 -265c13 0 30 2 45 3c33 -15 25 -30 -9 -50c-45 -8 -87 -11 -125 -11
c-264 0 -310 171 -294 354c7 82 29 173 50 245c22 96 51 193 86 308c-379 -510 -504 -653 -607 -653c-22 0 -47 7 -73 21c-34 20 -44 59 -40 107c3 39 20 97 31 134c6 22 14 43 20 65c48 150 103 318 139 477c15 68 29 150 36 233c20 220 -13 457 -249 502h1
c-145 14 -315 -147 -351 -328v1c-2 -12 -5 -25 -6 -36c-13 -153 66 -299 159 -301c103 -12 208 130 242 221c1 5 3 10 4 15c4 20 8 38 37 38c19 0 23 -13 21 -31c-1 -17 -8 -35 -12 -44c-3 -5 -3 -7 -3 -8c-54 -141 -195 -279 -352 -279c-28 0 -55 5 -83 14
c-135 50 -198 176 -186 313c3 38 9 73 24 110c74 212 284 377 529 376c118 1 237 -43 308 -111c116 -118 147 -282 132 -455c-6 -70 -19 -142 -36 -214c-46 -185 -89 -355 -148 -524c-12 -34 -17 -61 -18 -79c-2 -14 -2 -25 1 -29c45 -26 389 430 535 648
c41 141 86 307 93 376z" />
    <glyph glyph-name="X" unicode="X" horiz-adv-x="1480" 
d="M614 -382c-16 -12 -46 -29 -50 15c81 130 313 474 440 667l-12 89l-2 15c-8 66 -16 134 -29 204c-46 241 -152 653 -459 668c-22 1 -48 -1 -72 -4c-117 -31 -211 -166 -232 -310c-1 -11 -3 -24 -3 -36c-2 -35 2 -70 7 -107c39 -155 165 -287 268 -292c12 -1 25 -1 34 2
c96 22 146 142 160 245c3 22 4 50 4 68l-4 15c0 1 -1 2 0 4c-3 16 -3 31 20 37h-1c34 11 33 -51 33 -72c0 -24 -2 -48 -5 -67c-23 -164 -138 -333 -323 -338c-194 10 -333 169 -338 361l-1 -1c-2 19 -2 40 -1 61c1 15 2 29 4 44c25 196 166 373 378 442c65 21 137 32 201 29
c55 -2 111 -15 156 -35c231 -109 331 -370 378 -633c8 -41 14 -76 19 -116c141 209 290 425 387 559c24 8 48 4 41 -36c-91 -130 -252 -367 -417 -613l8 -54c13 -102 26 -203 43 -307c48 -241 113 -507 291 -516c40 -2 85 9 139 36c19 -1 27 -10 27 -23c0 -6 -7 -18 -13 -30
c-104 -60 -188 -82 -261 -79c-223 11 -319 278 -380 535c-12 49 -21 106 -29 156l-2 15c-113 -168 -338 -501 -404 -598z" />
    <glyph glyph-name="Z" unicode="Z" horiz-adv-x="1457" 
d="M1635 1133c80 -1 205 35 185 64c-22 31 -163 -57 -185 -64zM471 -92c36 40 67 90 65 136c0 59 -45 88 -95 88c-28 0 -59 -10 -80 -28c-55 -47 -78 -100 -78 -148c0 -82 66 -152 156 -152c31 0 66 7 100 25c40 20 74 44 110 73c-50 0 -96 -12 -130 -33c2 3 -12 -8 -17 -13
c-20 -16 -39 -35 -59 -11c-19 22 -2 36 15 51zM803 393l-1 -1c-15 -12 -26 10 -19 26h-1c49 124 128 157 215 157c24 0 47 -1 70 -5c80 166 167 330 279 456c-116 19 -249 59 -374 96c-171 53 -342 104 -479 104c-49 0 -96 -6 -137 -23c-111 -40 -161 -149 -161 -251
c0 -32 4 -63 14 -91c17 -56 64 -88 121 -87c61 4 116 121 133 192c2 2 2 7 4 12c2 17 5 40 26 37c28 -5 21 -40 14 -57c-19 -79 -63 -173 -129 -227c-39 -30 -82 -45 -120 -45c-75 0 -143 55 -163 129c-10 38 -15 73 -15 109c0 106 52 199 123 265c119 103 313 161 468 161
c28 0 55 -2 82 -5c129 -16 267 -56 398 -94c119 -36 243 -71 353 -87c82 55 168 92 251 92c24 0 45 -3 67 -9c34 -10 48 -37 34 -68c-43 -94 -188 -142 -309 -156c-109 -132 -207 -339 -270 -478l-6 -11c12 -1 27 -2 38 -2c34 0 72 10 101 25c22 16 21 -16 14 -32
c-28 -67 -78 -88 -141 -88c-17 0 -35 0 -53 3c-73 -158 -164 -326 -275 -464c87 -21 180 -62 266 -106c237 -128 448 -328 448 -507c0 -31 -6 -60 -15 -84c-11 -19 -67 -81 -92 -68c-20 11 -7 41 -2 53c3 10 5 21 5 31c0 186 -441 444 -533 490c-58 31 -121 57 -184 79
c-88 -79 -189 -133 -297 -146c-13 -2 -31 -2 -45 -2c-142 0 -321 72 -347 210c-3 12 -4 23 -4 35c0 74 49 154 106 206c45 39 103 57 154 57c105 0 196 -70 180 -191c-3 -23 -8 -42 -21 -63c51 25 109 36 176 35c110 133 192 301 275 471c-14 1 -31 2 -43 2
c-70 0 -132 -20 -179 -85z" />
    <glyph glyph-name="zero" unicode="0" horiz-adv-x="759" 
d="M462 1119c300 0 298 -276 278 -497c-20 -236 -160 -609 -450 -609c-262 0 -290 324 -272 524c19 216 181 582 444 582zM470 1058c-148 0 -245 -512 -255 -627c-8 -93 -29 -358 100 -358c138 0 249 349 273 621c18 213 -19 364 -118 364z" />
    <glyph glyph-name="one" unicode="1" horiz-adv-x="487" 
d="M360 368c-16 -70 -26 -128 -35 -215c-4 -52 2 -87 6 -108c1 -8 3 -14 2 -18c0 -9 -13 -12 -21 -12c-99 14 -128 142 -119 241c9 97 51 274 91 437c22 92 38 158 50 222c-42 -54 -84 -106 -112 -136c-38 -39 -91 -78 -129 -78c-17 0 -32 7 -43 22v-1c-2 1 -2 4 -2 7
c-3 5 -3 8 1 12v-1c-2 -3 8 5 15 11c12 8 34 26 56 47c43 45 76 83 109 125l122 175c5 13 18 16 33 15c49 -4 79 -27 94 -59c13 -33 16 -77 11 -124c-6 -73 -26 -154 -37 -196l-41 -169c-17 -67 -35 -132 -51 -197z" />
    <glyph glyph-name="two" unicode="2" horiz-adv-x="622" 
d="M43 15c-10 0 -22 -1 -30 -2c-26 -3 -49 -5 -53 27v-1c-3 18 1 31 9 52l20 32l3 3v-1c31 40 70 84 117 136c161 175 397 429 412 607c4 42 -3 84 -53 96c-123 12 -372 -163 -373 -319v1c10 -41 -19 -37 -35 -24c-27 26 -35 62 -31 102c8 89 75 197 131 254
c85 85 174 124 250 124c124 0 215 -104 199 -281c-3 -32 -9 -67 -19 -103c-59 -202 -226 -401 -337 -530l-31 -34l99 -9l77 -7c42 -1 73 -1 126 11c32 5 53 18 66 25c6 4 10 6 11 6l-1 -1c7 1 10 -5 9 -17c-3 -95 -82 -146 -140 -159c-26 -5 -59 -6 -94 -6
c-54 0 -119 4 -180 9c-54 4 -109 9 -152 9z" />
    <glyph glyph-name="three" unicode="3" horiz-adv-x="700" 
d="M37 242c17 -76 91 -122 179 -133c146 -18 280 109 290 270c10 178 -84 265 -241 229c-22 -5 -42 -4 -56 6c-28 20 -9 31 9 52c32 38 59 71 84 100c170 202 170 208 166 207c-68 -7 -138 -16 -211 -19c-43 -5 -147 -11 -184 36c-13 24 -21 54 -15 104c2 16 8 28 14 27
c8 -2 22 -16 44 -18c68 -16 355 27 458 7c52 -10 71 -44 71 -85c0 -129 -116 -231 -196 -338c109 -3 219 -110 229 -223c22 -272 -154 -447 -440 -447c-100 0 -265 86 -255 198c1 9 3 20 8 32c8 14 46 22 45 -5h1z" />
    <glyph glyph-name="four" unicode="4" horiz-adv-x="731" 
d="M561 358c-18 -72 -29 -132 -38 -222c-6 -76 11 -118 10 -130c-1 -7 -8 -8 -18 -7c-107 8 -131 140 -122 243c3 38 13 90 25 148c-38 1 -77 3 -115 5c-64 3 -134 7 -175 7c-10 0 -29 -2 -45 -3l1 1l-7 -2l-24 -5c-2 -1 -6 -1 -8 -1c-21 -3 -29 6 -33 16c2 19 11 43 23 58
h-1l13 6c210 144 491 531 497 624l12 -3l1 8c2 15 15 20 31 18c51 -4 81 -26 95 -58c36 -79 -8 -254 -25 -327l-66 -252c17 1 34 2 52 4c26 5 50 11 62 15c4 2 11 4 15 4c6 1 15 -4 16 -12c-2 -64 -86 -97 -152 -103v1c-3 0 -6 -2 -10 -2c-2 0 -5 -1 -7 -1
c-2 -10 -5 -20 -7 -30zM431 486c2 0 5 -1 7 -1c32 135 71 288 97 401c-84 -139 -197 -297 -291 -389h16c57 -3 115 -6 171 -11z" />
    <glyph glyph-name="five" unicode="5" horiz-adv-x="717" 
d="M-6 270c7 15 48 24 47 -6h1c16 -97 107 -150 203 -150c171 0 262 217 276 372c10 118 -25 220 -125 220c-52 0 -109 -32 -151 -83c-16 -13 -27 -27 -36 -38c-9 -12 -16 -22 -21 -27c-14 -13 -44 -19 -72 -19c-19 0 -37 2 -47 9h1c-26 16 -22 55 -18 105l1 10
c10 91 19 183 34 355c8 84 25 87 83 84c7 0 23 -1 33 -1c41 0 93 2 144 5c55 3 110 6 158 6c31 0 61 -1 82 -5c54 -11 119 -55 105 -143c-1 -13 -3 -19 -13 -18c-2 0 -6 1 -10 5c-9 6 -26 18 -54 22c-47 10 -78 10 -116 10l-42 -4c-53 -5 -108 -10 -164 -13
c-3 0 -6 -1 -9 -1c-11 -1 -25 -2 -38 -2c-6 -40 -11 -98 -18 -153c-5 -40 -8 -83 -13 -115c59 42 123 61 184 63c215 6 302 -150 287 -320c-17 -200 -176 -421 -438 -421c-104 0 -273 95 -262 218c1 10 3 22 8 35z" />
    <glyph glyph-name="six" unicode="6" horiz-adv-x="739" 
d="M652 1015v-1c-19 20 -40 29 -60 30c-193 12 -304 -313 -346 -463c69 64 159 80 221 80c181 0 238 -152 214 -306c-27 -181 -150 -324 -348 -344c-10 -1 -22 -1 -30 -1c-205 0 -291 180 -290 369c1 18 1 35 3 55c24 275 211 682 530 682c15 0 31 -1 45 -3
c46 -5 94 -24 99 -76c2 -14 -23 -43 -38 -22zM399 590c-109 -10 -196 -180 -196 -276c-1 -86 37 -220 146 -219c31 -1 59 10 84 29c136 108 146 479 -34 466z" />
    <glyph glyph-name="seven" unicode="7" horiz-adv-x="684" 
d="M320 697l74 6l16 28h-1c55 98 106 185 129 239c-36 1 -83 1 -127 1c-107 0 -223 0 -281 10c-64 12 -135 51 -111 128c3 9 7 18 13 16c4 0 9 -3 15 -7c11 -6 29 -16 57 -22c55 -9 94 -11 139 -12l242 3c12 1 28 1 40 1c64 0 140 -11 151 -92c8 -78 -62 -212 -103 -286
c22 -3 44 -8 55 -21c12 -12 19 -31 14 -60c-2 -11 -7 -19 -19 -17c-5 0 -7 1 -10 2c-5 2 -13 5 -19 6c-8 1 -18 1 -30 1c-13 0 -25 0 -42 -1c-54 -92 -103 -179 -151 -265c-35 -60 -69 -129 -96 -201c-17 -49 -24 -89 -26 -110c0 -9 -1 -15 -2 -18v1c-4 -12 -15 -11 -26 -6
c-58 24 -75 87 -69 154c3 40 13 81 27 117c31 76 94 196 162 317c-14 -1 -30 0 -43 0c-20 0 -38 0 -51 2c-46 8 -100 36 -89 96c3 9 7 18 13 12c4 -1 7 -2 11 -4c9 -4 22 -10 40 -14c27 -3 49 -5 68 -5c10 0 20 1 30 1z" />
    <glyph glyph-name="eight" unicode="8" horiz-adv-x="661" 
d="M440 1129c164 5 253 -102 246 -233c-7 -115 -81 -243 -206 -304c118 -28 165 -122 160 -229c-10 -176 -158 -369 -385 -377c-177 -6 -282 108 -274 253c6 120 89 261 232 318c-320 120 -62 594 227 572zM338 512c0 0 -1 -1 -2 -1c-92 -14 -152 -149 -159 -265
c-4 -90 42 -168 126 -169c133 11 216 145 222 253c4 98 -45 189 -156 185c-9 0 -20 -1 -31 -3zM422 1050c-188 -7 -230 -418 -70 -439c123 12 206 168 212 278c4 98 -51 165 -142 161z" />
    <glyph glyph-name="nine" unicode="9" horiz-adv-x="741" 
d="M85 111v1c19 -20 40 -29 60 -30c193 -12 304 313 346 463c-69 -64 -159 -80 -221 -80c-181 0 -238 152 -214 306c27 181 150 324 348 344c10 1 22 1 30 1c205 0 291 -180 290 -369c-1 -18 -1 -35 -3 -55c-24 -275 -211 -682 -530 -682c-15 0 -31 1 -45 3
c-46 5 -94 24 -99 76c-2 14 23 43 38 22zM338 536c109 10 196 180 196 276c1 86 -37 220 -146 219c-31 1 -59 -10 -84 -29c-136 -108 -146 -479 34 -466z" />
    <glyph glyph-name="oe" unicode="&#x153;" horiz-adv-x="1065" 
d="M1039 274c-71 -129 -171 -295 -357 -295c-120 0 -174 93 -187 207c-10 -2 -19 -4 -29 -4c-68 -103 -160 -175 -267 -175c-152 0 -199 180 -199 323c0 20 0 40 2 56c5 63 14 120 29 159c26 32 64 46 101 46c21 0 45 -6 63 -15c14 141 59 294 218 294
c130 0 184 -115 184 -262v-2c63 102 149 176 247 176c117 0 187 -110 181 -216c-17 -150 -197 -252 -332 -281c-5 -22 -8 -47 -11 -73c-1 -10 -1 -23 -1 -33c0 -58 16 -114 81 -119c102 3 182 138 233 223v-1c32 55 60 112 82 156c10 20 26 48 36 67c7 3 13 5 15 5
c12 0 19 -8 24 -19l-10 -22c-24 -49 -61 -122 -103 -195zM306 520c0 -113 21 -257 132 -278c52 84 89 202 98 307c2 18 2 35 2 52c0 115 -39 208 -128 208c-62 0 -90 -96 -100 -203c-2 -24 -4 -54 -4 -86zM962 634c-10 20 -23 29 -36 29c-78 0 -198 -238 -220 -324
c90 12 261 99 271 219c3 25 -2 50 -15 76zM397 186c-133 40 -188 134 -202 256c-4 -21 -6 -45 -8 -67c-2 -21 -3 -42 -3 -62c0 -99 23 -191 93 -191c45 0 83 22 120 64z" />
    <glyph glyph-name="ae" unicode="&#xe6;" horiz-adv-x="1007" 
d="M981 274c-71 -129 -171 -295 -357 -295c-137 0 -189 122 -190 258c-70 -120 -191 -237 -292 -237c-105 0 -139 79 -139 170c0 8 0 20 1 29c25 201 217 561 444 561c62 0 111 -35 141 -85c56 65 123 107 197 107c117 0 187 -110 181 -216c-17 -150 -197 -252 -332 -281
c-5 -22 -8 -47 -11 -73c-1 -10 -1 -23 -1 -33c0 -58 16 -114 81 -119c102 3 182 138 233 223v-1c32 55 60 112 82 156c10 20 26 48 36 67c7 3 13 5 15 5c12 0 19 -8 24 -19l-10 -22c-24 -49 -61 -122 -103 -195zM219 98c77 0 172 159 226 262c17 93 54 187 105 263
c-16 27 -39 45 -73 45c-141 0 -296 -363 -306 -480c-3 -38 1 -90 48 -90zM904 634c-10 20 -23 29 -36 29c-78 0 -198 -238 -220 -324c90 12 261 99 271 219c3 25 -2 50 -15 76z" />
    <glyph glyph-name="AE" unicode="&#xc6;" horiz-adv-x="2644" 
d="M378 871c117 0 195 -77 195 -179c0 -27 -5 -56 -17 -89c160 123 383 166 531 123c163 261 305 563 377 845v-1c3 8 10 17 18 19c8 11 22 16 41 16c120 0 148 -84 148 -177c0 -13 0 -35 -1 -50c-20 -183 -88 -467 -151 -733c106 2 208 62 297 182c23 17 36 5 40 -17
c-108 -163 -222 -208 -351 -220c-17 -94 -26 -205 -26 -312c0 -175 28 -347 111 -434c0 11 0 23 1 34c15 262 324 588 587 630c9 1 24 1 32 1c242 0 335 -240 333 -447c-6 -104 -54 -215 -139 -236c-78 -11 -180 36 -186 151c-65 -78 -194 -176 -324 -245
c16 -28 54 -43 85 -49c12 -2 29 -4 40 -4c20 0 37 2 55 5c2 0 3 1 5 1s3 1 5 1c25 3 48 5 67 1c21 -6 30 -19 28 -34c0 -16 -12 -33 -32 -43c-161 -80 -408 -393 -408 -623c0 -81 36 -156 116 -201c29 -14 62 -22 91 -22c147 0 302 162 385 276c99 141 214 332 346 571
c16 8 28 11 35 6c4 -3 6 -11 5 -20c-126 -239 -244 -433 -338 -574c-134 -193 -358 -391 -585 -391c-22 0 -45 2 -68 6c-206 36 -288 180 -288 345c0 221 146 485 342 595c-74 31 -124 83 -154 136c-248 27 -337 319 -337 621c0 86 8 181 22 267c-68 12 -129 28 -200 48
c-117 -182 -257 -357 -398 -480c-93 -80 -196 -155 -331 -155c-198 0 -380 156 -380 400c0 208 141 456 376 456zM1047 661l-2 5c-48 12 -91 16 -130 16c-160 0 -302 -83 -421 -218c-8 -5 -20 -10 -28 -10c-16 0 -31 9 -30 27c49 55 95 135 82 215c-21 57 -63 78 -95 81
c-100 4 -215 -168 -244 -339c-26 -140 37 -366 222 -366c41 0 81 12 126 33c155 83 346 295 520 556zM2276 86c-3 -16 -5 -29 -5 -42c-5 -89 48 -173 117 -165c36 15 62 71 63 142c3 143 -35 338 -164 338c-33 0 -76 -16 -123 -45c-157 -106 -327 -312 -335 -477
c-1 -8 -1 -21 0 -30c152 52 319 146 404 302c8 10 17 13 24 13c16 0 24 -20 19 -36zM1453 1300l-6 2c-72 -176 -176 -388 -301 -596c60 -18 115 -35 175 -48c60 269 105 487 132 642z" />
    <glyph glyph-name="OE" unicode="&#x152;" horiz-adv-x="2297" 
d="M1379 -503c-206 36 -288 180 -288 345c0 18 1 35 3 53c-141 -214 -329 -366 -542 -366c-230 0 -356 189 -391 420c-47 -35 -84 -76 -88 -110c-1 -3 1 -13 3 -20c1 -5 1 -13 1 -16c0 -7 -6 -14 -15 -14c-15 0 -39 30 -43 39c-3 16 -6 41 -6 55c8 62 60 129 136 183
c-3 27 -3 52 -3 81c0 57 3 111 8 163c11 128 33 246 59 327v-1c45 58 117 86 186 86c57 0 114 -21 155 -56l1 -5c-1 -9 -2 -18 -5 -29c-20 -95 -54 -264 -69 -431c24 2 50 6 75 8h13c4 0 6 0 10 1c-9 83 -20 208 -20 350c0 54 1 114 7 171c29 286 136 581 434 581
c187 0 297 -124 343 -307c115 178 312 334 488 362c9 1 24 1 32 1c242 0 335 -240 333 -447c-6 -104 -54 -215 -139 -236c-78 -11 -180 36 -186 151c-65 -78 -194 -176 -324 -245c16 -28 54 -43 85 -49c12 -2 29 -4 40 -4c20 0 37 2 55 5c2 0 3 1 5 1s3 1 5 1
c25 3 48 5 67 1c21 -6 30 -19 28 -34c0 -16 -12 -33 -32 -43c-161 -80 -408 -393 -408 -623c0 -81 36 -156 116 -201c29 -14 62 -22 91 -22c147 0 302 162 385 276c99 141 214 332 346 571c16 8 28 11 35 6c4 -3 6 -11 5 -20c-126 -239 -244 -433 -338 -574
c-134 -193 -358 -391 -585 -391c-22 0 -45 2 -68 6zM712 116c-42 10 -78 13 -106 13c-49 0 -89 -11 -129 -23c-2 -206 47 -389 233 -389c282 0 513 438 576 845c-5 7 -9 14 -12 21c-141 14 -254 112 -284 275c-4 20 -6 47 -6 72c0 10 0 25 1 35c7 101 40 217 106 262
c-28 10 -59 16 -93 16c-150 0 -218 -225 -241 -461c-6 -63 -9 -133 -9 -195c0 -130 14 -284 28 -377l11 -61c4 -14 7 -26 6 -34s-7 -12 -14 -12c-9 0 -24 3 -42 8c-4 0 -9 1 -13 2zM1929 945c-3 -16 -5 -29 -5 -42c-5 -89 48 -173 117 -165c36 15 62 71 63 142
c3 143 -35 338 -164 338c-33 0 -76 -16 -123 -45c-157 -106 -327 -312 -335 -477c-1 -8 -1 -21 0 -30c152 52 319 146 404 302c8 10 17 13 24 13c16 0 24 -20 19 -36zM1291 912c-18 122 -62 222 -135 279h-15c-4 0 -7 0 -9 -1c-48 -19 -74 -104 -78 -186
c-2 -24 -1 -55 3 -79c23 -108 94 -224 188 -246c-1 17 -2 39 -1 58c3 56 20 116 47 175zM1337 499c-12 -59 -27 -117 -45 -176c42 46 90 85 141 114c-38 16 -70 37 -96 62z" />
    <glyph glyph-name="r.alt" unicode="&#xe006;" horiz-adv-x="355" 
d="M225 -479c-140 0 -254 91 -258 280c-95 28 -204 42 -323 42c-99 0 -208 -9 -322 -26c-317 -47 -624 -176 -735 -417c-1 -3 -4 -8 -5 -12c-7 -18 -17 -48 -41 -50c-26 1 -44 36 -55 73c-7 22 -10 45 -10 68c0 110 78 219 167 292c154 114 412 175 652 198
c63 6 130 8 190 8c183 0 355 -26 496 -91c43 245 116 426 173 568c11 28 20 55 32 83c-12 0 -22 0 -31 1c-10 0 -28 1 -38 2l-68 -141c-28 6 -35 7 -43 11c23 46 47 90 69 136c-98 5 -132 86 -125 169c8 91 75 192 175 192c56 0 82 -37 78 -103c-7 -67 -38 -152 -52 -190
c-2 -4 -2 -6 -4 -11c15 -3 36 -4 54 -4c11 0 22 1 34 1c11 0 22 1 31 1c24 0 44 -2 60 -8c18 -8 25 -25 25 -52c0 -64 -47 -176 -74 -241c-5 -12 -13 -28 -17 -40c-51 -145 -110 -310 -136 -443c31 -23 54 -42 78 -69c0 84 45 140 105 162c25 9 50 14 73 14
c96 0 157 -77 157 -164c0 -91 -86 -197 -249 -234c-20 -3 -43 -5 -63 -5zM218 -361v1c-9 28 -36 67 -99 104c7 -79 45 -169 135 -157c114 14 172 110 172 184c0 45 -21 81 -67 81c-8 0 -20 -1 -32 -5c-46 -14 -86 -68 -86 -133c0 -20 4 -40 13 -62l-1 1c8 -15 2 -20 -11 -28
c-13 -5 -20 3 -24 14zM68 660c-3 -25 5 -43 30 -49c11 24 50 116 55 167c1 14 -1 21 -4 21c-21 0 -76 -82 -81 -139z" />
    <glyph glyph-name="exclam" unicode="!" horiz-adv-x="228" 
d="M33 515c68 309 89 409 95 439c11 35 21 76 19 115c3 19 -7 34 -6 38c-2 9 9 13 20 10c41 -8 67 -9 79 -31c33 -42 10 -145 2 -183c-73 -300 -95 -411 -103 -445c-13 -40 -24 -86 -24 -131c-3 -21 6 -39 7 -43c0 -10 -11 -15 -21 -12c-39 9 -69 18 -80 44
c-30 47 3 156 12 199zM69 150c13 -25 16 -47 12 -65c-8 -43 -50 -67 -85 -67c-31 0 -56 20 -46 77c8 42 38 88 73 88c16 0 32 -9 46 -33z" />
    <glyph glyph-name="quotedbl" unicode="&#x22;" horiz-adv-x="425" 
d="M213 1086c-67 -66 -124 -140 -123 -184v0c2 -17 -4 -30 -10 -34c-11 -7 -26 2 -43 35v0c-30 69 30 198 70 239c28 32 72 22 95 -1c29 -25 32 -41 11 -55zM404 1086c-67 -66 -124 -140 -123 -184v0c2 -17 -4 -30 -10 -34c-11 -7 -26 2 -43 35v0c-30 69 30 198 70 239
c28 32 72 22 95 -1c29 -25 32 -41 11 -55z" />
    <glyph glyph-name="numbersign" unicode="#" horiz-adv-x="745" 
d="M316 162c1 -28 14 -45 13 -53c2 -12 -9 -19 -23 -19c-47 -1 -74 13 -93 36c-41 52 -26 188 -19 245l1 8c-43 1 -88 5 -136 -1c-20 -4 -40 -10 -45 -12c-14 -1 -14 5 -14 13c3 31 21 53 43 66c38 21 108 25 163 25l8 60c-45 1 -91 5 -141 -1c-21 -4 -41 -10 -45 -12
c-14 -1 -15 5 -15 13c3 31 21 53 44 66c38 22 113 25 169 25c1 13 2 26 4 39c7 54 15 115 12 172c0 28 -12 46 -13 53c0 12 9 19 24 19c47 1 76 -12 92 -36c43 -51 27 -190 21 -246v-3c37 -2 74 -4 111 -5c1 12 2 25 4 38c7 54 15 115 12 172c0 28 -12 46 -13 53
c0 12 10 19 25 19c46 1 76 -12 92 -36c42 -51 26 -190 20 -246v-2c19 0 25 0 57 1c23 2 41 11 47 10c14 4 17 -3 16 -12c-7 -31 -22 -50 -43 -65c-22 -12 -55 -19 -88 -22l-9 -63c20 0 28 0 64 1c23 2 41 11 47 10c14 4 16 -3 16 -12c-7 -31 -22 -50 -43 -65
c-24 -13 -60 -19 -96 -23c-1 -15 -4 -31 -5 -46c-3 -25 -5 -51 -13 -172c1 -28 14 -45 13 -53c2 -12 -8 -19 -22 -19c-48 -1 -74 13 -93 36c-42 52 -27 188 -20 245l1 7c-39 0 -76 2 -113 4c-1 -14 -3 -27 -4 -40c-4 -25 -5 -51 -13 -172zM465 521c-38 0 -75 2 -112 3
l-8 -56c39 -2 76 -4 113 -5c3 19 5 39 7 58z" />
    <glyph glyph-name="dollar" unicode="$" horiz-adv-x="679" 
d="M243 326l15 124c-94 15 -178 47 -210 132c-8 23 -13 54 -10 87s13 71 27 110c45 111 151 215 257 242v14c1 18 -3 33 -6 40v-2c-2 1 -3 8 -2 11c1 15 15 29 33 23h-1l11 -4c31 -7 52 -14 65 -40v1c6 -11 11 -24 14 -39c128 -27 234 -167 217 -297
c-14 -96 -113 -170 -193 -170c-22 0 -40 3 -58 17l-8 -56c17 -6 31 -12 46 -19c42 -20 81 -53 100 -102c6 -18 8 -43 6 -64c-7 -84 -81 -158 -162 -192c-9 -4 -26 -11 -38 -13c-1 -12 -1 -24 0 -37c0 -2 1 -4 0 -6c0 -16 3 -32 5 -42c-3 6 -7 -11 -7 -11l10 1
c2 -24 -14 -35 -33 -28c-32 11 -69 29 -77 61l1 -1c-9 17 -14 36 -16 57c-116 15 -223 89 -212 192c2 23 20 90 58 90c7 0 15 -9 12 -19l-2 -1c-6 -9 -9 -25 -3 -46c21 -62 80 -95 151 -100c2 20 4 39 7 57c2 13 3 21 3 30zM202 640c14 -35 40 -58 69 -75l22 185
c9 75 15 121 18 138c4 25 8 50 10 76l1 4c-93 -12 -134 -110 -138 -207c-2 -51 4 -90 18 -121zM539 735c-4 70 -40 147 -95 193c-1 -19 -2 -38 -4 -54c-1 -11 -3 -22 -3 -31l-2 -20c-11 -73 -19 -134 -26 -190c13 -17 30 -26 45 -26c43 0 89 53 85 128zM427 420
c-16 4 -27 6 -44 9c-4 -42 -11 -83 -15 -124c-1 -9 -3 -16 -3 -23c-3 -12 -3 -21 -4 -27l2 1c54 19 144 71 127 127h1c-7 17 -33 28 -64 37z" />
    <glyph glyph-name="percent" unicode="%" horiz-adv-x="814" 
d="M219 997c133 0 133 -92 127 -165c-7 -77 -62 -198 -187 -198c-116 0 -131 105 -125 172c6 70 73 191 185 191zM222 957c-53 0 -86 -151 -89 -183c-3 -28 -7 -103 37 -103c50 0 88 103 95 184c5 60 -8 102 -43 102zM637 502c133 0 133 -92 127 -165
c-7 -77 -63 -198 -188 -198c-116 0 -131 105 -125 172c6 70 74 191 186 191zM640 462c-53 0 -87 -151 -89 -183c-3 -28 -7 -103 37 -103c50 0 88 103 95 184c5 60 -8 102 -43 102zM177 57c-11 -26 -11 -50 -16 -56c-3 -13 -13 -13 -21 -4c-32 28 -43 58 -44 91
c-3 75 66 189 96 237c52 89 325 541 371 619c30 45 61 96 84 150c12 26 13 50 16 56c4 13 14 13 23 4c31 -28 44 -58 43 -92c5 -73 -66 -189 -95 -238c-53 -88 -324 -536 -374 -616c-13 -22 -24 -45 -83 -151z" />
    <glyph glyph-name="quotesingle" unicode="'" horiz-adv-x="249" 
d="M213 1086c-67 -66 -124 -140 -123 -184v0c2 -17 -4 -30 -10 -34c-11 -7 -26 2 -43 35v0c-30 69 30 198 70 239c28 32 72 22 95 -1c29 -25 32 -41 11 -55z" />
    <glyph glyph-name="parenleft" unicode="(" horiz-adv-x="327" 
d="M571 1121c21 -13 9 -46 -22 -40c-136 29 -256 -153 -333 -381c-34 -97 -187 -622 -26 -707c8 -8 36 -18 30 -35c-11 -19 -76 -18 -89 -10c-188 77 -188 394 -90 680c104 300 316 571 531 494z" />
    <glyph glyph-name="parenright" unicode=")" horiz-adv-x="327" 
d="M11 1141l-1 1c236 17 321 -293 291 -603c-28 -295 -164 -594 -374 -618c-16 -5 -77 11 -79 32c2 17 31 20 44 25c186 38 265 574 274 674c24 234 -10 437 -152 445c-31 3 -28 37 -3 44z" />
    <glyph glyph-name="asterisk" unicode="*" horiz-adv-x="480" 
d="M383 412c10 -13 21 -18 23 -22c8 -7 4 -13 -1 -18c-20 -17 -37 -20 -54 -18c-37 14 -81 88 -98 120l-11 16c-19 -17 -38 -34 -55 -52c-12 -11 -23 -25 -79 -84c-12 -16 -14 -34 -18 -38c-4 -7 -12 -3 -16 5c-21 31 -25 56 -23 81c8 56 71 119 98 145l6 6c-3 0 -6 0 -9 1
c-29 2 -57 8 -92 5c-11 0 -24 -3 -27 -5c-8 0 -9 3 -9 10c5 20 17 34 32 42c29 14 90 11 122 8l-10 19c-18 31 -34 65 -59 95c-10 10 -21 18 -24 20c-5 8 -3 11 2 17c19 19 38 22 55 17c37 -13 79 -86 98 -117c4 -8 9 -16 15 -24l40 39c25 25 56 52 79 85c12 14 16 32 18 37
c5 7 12 3 17 -6c21 -30 26 -56 22 -80c-4 -42 -44 -89 -73 -121c12 -2 32 -3 70 -4c14 0 26 5 29 5c9 0 9 -5 9 -10c-6 -20 -15 -32 -31 -42c-29 -16 -89 -11 -122 -8l18 -30c8 -15 16 -28 58 -94z" />
    <glyph glyph-name="plus" unicode="+" horiz-adv-x="632" 
d="M565 525c20 2 34 10 39 9c12 4 14 -3 13 -11c-5 -29 -18 -47 -36 -62c-46 -27 -141 -24 -182 -23h-15l-13 -98c-3 -20 -3 -41 -10 -137c2 -22 14 -36 14 -42c2 -10 -9 -15 -22 -15c-46 -1 -72 10 -90 28c-41 42 -28 150 -22 195l9 74l-59 3c-41 0 -81 6 -127 -1
c-17 -3 -33 -9 -38 -11c-11 -1 -11 5 -12 12c4 30 19 50 38 63c43 27 140 24 180 23h30l9 67c6 43 13 92 9 137c-1 22 -12 37 -14 42c0 10 10 15 24 15c45 1 73 -9 89 -28c42 -41 28 -151 23 -196l-6 -43c15 -1 29 -1 43 -1c19 -1 37 -1 126 0z" />
    <glyph glyph-name="comma" unicode="," horiz-adv-x="253" 
d="M115 163c33 27 114 -14 90 -83c-25 -64 -122 -196 -205 -204c-26 -2 -52 7 -72 36c-7 10 6 8 23 8c68 0 113 84 138 150c10 28 10 81 26 93z" />
    <glyph glyph-name="hyphen" unicode="-" horiz-adv-x="487" 
d="M425 549c16 3 27 12 31 12c7 2 9 -5 8 -14c-2 -33 -10 -53 -25 -67c-31 -32 -104 -29 -135 -28c-55 2 -106 5 -155 7c-30 1 -63 4 -94 -2c-15 -2 -27 -11 -30 -12c-7 -1 -9 6 -8 15c2 33 10 54 25 67c30 32 104 29 135 28c55 -2 105 -5 155 -7c14 -1 28 0 93 1z" />
    <glyph glyph-name="period" unicode="." horiz-adv-x="213" 
d="M147 150c15 -25 20 -47 18 -65c-4 -43 -44 -67 -80 -67c-31 0 -59 20 -54 77c4 42 31 88 67 88c16 0 33 -9 49 -33z" />
    <glyph glyph-name="slash" unicode="/" horiz-adv-x="601" 
d="M63 57c-11 -26 -11 -50 -16 -56c-3 -13 -13 -13 -21 -4c-31 28 -42 58 -43 91c-3 75 65 189 95 237c52 89 325 541 371 619c30 45 61 96 84 150c12 26 13 50 16 56c4 13 14 13 23 4c31 -28 44 -58 43 -92c5 -73 -66 -189 -95 -238c-53 -88 -324 -536 -374 -616
c-13 -22 -24 -45 -83 -151z" />
    <glyph glyph-name="colon" unicode=":" horiz-adv-x="327" 
d="M246 338c15 -25 20 -47 18 -65c-3 -43 -44 -67 -80 -67c-31 0 -59 20 -54 77c4 42 31 88 67 88c16 0 33 -9 49 -33zM280 609c14 -25 20 -47 18 -65c-4 -43 -44 -67 -80 -67c-31 0 -59 20 -54 77c4 42 31 88 67 88c16 0 33 -9 49 -33z" />
    <glyph glyph-name="semicolon" unicode=";" horiz-adv-x="327" 
d="M285 609c15 -25 20 -47 19 -65c-4 -43 -44 -67 -80 -67c-31 0 -59 20 -54 77c3 42 30 88 66 88c16 0 33 -9 49 -33zM184 365c33 27 114 -14 90 -83c-25 -64 -122 -196 -206 -204c-26 -2 -51 7 -71 36c-7 10 5 8 22 8c69 0 114 84 139 150c10 28 10 81 26 93z" />
    <glyph glyph-name="less" unicode="&#x3c;" horiz-adv-x="497" 
d="M392 170c8 -17 12 -55 -2 -64c-5 -3 -67 44 -77 50c-38 17 -215 114 -276 167c-20 8 -29 42 -27 60c2 1 2 3 3 4c0 7 3 13 7 16c52 82 298 303 346 346c15 13 83 97 94 97c27 0 44 -40 40 -62c-16 -88 -315 -323 -402 -417c95 -55 265 -141 294 -197z" />
    <glyph glyph-name="equal" unicode="=" horiz-adv-x="546" 
d="M454 708c16 3 26 12 30 12c9 2 10 -5 9 -14c-2 -33 -10 -53 -25 -67c-31 -32 -104 -29 -135 -28c-54 2 -106 5 -155 7c-30 1 -63 5 -94 -2c-15 -2 -26 -11 -30 -12c-7 -1 -9 6 -8 15c2 33 10 54 25 67c31 32 104 29 135 28c55 -2 106 -5 155 -7c14 -1 28 0 93 1zM438 503
c15 3 26 12 30 12c7 2 9 -5 8 -14c-2 -33 -10 -53 -25 -67c-31 -32 -104 -29 -135 -28c-55 2 -106 5 -155 7c-30 1 -63 4 -94 -2c-15 -2 -26 -11 -30 -12c-7 -1 -9 6 -8 15c2 33 10 54 25 67c30 32 104 29 135 28c55 -2 105 -5 155 -7c14 -1 28 0 94 1z" />
    <glyph glyph-name="greater" unicode="&#x3e;" horiz-adv-x="497" 
d="M-9 170c48 56 246 142 361 197c-55 94 -270 329 -254 417c4 22 33 62 60 62c11 0 51 -84 62 -97c32 -43 198 -264 222 -346c4 -3 3 -9 3 -16c1 -1 1 -3 -1 -4c-2 -18 -23 -52 -47 -60c-77 -53 -290 -150 -332 -167c-14 -6 -91 -53 -96 -50c-9 9 6 47 22 64z" />
    <glyph glyph-name="question" unicode="?" horiz-adv-x="597" 
d="M353 452l-54 -75h-3l-78 -112c-9 -21 -10 -39 -13 -44c-2 -11 -15 -12 -24 -5c-38 18 -53 42 -56 67c-5 41 28 101 60 145l6 13l1 3v-1c21 29 46 62 79 102h1c19 29 44 60 71 95l3 -1c55 71 140 167 148 258c1 16 0 31 -3 42c-5 28 -23 38 -46 42
c-109 10 -332 -143 -331 -280v1c8 -36 -18 -32 -32 -21c-24 23 -31 54 -28 89c6 79 66 174 116 223c77 75 156 109 224 109c111 0 192 -91 178 -246c-4 -44 -18 -88 -77 -193c-30 -45 -75 -112 -142 -211zM204 134c15 -25 20 -47 18 -65c-4 -43 -44 -67 -80 -67
c-31 0 -59 20 -54 77c4 42 31 88 67 88c16 0 33 -9 49 -33z" />
    <glyph glyph-name="at" unicode="@" horiz-adv-x="897" 
d="M810 534l41 1c-43 -87 -109 -216 -165 -263c-21 -17 -48 -28 -74 -28c-57 0 -72 82 -65 161l1 3c-52 -84 -124 -167 -200 -167c-83 0 -104 70 -97 144c12 143 150 405 312 405c83 0 130 -89 123 -169c-1 -15 -3 -26 -8 -39l-1 -1c-2 -3 -14 -8 -18 -8c-5 0 -12 3 -17 11
c5 11 6 19 7 28c4 50 -15 109 -66 109c-98 0 -205 -261 -212 -343c-2 -28 0 -63 33 -63c57 0 131 140 167 210v-1c11 35 26 44 62 44c28 0 49 -10 47 -36l-14 -55c-10 -39 -21 -79 -25 -120c-3 -32 3 -51 13 -53c42 15 111 143 156 230zM853 541h-42
c119 319 -222 457 -471 297c-167 -109 -241 -353 -227 -529c1 -193 207 -295 353 -128c4 8 13 9 10 -4c-24 -72 -89 -127 -161 -142c-167 -34 -298 107 -312 246c-24 220 128 475 312 590c272 169 641 43 538 -330z" />
    <glyph glyph-name="bracketleft" unicode="[" horiz-adv-x="362" 
d="M592 1188c22 -4 49 -8 75 -2c13 0 21 8 25 9c6 3 8 -4 4 -15c-9 -33 -12 -52 -28 -65c-28 -31 -96 -25 -120 -23c-122 13 -209 23 -252 26c-4 -74 -32 -168 -32 -202c-127 -605 -128 -756 -173 -970c192 -16 253 -20 273 -21c22 -4 49 -8 74 -2c13 0 21 8 25 9
c6 2 10 -4 4 -15c-8 -33 -12 -52 -27 -65c-29 -31 -95 -25 -120 -24c-142 17 -191 21 -230 24c-3 -3 -11 -5 -18 -1l-13 4l-23 2c-143 20 32 876 117 1199c63 257 304 124 439 132z" />
    <glyph glyph-name="backslash" unicode="\" horiz-adv-x="601" 
d="M444 57c-41 106 -48 129 -57 151c-36 80 -227 528 -266 616c-19 49 -70 165 -53 238c5 34 24 64 59 92c11 9 21 9 23 -4c1 -6 -2 -30 6 -56c13 -54 36 -105 58 -150c32 -78 225 -530 263 -619c20 -48 69 -162 54 -237c-7 -33 -24 -63 -60 -91c-10 -9 -20 -9 -21 4
c-3 6 1 30 -6 56z" />
    <glyph glyph-name="bracketright" unicode="]" horiz-adv-x="311" 
d="M-245 -146c-22 4 -49 8 -75 2c-13 0 -21 -8 -25 -9c-6 -3 -8 4 -4 15c9 33 12 52 28 65c28 31 96 25 120 23c122 -13 208 -23 251 -26c4 74 32 168 32 202c127 605 128 756 173 970c-192 16 -253 20 -272 21c-22 4 -49 8 -74 2c-13 0 -21 -8 -25 -9c-6 -2 -10 4 -4 15
c8 33 12 52 27 65c29 31 94 25 119 24c142 -17 191 -21 230 -24c3 3 11 5 18 1l13 -4l23 -2c144 -20 -32 -876 -117 -1199c-63 -257 -303 -124 -438 -132z" />
    <glyph glyph-name="asciicircum" unicode="^" horiz-adv-x="570" 
d="M470 884h1c-34 17 -82 95 -119 156l-17 29c-18 -17 -42 -45 -70 -74c-66 -71 -145 -159 -188 -164c-15 -1 -45 12 -45 31c-1 7 23 26 41 42c10 9 17 17 20 20l10 10v-1c41 43 155 166 203 196c3 5 9 6 18 7c13 2 37 -6 44 -20c38 -44 106 -154 118 -176
c1 -3 7 -12 14 -21c11 -15 22 -28 19 -34c-7 -12 -37 -10 -49 -1z" />
    <glyph glyph-name="underscore" unicode="_" horiz-adv-x="762" 
d="M701 118c25 3 43 13 49 13c12 2 16 -6 16 -16c-2 -36 -15 -57 -39 -73c-52 -35 -173 -31 -226 -30c-92 2 -178 5 -262 7c-51 1 -105 5 -157 -2c-25 -2 -45 -12 -50 -13c-11 -1 -15 7 -15 16c1 36 15 59 38 74c51 34 174 31 227 30c92 -2 176 -5 262 -8c24 -1 47 0 157 2z
" />
    <glyph glyph-name="grave" unicode="`" horiz-adv-x="297" 
d="M123 1102c17 -62 42 -203 123 -243c14 -7 30 2 21 -8c-26 -29 -52 -38 -78 -36c-82 8 -157 140 -170 204c-12 69 75 110 104 83z" />
    <glyph glyph-name="braceleft" unicode="{" horiz-adv-x="320" 
d="M158 516c49 -58 28 -199 6 -335c-24 -143 -49 -284 7 -315c23 -12 50 -18 88 -16c31 3 24 -41 -1 -48l1 -1c-44 -5 -84 -3 -115 6c-158 46 -141 208 -113 417c9 62 18 127 23 196c3 25 6 42 1 62c-4 19 -7 30 -17 38c-5 4 -7 9 -7 12c-3 4 0 8 9 10c11 5 15 5 23 14
c6 5 13 13 18 23c44 103 59 267 106 405c40 124 105 224 232 234c34 2 72 -6 114 -21l-2 -1c22 -13 11 -56 -17 -47c-35 12 -67 15 -90 5c-70 -29 -104 -119 -128 -223c-40 -169 -50 -374 -138 -415z" />
    <glyph glyph-name="bar" unicode="|" horiz-adv-x="212" 
d="M21 323c48 407 63 539 68 578c8 47 15 100 13 152c1 25 -8 45 -9 50c-1 12 8 17 19 13c38 -10 62 -12 75 -41c33 -55 16 -191 11 -241c-53 -395 -70 -541 -76 -586c-8 -53 -17 -114 -15 -173c-1 -28 7 -51 7 -57c1 -13 -8 -19 -18 -15c-36 12 -65 24 -76 57
c-30 62 -5 206 1 263z" />
    <glyph glyph-name="braceright" unicode="}" horiz-adv-x="493" 
d="M342 485c-71 55 -7 255 15 426c13 105 11 198 -45 239c-19 14 -51 17 -89 12c-30 -3 -26 40 0 49l-1 1c46 7 85 7 117 -1c119 -33 147 -142 142 -269c-5 -142 -48 -303 -42 -411c2 -10 5 -19 9 -25c4 -11 8 -11 17 -18c8 -4 10 -8 6 -12c-2 -2 -5 -7 -11 -10
c-13 -6 -19 -16 -31 -33c-12 -19 -14 -36 -20 -61c-20 -67 -35 -132 -47 -193c-48 -207 -88 -367 -259 -382c-33 -3 -72 2 -111 15l1 1c-22 11 -13 55 15 46c36 -9 64 -8 90 0c66 19 91 160 119 303c27 135 56 275 125 323z" />
    <glyph glyph-name="asciitilde" unicode="~" horiz-adv-x="503" 
d="M25 1060c-2 16 0 44 10 28c110 -123 442 141 443 -134c-2 -16 -7 -44 -15 -26c-115 157 -405 -112 -438 132z" />
    <glyph glyph-name="quotesinglbase" unicode="&#x201a;" horiz-adv-x="253" 
d="M115 163c33 27 114 -14 90 -83c-25 -64 -122 -196 -205 -204c-26 -2 -52 7 -72 36c-7 10 6 8 23 8c68 0 113 84 138 150c10 28 10 81 26 93z" />
    <glyph glyph-name="quotedblbase" unicode="&#x201e;" horiz-adv-x="467" 
d="M115 163c33 27 114 -14 90 -83c-25 -64 -122 -196 -205 -204c-26 -2 -52 7 -72 36c-7 10 6 8 23 8c68 0 113 84 138 150c10 28 10 81 26 93zM314 163c33 27 114 -14 90 -83c-25 -64 -122 -196 -206 -204c-26 -2 -52 7 -72 36c-7 10 6 8 23 8c69 0 114 84 139 150
c10 28 10 81 26 93z" />
    <glyph glyph-name="ellipsis" unicode="&#x2026;" horiz-adv-x="639" 
d="M147 150c15 -25 20 -47 18 -65c-4 -43 -44 -67 -80 -67c-31 0 -59 20 -54 77c4 42 31 88 67 88c16 0 33 -9 49 -33zM360 150c15 -25 20 -47 18 -65c-4 -43 -44 -67 -80 -67c-31 0 -59 20 -54 77c4 42 31 88 67 88c16 0 33 -9 49 -33zM573 150c15 -25 20 -47 18 -65
c-4 -43 -44 -67 -80 -67c-31 0 -59 20 -54 77c4 42 31 88 67 88c16 0 33 -9 49 -33z" />
    <glyph glyph-name="circumflex" unicode="&#x2c6;" horiz-adv-x="570" 
d="M470 884h1c-34 17 -82 95 -119 156l-17 29c-18 -17 -42 -45 -70 -74c-66 -71 -145 -159 -188 -164c-15 -1 -45 12 -45 31c-1 7 23 26 41 42c10 9 17 17 20 20l10 10v-1c41 43 155 166 203 196c3 5 9 6 18 7c13 2 37 -6 44 -20c38 -44 106 -154 118 -176
c1 -3 7 -12 14 -21c11 -15 22 -28 19 -34c-7 -12 -37 -10 -49 -1z" />
    <glyph glyph-name="perthousand" unicode="&#x2030;" horiz-adv-x="1151" 
d="M219 997c133 0 133 -92 127 -165c-7 -77 -62 -198 -187 -198c-116 0 -131 105 -125 172c6 70 73 191 185 191zM222 957c-53 0 -86 -151 -89 -183c-3 -28 -7 -103 37 -103c50 0 88 103 95 184c5 60 -8 102 -43 102zM637 502c133 0 133 -92 127 -165
c-7 -77 -63 -198 -188 -198c-116 0 -131 105 -125 172c6 70 74 191 186 191zM640 462c-53 0 -87 -151 -89 -183c-3 -28 -7 -103 37 -103c50 0 88 103 95 184c5 60 -8 102 -43 102zM979 502c133 0 133 -92 127 -165c-7 -77 -63 -198 -188 -198c-116 0 -131 105 -125 172
c6 70 74 191 186 191zM982 462c-53 0 -87 -151 -89 -183c-3 -28 -7 -103 37 -103c50 0 88 103 95 184c5 60 -8 102 -43 102zM177 57c-11 -26 -11 -50 -16 -56c-3 -13 -13 -13 -21 -4c-32 28 -43 58 -44 91c-3 75 66 189 96 237c52 89 325 541 371 619c30 45 61 96 84 150
c12 26 13 50 16 56c4 13 14 13 23 4c31 -28 44 -58 43 -92c5 -73 -66 -189 -95 -238c-53 -88 -324 -536 -374 -616c-13 -22 -24 -45 -83 -151z" />
    <glyph glyph-name="guilsinglleft" unicode="&#x2039;" horiz-adv-x="497" 
d="M446 170c12 -17 22 -55 10 -64c-5 -3 -75 44 -87 50c-40 17 -235 114 -304 167c-22 8 -37 42 -37 60c0 1 0 3 1 4c0 7 1 13 5 16c38 82 244 303 284 346c13 13 67 97 78 97c27 0 50 -40 50 -62c0 -88 -257 -323 -328 -417c105 -55 289 -141 328 -197z" />
    <glyph glyph-name="quoteleft" unicode="&#x2018;" horiz-adv-x="249" 
d="M213 1086c-67 -66 -124 -140 -123 -184v0c2 -17 -4 -30 -10 -34c-11 -7 -26 2 -43 35v0c-30 69 30 198 70 239c28 32 72 22 95 -1c29 -25 32 -41 11 -55z" />
    <glyph glyph-name="quoteright" unicode="&#x2019;" horiz-adv-x="249" 
d="M51 1086c-17 14 -12 30 21 55c27 23 73 33 95 1c34 -41 72 -170 28 -239v0c-21 -33 -38 -42 -49 -35c-4 4 -8 17 -4 34v0c9 44 -34 118 -91 184z" />
    <glyph glyph-name="quotedblleft" unicode="&#x201c;" horiz-adv-x="425" 
d="M213 1086c-67 -66 -124 -140 -123 -184v0c2 -17 -4 -30 -10 -34c-11 -7 -26 2 -43 35v0c-30 69 30 198 70 239c28 32 72 22 95 -1c29 -25 32 -41 11 -55zM404 1086c-67 -66 -124 -140 -123 -184v0c2 -17 -4 -30 -10 -34c-11 -7 -26 2 -43 35v0c-30 69 30 198 70 239
c28 32 72 22 95 -1c29 -25 32 -41 11 -55z" />
    <glyph glyph-name="quotedblright" unicode="&#x201d;" horiz-adv-x="425" 
d="M51 1086c-17 14 -12 30 21 55c27 23 73 33 95 1c34 -41 72 -170 28 -239v0c-21 -33 -38 -42 -49 -35c-4 4 -8 17 -4 34v0c9 44 -34 118 -91 184zM242 1086c-17 14 -12 30 21 55c27 23 73 33 95 1c34 -41 72 -170 28 -239v0c-21 -33 -38 -42 -49 -35c-4 4 -8 17 -4 34v0
c9 44 -34 118 -91 184z" />
    <glyph glyph-name="bullet" unicode="&#x2022;" horiz-adv-x="306" 
d="M221 622c25 -34 35 -62 33 -86c-5 -56 -70 -88 -128 -88c-50 0 -97 26 -90 101c5 56 48 116 106 116c25 0 54 -11 79 -43z" />
    <glyph glyph-name="endash" unicode="&#x2013;" horiz-adv-x="581" 
d="M515 545c20 3 32 11 37 11c8 2 12 -5 11 -13c-2 -32 -11 -51 -28 -64c-39 -31 -128 -28 -166 -27c-67 2 -129 4 -190 6c-37 1 -77 4 -114 -2c-19 -1 -33 -10 -37 -11c-8 -1 -12 6 -11 14c2 32 12 52 29 65c37 30 127 27 165 26c68 -2 128 -4 190 -6c18 -1 35 0 114 1z
" />
    <glyph glyph-name="emdash" unicode="&#x2014;" horiz-adv-x="783" 
d="M687 563c24 3 42 13 49 13c11 3 16 -5 15 -15c-1 -38 -15 -60 -38 -76c-51 -36 -171 -33 -223 -32c-89 2 -173 6 -256 8c-49 1 -103 5 -153 -2c-25 -3 -44 -13 -49 -14c-11 -1 -16 7 -15 17c1 37 16 61 38 76c49 36 171 33 222 32c90 -3 172 -6 256 -8c23 -1 47 0 154 1z
" />
    <glyph glyph-name="tilde" unicode="&#x2dc;" horiz-adv-x="503" 
d="M25 1060c-2 16 0 44 10 28c110 -123 442 141 443 -134c-2 -16 -7 -44 -15 -26c-115 157 -405 -112 -438 132z" />
    <glyph glyph-name="guilsinglright" unicode="&#x203a;" horiz-adv-x="497" 
d="M17 170c44 56 235 142 345 197c-63 94 -299 329 -291 417c2 22 28 62 55 62c11 0 58 -84 70 -97c36 -43 222 -264 253 -346c4 -3 4 -9 4 -16c1 -1 1 -3 0 -4c-1 -18 -19 -52 -42 -60c-73 -53 -277 -150 -318 -167c-13 -6 -87 -53 -92 -50c-10 9 2 47 16 64z" />
    <glyph glyph-name="guillemotleft" unicode="&#xab;" horiz-adv-x="783" 
d="M392 170c8 -17 12 -55 -2 -64c-5 -3 -67 44 -77 50c-38 17 -215 114 -276 167c-20 8 -29 42 -27 60c2 1 2 3 3 4c0 7 3 13 7 16c52 82 298 303 346 346c15 13 83 97 94 97c27 0 44 -40 40 -62c-16 -88 -315 -323 -402 -417c95 -55 265 -141 294 -197zM692 170
c8 -17 12 -55 -2 -64c-5 -3 -67 44 -77 50c-38 17 -215 114 -276 167c-20 8 -29 42 -27 60c2 1 2 3 3 4c0 7 3 13 7 16c52 82 298 303 346 346c15 13 83 97 94 97c27 0 44 -40 40 -62c-16 -88 -315 -323 -402 -417c95 -55 265 -141 294 -197z" />
    <glyph glyph-name="acute" unicode="&#xb4;" horiz-adv-x="297" 
d="M192 1102c33 27 114 -14 90 -83c-25 -64 -122 -196 -206 -204c-26 -2 -52 7 -72 36c-6 10 7 1 23 8c87 40 138 181 165 243z" />
    <glyph glyph-name="cedilla" unicode="&#xb8;" horiz-adv-x="298" 
d="M190 113c33 27 123 -42 99 -111c-24 -64 -131 -168 -215 -176c-26 -2 -52 7 -72 36c-6 10 6 8 23 8c125 0 142 154 165 243z" />
    <glyph glyph-name="guillemotright" unicode="&#xbb;" horiz-adv-x="783" 
d="M-9 170c48 56 246 142 361 197c-55 94 -270 329 -254 417c4 22 33 62 60 62c11 0 51 -84 62 -97c32 -43 198 -264 222 -346c4 -3 3 -9 3 -16c1 -1 1 -3 -1 -4c-2 -18 -23 -52 -47 -60c-77 -53 -290 -150 -332 -167c-14 -6 -91 -53 -96 -50c-9 9 6 47 22 64zM290 170
c49 56 247 142 362 197c-55 94 -270 329 -254 417c4 22 33 62 60 62c11 0 51 -84 62 -97c32 -43 198 -264 222 -346c4 -3 3 -9 3 -16c1 -1 1 -3 -1 -4c-2 -18 -23 -52 -47 -60c-77 -53 -290 -150 -332 -167c-14 -6 -92 -53 -97 -50c-10 9 6 47 22 64z" />
    <glyph glyph-name="minus" unicode="&#x2212;" horiz-adv-x="487" 
d="M425 549c16 3 27 12 31 12c7 2 9 -5 8 -14c-2 -33 -10 -53 -25 -67c-31 -32 -104 -29 -135 -28c-55 2 -106 5 -155 7c-30 1 -63 4 -94 -2c-15 -2 -27 -11 -30 -12c-7 -1 -9 6 -8 15c2 33 10 54 25 67c30 32 104 29 135 28c55 -2 105 -5 155 -7c14 -1 28 0 93 1z" />
    <glyph glyph-name="divide" unicode="&#xf7;" horiz-adv-x="461" 
d="M265 369c15 -25 20 -47 18 -65c-3 -43 -44 -67 -80 -67c-31 0 -59 20 -54 77c4 42 31 88 67 88c16 0 33 -9 49 -33zM275 737c14 -25 20 -47 18 -65c-4 -43 -44 -67 -80 -67c-31 0 -59 20 -54 77c4 42 31 88 67 88c16 0 33 -9 49 -33zM405 549c16 3 27 12 31 12
c7 2 9 -5 8 -14c-2 -33 -10 -53 -25 -67c-31 -32 -104 -29 -135 -28c-55 2 -106 5 -155 7c-30 1 -63 4 -94 -2c-15 -2 -27 -11 -30 -12c-7 -1 -9 6 -8 15c2 33 10 54 25 67c30 32 104 29 135 28c55 -2 105 -5 155 -7c14 -1 28 0 93 1z" />
    <glyph glyph-name="multiply" unicode="&#xd7;" horiz-adv-x="555" 
d="M485 350c15 -12 31 -17 34 -21c11 -6 8 -12 1 -17c-24 -17 -46 -20 -69 -18c-52 13 -117 82 -145 112l-11 10l-78 -59c-16 -12 -31 -27 -104 -90c-14 -17 -16 -36 -20 -40c-6 -8 -17 -4 -26 5c-33 32 -44 58 -44 84c1 58 86 125 122 153l59 46l-39 44
c-29 29 -54 61 -91 89c-14 10 -30 17 -35 19c-8 7 -4 11 0 17c24 18 49 22 72 18c49 -12 116 -82 143 -111l21 -22l54 41c35 27 75 56 104 91c14 16 17 35 19 40c7 7 18 3 28 -7c32 -31 45 -58 43 -83c1 -58 -87 -126 -122 -154c-12 -9 -23 -19 -35 -27l30 -31
c12 -14 25 -27 89 -89z" />
    <glyph glyph-name="cent" unicode="&#xa2;" 
d="M367 -172c2 -28 13 -49 11 -57c3 -13 -6 -17 -17 -13c-40 12 -64 34 -79 63c-23 42 -27 109 -26 168c-23 -6 -48 -10 -74 -10c-139 0 -190 126 -190 264c0 17 0 34 2 52v-1c18 213 152 465 326 486c0 6 0 11 1 15c7 53 12 113 9 171c-1 29 -10 51 -10 58
c-2 13 7 17 19 13c40 -11 65 -32 79 -63c31 -54 27 -158 22 -224c58 -43 88 -123 83 -200c-2 -24 -5 -64 -39 -64c-7 1 -12 3 -20 11c5 18 9 36 10 50c4 52 -10 107 -41 113l-47 -531c44 46 81 107 109 154v-1c32 55 60 112 82 156c10 20 26 48 36 67c7 3 13 5 15 5
c12 0 19 -8 24 -19l-10 -22c-24 -49 -61 -122 -103 -195c-40 -73 -90 -158 -159 -218l-5 -56c-2 -25 -2 -50 -8 -172zM177 178c0 -63 19 -118 79 -118h4l2 15l38 462c-56 -91 -106 -218 -121 -324c-1 -11 -2 -24 -2 -35z" />
    <glyph glyph-name="yen" unicode="&#xa5;" horiz-adv-x="1602" 
d="M1341 -674c15 3 26 12 30 12c7 2 9 -5 8 -14c-2 -33 -10 -53 -25 -67c-31 -32 -104 -29 -135 -28c-5 0 -9 1 -13 1c-68 -146 -151 -261 -249 -273c-11 -1 -23 -2 -34 -2c-80 0 -130 37 -160 95c-24 46 -32 93 -32 140c0 43 7 86 22 129c75 220 321 433 471 563
c57 210 100 409 144 611c-129 -195 -236 -342 -313 -433c-102 -113 -181 -171 -249 -171c-24 0 -49 5 -75 16c-43 18 -55 65 -55 116c0 40 7 84 14 117l17 63c34 133 74 291 94 430c7 61 14 132 14 204c0 202 -54 425 -304 464h1c-150 13 -308 -133 -328 -299v1
c-14 -150 87 -303 190 -305c105 -11 198 117 226 201c0 4 2 8 2 12c2 17 7 34 35 34c20 0 24 -12 24 -27c0 -17 -3 -30 -6 -39c-2 -3 -3 -6 -3 -10c-46 -127 -170 -251 -333 -251c-28 0 -57 3 -87 11c-146 47 -223 163 -223 291c0 31 5 64 15 95c57 192 255 342 504 341
c124 1 249 -38 327 -100c133 -108 180 -261 180 -420c0 -62 -6 -128 -15 -189c-10 -77 -32 -168 -53 -252c-16 -65 -31 -130 -42 -191l-3 -14c-5 -26 -13 -66 -13 -95c0 -20 4 -35 13 -40c17 -5 52 19 92 63c115 122 298 390 387 545l-1 -1c12 69 21 129 21 169
c0 17 -6 32 -10 44c-2 6 -4 6 -4 15c0 17 19 23 41 24c114 4 149 -59 150 -117c-16 -321 -165 -873 -257 -1189l-23 -75h39c16 3 26 12 30 12c9 2 10 -5 9 -14c-2 -33 -10 -53 -25 -67c-19 -19 -53 -26 -84 -28c-13 -36 -27 -73 -41 -109h1c14 -1 28 0 94 1zM981 -826l29 64
c-14 0 -27 -1 -40 -4c-15 -2 -26 -11 -30 -12c-7 -1 -9 6 -8 15c2 33 10 54 25 67c19 21 57 27 90 29c13 35 26 71 38 108h-4c-30 1 -63 5 -94 -2c-15 -2 -26 -11 -30 -12c-7 -1 -9 6 -8 15c2 33 10 54 25 67c31 32 104 29 135 28h8c27 84 51 167 72 235
c-129 -118 -308 -296 -369 -462c-11 -37 -20 -75 -20 -108c0 -10 1 -22 4 -34c11 -66 37 -96 68 -96c34 -1 77 37 109 102z" />
    <glyph glyph-name="breve" unicode="&#x2d8;" horiz-adv-x="544" 
d="M18 1075c-1 10 12 43 22 44c12 -2 12 -13 14 -21c-1 -1 0 -2 0 -3c23 -60 126 -95 225 -95c88 0 174 25 205 73l1 2c2 8 7 19 18 19c8 -2 12 -33 11 -46c-27 -89 -134 -133 -242 -133c-126 0 -254 57 -254 160z" />
    <glyph glyph-name="dotaccent" unicode="&#x2d9;" horiz-adv-x="181" 
d="M131 1068c15 -25 20 -47 18 -65c-4 -43 -44 -67 -80 -67c-31 0 -59 20 -54 77c4 42 31 88 67 88c16 0 33 -9 49 -33z" />
    <glyph glyph-name="ring" unicode="&#x2da;" horiz-adv-x="259" 
d="M149 1099c104 0 104 -68 100 -121c-5 -56 -47 -145 -146 -145c-90 0 -103 77 -99 126c4 52 56 140 145 140zM150 1062c-37 0 -59 -104 -61 -125c-2 -19 -4 -68 24 -68c34 0 60 70 65 125c3 39 -4 68 -28 68z" />
    <glyph glyph-name="hungarumlaut" unicode="&#x2dd;" horiz-adv-x="594" 
d="M192 1102c33 27 114 -14 90 -83c-25 -64 -122 -196 -206 -204c-26 -2 -52 7 -72 36c-6 10 7 1 23 8c87 40 138 181 165 243zM489 1102c33 27 114 -14 90 -83c-25 -64 -122 -196 -206 -204c-26 -2 -52 7 -72 36c-7 10 7 1 23 8c87 40 138 181 165 243z" />
    <glyph glyph-name="ogonek" unicode="&#x2db;" horiz-adv-x="298" 
d="M133 113c7 -89 -2 -243 123 -243c17 0 30 2 21 -8c-26 -29 -52 -38 -78 -36c-82 8 -171 112 -185 176c-12 69 90 138 119 111z" />
    <glyph glyph-name="caron" unicode="&#x2c7;" horiz-adv-x="570" 
d="M488 1083h-1c14 9 44 11 49 -1c3 -6 -12 -19 -25 -34c-9 -9 -15 -18 -18 -21c-16 -22 -102 -132 -148 -176c-9 -14 -35 -22 -48 -20c-9 1 -15 2 -16 7c-44 30 -136 153 -169 196v-1l-8 10c-3 3 -8 11 -18 20c-14 16 -34 35 -33 42c4 19 36 32 51 31
c41 -5 106 -93 160 -164c22 -29 42 -57 56 -74l23 29c47 61 109 139 145 156z" />
    <glyph glyph-name="fraction" unicode="&#x2044;" horiz-adv-x="601" 
d="M63 57c-11 -26 -11 -50 -16 -56c-3 -13 -13 -13 -21 -4c-31 28 -42 58 -43 91c-3 75 65 189 95 237c52 89 325 541 371 619c30 45 61 96 84 150c12 26 13 50 16 56c4 13 14 13 23 4c31 -28 44 -58 43 -92c5 -73 -66 -189 -95 -238c-53 -88 -324 -536 -374 -616
c-13 -22 -24 -45 -83 -151z" />
    <glyph glyph-name="dotlessi" unicode="&#x131;" horiz-adv-x="373" 
d="M90 662v-1c2 11 3 21 3 28c0 9 1 15 2 19c5 17 23 19 42 14c55 -20 80 -42 80 -80c0 -19 -5 -41 -13 -68c-27 -86 -70 -255 -83 -366c-1 -13 -2 -30 -2 -41c0 -47 9 -78 31 -79c56 0 172 220 237 344c17 32 30 57 40 73c6 3 11 5 15 5c10 0 18 -8 25 -20l-11 -21
c-78 -162 -234 -464 -350 -464c-93 0 -123 80 -123 180c0 16 1 33 2 49c11 130 50 256 91 382z" />
    <glyph glyph-name="aacute" unicode="&#xe1;" horiz-adv-x="731" 
d="M533 472l-1 -1c-3 -4 -20 -9 -25 -9c-7 0 -15 4 -21 12c5 14 7 27 9 41c3 68 -24 153 -97 153c-141 0 -296 -363 -306 -480c-3 -38 1 -90 48 -90c84 0 190 191 240 289c4 15 16 35 14 59c-2 18 19 23 39 24c79 -7 105 -39 109 -81c4 -43 -14 -95 -21 -138
c-5 -27 -31 -184 19 -139c65 65 148 215 200 314c15 32 31 63 42 81c5 2 10 3 15 3c12 0 19 -8 24 -19l-10 -22c-55 -111 -172 -349 -266 -426c-27 -22 -67 -39 -103 -39c-95 0 -103 156 -93 223c0 3 0 1 1 10c-72 -119 -175 -237 -287 -237c-105 0 -139 79 -139 170
c0 8 0 20 1 29c25 201 217 561 444 561c117 0 184 -123 176 -234c-2 -19 -6 -37 -12 -54zM405 1102c33 27 114 -14 90 -83c-25 -64 -122 -196 -206 -204c-26 -2 -52 7 -72 36c-6 10 7 1 23 8c87 40 138 181 165 243z" />
    <glyph glyph-name="acircumflex" unicode="&#xe2;" horiz-adv-x="731" 
d="M533 472l-1 -1c-3 -4 -20 -9 -25 -9c-7 0 -15 4 -21 12c5 14 7 27 9 41c3 68 -24 153 -97 153c-141 0 -296 -363 -306 -480c-3 -38 1 -90 48 -90c84 0 190 191 240 289c4 15 16 35 14 59c-2 18 19 23 39 24c79 -7 105 -39 109 -81c4 -43 -14 -95 -21 -138
c-5 -27 -31 -184 19 -139c65 65 148 215 200 314c15 32 31 63 42 81c5 2 10 3 15 3c12 0 19 -8 24 -19l-10 -22c-55 -111 -172 -349 -266 -426c-27 -22 -67 -39 -103 -39c-95 0 -103 156 -93 223c0 3 0 1 1 10c-72 -119 -175 -237 -287 -237c-105 0 -139 79 -139 170
c0 8 0 20 1 29c25 201 217 561 444 561c117 0 184 -123 176 -234c-2 -19 -6 -37 -12 -54zM559 884h1c-34 17 -82 95 -119 156l-17 29c-18 -17 -42 -45 -70 -74c-66 -71 -145 -159 -188 -164c-15 -1 -45 12 -45 31c-1 7 23 26 41 42c10 9 17 17 20 20l10 10v-1
c41 43 155 166 203 196c3 5 9 6 18 7c13 2 37 -6 44 -20c38 -44 106 -154 118 -176c1 -3 7 -12 14 -21c11 -15 22 -28 19 -34c-7 -12 -37 -10 -49 -1z" />
    <glyph glyph-name="atilde" unicode="&#xe3;" horiz-adv-x="731" 
d="M533 472l-1 -1c-3 -4 -20 -9 -25 -9c-7 0 -15 4 -21 12c5 14 7 27 9 41c3 68 -24 153 -97 153c-141 0 -296 -363 -306 -480c-3 -38 1 -90 48 -90c84 0 190 191 240 289c4 15 16 35 14 59c-2 18 19 23 39 24c79 -7 105 -39 109 -81c4 -43 -14 -95 -21 -138
c-5 -27 -31 -184 19 -139c65 65 148 215 200 314c15 32 31 63 42 81c5 2 10 3 15 3c12 0 19 -8 24 -19l-10 -22c-55 -111 -172 -349 -266 -426c-27 -22 -67 -39 -103 -39c-95 0 -103 156 -93 223c0 3 0 1 1 10c-72 -119 -175 -237 -287 -237c-105 0 -139 79 -139 170
c0 8 0 20 1 29c25 201 217 561 444 561c117 0 184 -123 176 -234c-2 -19 -6 -37 -12 -54zM140 1060c-2 16 0 44 10 28c110 -123 442 141 443 -134c-2 -16 -7 -44 -15 -26c-115 157 -405 -112 -438 132z" />
    <glyph glyph-name="agrave" unicode="&#xe0;" horiz-adv-x="731" 
d="M533 472l-1 -1c-3 -4 -20 -9 -25 -9c-7 0 -15 4 -21 12c5 14 7 27 9 41c3 68 -24 153 -97 153c-141 0 -296 -363 -306 -480c-3 -38 1 -90 48 -90c84 0 190 191 240 289c4 15 16 35 14 59c-2 18 19 23 39 24c79 -7 105 -39 109 -81c4 -43 -14 -95 -21 -138
c-5 -27 -31 -184 19 -139c65 65 148 215 200 314c15 32 31 63 42 81c5 2 10 3 15 3c12 0 19 -8 24 -19l-10 -22c-55 -111 -172 -349 -266 -426c-27 -22 -67 -39 -103 -39c-95 0 -103 156 -93 223c0 3 0 1 1 10c-72 -119 -175 -237 -287 -237c-105 0 -139 79 -139 170
c0 8 0 20 1 29c25 201 217 561 444 561c117 0 184 -123 176 -234c-2 -19 -6 -37 -12 -54zM347 1102c17 -62 42 -203 123 -243c14 -7 30 2 21 -8c-26 -29 -52 -38 -78 -36c-82 8 -157 140 -170 204c-12 69 75 110 104 83z" />
    <glyph glyph-name="dieresis" unicode="&#xa8;" horiz-adv-x="358" 
d="M127 1068c17 -25 24 -47 24 -65c0 -43 -38 -67 -74 -67c-31 0 -61 20 -61 77c0 42 23 88 59 88c16 0 34 -9 52 -33zM309 1068c17 -25 24 -47 24 -65c0 -43 -38 -67 -74 -67c-31 0 -61 20 -61 77c0 42 23 88 59 88c16 0 34 -9 52 -33z" />
    <glyph glyph-name="adieresis" unicode="&#xe4;" horiz-adv-x="731" 
d="M533 472l-1 -1c-3 -4 -20 -9 -25 -9c-7 0 -15 4 -21 12c5 14 7 27 9 41c3 68 -24 153 -97 153c-141 0 -296 -363 -306 -480c-3 -38 1 -90 48 -90c84 0 190 191 240 289c4 15 16 35 14 59c-2 18 19 23 39 24c79 -7 105 -39 109 -81c4 -43 -14 -95 -21 -138
c-5 -27 -31 -184 19 -139c65 65 148 215 200 314c15 32 31 63 42 81c5 2 10 3 15 3c12 0 19 -8 24 -19l-10 -22c-55 -111 -172 -349 -266 -426c-27 -22 -67 -39 -103 -39c-95 0 -103 156 -93 223c0 3 0 1 1 10c-72 -119 -175 -237 -287 -237c-105 0 -139 79 -139 170
c0 8 0 20 1 29c25 201 217 561 444 561c117 0 184 -123 176 -234c-2 -19 -6 -37 -12 -54zM318 1068c17 -25 24 -47 24 -65c0 -43 -38 -67 -74 -67c-31 0 -61 20 -61 77c0 42 23 88 59 88c16 0 34 -9 52 -33zM500 1068c17 -25 24 -47 24 -65c0 -43 -38 -67 -74 -67
c-31 0 -61 20 -61 77c0 42 23 88 59 88c16 0 34 -9 52 -33z" />
    <glyph glyph-name="aring" unicode="&#xe5;" horiz-adv-x="731" 
d="M533 472l-1 -1c-3 -4 -20 -9 -25 -9c-7 0 -15 4 -21 12c5 14 7 27 9 41c3 68 -24 153 -97 153c-141 0 -296 -363 -306 -480c-3 -38 1 -90 48 -90c84 0 190 191 240 289c4 15 16 35 14 59c-2 18 19 23 39 24c79 -7 105 -39 109 -81c4 -43 -14 -95 -21 -138
c-5 -27 -31 -184 19 -139c65 65 148 215 200 314c15 32 31 63 42 81c5 2 10 3 15 3c12 0 19 -8 24 -19l-10 -22c-55 -111 -172 -349 -266 -426c-27 -22 -67 -39 -103 -39c-95 0 -103 156 -93 223c0 3 0 1 1 10c-72 -119 -175 -237 -287 -237c-105 0 -139 79 -139 170
c0 8 0 20 1 29c25 201 217 561 444 561c117 0 184 -123 176 -234c-2 -19 -6 -37 -12 -54zM388 1099c104 0 104 -68 100 -121c-5 -56 -47 -145 -146 -145c-90 0 -103 77 -99 126c4 52 56 140 145 140zM389 1062c-37 0 -59 -104 -61 -125c-2 -19 -4 -68 24 -68
c34 0 60 70 65 125c3 39 -4 68 -28 68z" />
    <glyph glyph-name="ccedilla" unicode="&#xe7;" 
d="M539 274c-71 -129 -171 -295 -357 -295c-139 0 -190 126 -190 264c0 17 0 34 2 52v-1c19 223 165 488 350 488c118 0 187 -119 179 -232c-2 -24 -5 -64 -39 -64c-7 1 -12 3 -20 11c5 18 9 36 10 50c4 56 -12 114 -47 114c-80 0 -221 -258 -248 -448c-1 -11 -2 -24 -2 -35
c0 -63 19 -118 79 -118c105 0 187 135 239 223v-1c32 55 60 112 82 156c10 20 26 48 36 67c7 3 13 5 15 5c12 0 19 -8 24 -19l-10 -22c-24 -49 -61 -122 -103 -195zM160 45c-23 -89 -40 -243 -165 -243c-17 0 -29 2 -23 -8c20 -29 46 -38 72 -36c84 8 191 112 215 176
c24 69 -66 138 -99 111z" />
    <glyph glyph-name="egrave" unicode="&#xe8;" 
d="M534 274c-71 -129 -171 -295 -357 -295c-139 0 -190 126 -190 264c0 17 0 34 2 52v-1c19 223 165 488 350 488c117 0 187 -110 181 -216c-17 -150 -197 -252 -332 -281c-5 -22 -8 -47 -11 -73c-1 -10 -1 -23 -1 -33c0 -58 16 -114 81 -119c102 3 182 138 233 223v-1
c32 55 60 112 82 156c10 20 26 48 36 67c7 3 13 5 15 5c12 0 19 -8 24 -19l-10 -22c-24 -49 -61 -122 -103 -195zM457 634c-10 20 -23 29 -36 29c-78 0 -198 -238 -220 -324c90 12 261 99 271 219c3 25 -2 50 -15 76zM261 1102c17 -62 42 -203 123 -243c14 -7 30 2 21 -8
c-26 -29 -52 -38 -78 -36c-82 8 -157 140 -170 204c-12 69 75 110 104 83z" />
    <glyph glyph-name="eacute" unicode="&#xe9;" 
d="M534 274c-71 -129 -171 -295 -357 -295c-139 0 -190 126 -190 264c0 17 0 34 2 52v-1c19 223 165 488 350 488c117 0 187 -110 181 -216c-17 -150 -197 -252 -332 -281c-5 -22 -8 -47 -11 -73c-1 -10 -1 -23 -1 -33c0 -58 16 -114 81 -119c102 3 182 138 233 223v-1
c32 55 60 112 82 156c10 20 26 48 36 67c7 3 13 5 15 5c12 0 19 -8 24 -19l-10 -22c-24 -49 -61 -122 -103 -195zM457 634c-10 20 -23 29 -36 29c-78 0 -198 -238 -220 -324c90 12 261 99 271 219c3 25 -2 50 -15 76zM320 1102c33 27 114 -14 90 -83
c-25 -64 -122 -196 -206 -204c-26 -2 -52 7 -72 36c-6 10 7 1 23 8c87 40 138 181 165 243z" />
    <glyph glyph-name="ecircumflex" unicode="&#xea;" 
d="M534 274c-71 -129 -171 -295 -357 -295c-139 0 -190 126 -190 264c0 17 0 34 2 52v-1c19 223 165 488 350 488c117 0 187 -110 181 -216c-17 -150 -197 -252 -332 -281c-5 -22 -8 -47 -11 -73c-1 -10 -1 -23 -1 -33c0 -58 16 -114 81 -119c102 3 182 138 233 223v-1
c32 55 60 112 82 156c10 20 26 48 36 67c7 3 13 5 15 5c12 0 19 -8 24 -19l-10 -22c-24 -49 -61 -122 -103 -195zM457 634c-10 20 -23 29 -36 29c-78 0 -198 -238 -220 -324c90 12 261 99 271 219c3 25 -2 50 -15 76zM473 884h1c-34 17 -82 95 -119 156l-17 29
c-18 -17 -42 -45 -70 -74c-66 -71 -145 -159 -188 -164c-15 -1 -45 12 -45 31c-1 7 23 26 41 42c10 9 17 17 20 20l10 10v-1c41 43 155 166 203 196c3 5 9 6 18 7c13 2 37 -6 44 -20c38 -44 106 -154 118 -176c1 -3 7 -12 14 -21c11 -15 22 -28 19 -34
c-7 -12 -37 -10 -49 -1z" />
    <glyph glyph-name="edieresis" unicode="&#xeb;" 
d="M534 274c-71 -129 -171 -295 -357 -295c-139 0 -190 126 -190 264c0 17 0 34 2 52v-1c19 223 165 488 350 488c117 0 187 -110 181 -216c-17 -150 -197 -252 -332 -281c-5 -22 -8 -47 -11 -73c-1 -10 -1 -23 -1 -33c0 -58 16 -114 81 -119c102 3 182 138 233 223v-1
c32 55 60 112 82 156c10 20 26 48 36 67c7 3 13 5 15 5c12 0 19 -8 24 -19l-10 -22c-24 -49 -61 -122 -103 -195zM457 634c-10 20 -23 29 -36 29c-78 0 -198 -238 -220 -324c90 12 261 99 271 219c3 25 -2 50 -15 76zM232 1068c17 -25 24 -47 24 -65c0 -43 -38 -67 -74 -67
c-31 0 -61 20 -61 77c0 42 23 88 59 88c16 0 34 -9 52 -33zM414 1068c17 -25 24 -47 24 -65c0 -43 -38 -67 -74 -67c-31 0 -61 20 -61 77c0 42 23 88 59 88c16 0 34 -9 52 -33z" />
    <glyph glyph-name="igrave" unicode="&#xec;" horiz-adv-x="373" 
d="M90 662v-1c2 11 3 21 3 28c0 9 1 15 2 19c5 17 23 19 42 14c55 -20 80 -42 80 -80c0 -19 -5 -41 -13 -68c-27 -86 -70 -255 -83 -366c-1 -13 -2 -30 -2 -41c0 -47 9 -78 31 -79c56 0 172 220 237 344c17 32 30 57 40 73c6 3 11 5 15 5c10 0 18 -8 25 -20l-11 -21
c-78 -162 -234 -464 -350 -464c-93 0 -123 80 -123 180c0 16 1 33 2 49c11 130 50 256 91 382zM168 1102c17 -62 42 -203 123 -243c14 -7 30 2 21 -8c-26 -29 -52 -38 -78 -36c-82 8 -157 140 -170 204c-12 69 75 110 104 83z" />
    <glyph glyph-name="iacute" unicode="&#xed;" horiz-adv-x="373" 
d="M90 662v-1c2 11 3 21 3 28c0 9 1 15 2 19c5 17 23 19 42 14c55 -20 80 -42 80 -80c0 -19 -5 -41 -13 -68c-27 -86 -70 -255 -83 -366c-1 -13 -2 -30 -2 -41c0 -47 9 -78 31 -79c56 0 172 220 237 344c17 32 30 57 40 73c6 3 11 5 15 5c10 0 18 -8 25 -20l-11 -21
c-78 -162 -234 -464 -350 -464c-93 0 -123 80 -123 180c0 16 1 33 2 49c11 130 50 256 91 382zM226 1102c33 27 114 -14 90 -83c-25 -64 -122 -196 -206 -204c-26 -2 -52 7 -72 36c-6 10 7 1 23 8c87 40 138 181 165 243z" />
    <glyph glyph-name="icircumflex" unicode="&#xee;" horiz-adv-x="373" 
d="M90 662v-1c2 11 3 21 3 28c0 9 1 15 2 19c5 17 23 19 42 14c55 -20 80 -42 80 -80c0 -19 -5 -41 -13 -68c-27 -86 -70 -255 -83 -366c-1 -13 -2 -30 -2 -41c0 -47 9 -78 31 -79c56 0 172 220 237 344c17 32 30 57 40 73c6 3 11 5 15 5c10 0 18 -8 25 -20l-11 -21
c-78 -162 -234 -464 -350 -464c-93 0 -123 80 -123 180c0 16 1 33 2 49c11 130 50 256 91 382zM380 884h1c-34 17 -82 95 -119 156l-17 29c-18 -17 -42 -45 -70 -74c-66 -71 -145 -159 -188 -164c-15 -1 -45 12 -45 31c-1 7 23 26 41 42c10 9 17 17 20 20l10 10v-1
c41 43 155 166 203 196c3 5 9 6 18 7c13 2 37 -6 44 -20c38 -44 106 -154 118 -176c1 -3 7 -12 14 -21c11 -15 22 -28 19 -34c-7 -12 -37 -10 -49 -1z" />
    <glyph glyph-name="idieresis" unicode="&#xef;" horiz-adv-x="373" 
d="M90 662v-1c2 11 3 21 3 28c0 9 1 15 2 19c5 17 23 19 42 14c55 -20 80 -42 80 -80c0 -19 -5 -41 -13 -68c-27 -86 -70 -255 -83 -366c-1 -13 -2 -30 -2 -41c0 -47 9 -78 31 -79c56 0 172 220 237 344c17 32 30 57 40 73c6 3 11 5 15 5c10 0 18 -8 25 -20l-11 -21
c-78 -162 -234 -464 -350 -464c-93 0 -123 80 -123 180c0 16 1 33 2 49c11 130 50 256 91 382zM139 1068c17 -25 24 -47 24 -65c0 -43 -38 -67 -74 -67c-31 0 -61 20 -61 77c0 42 23 88 59 88c16 0 34 -9 52 -33zM321 1068c17 -25 24 -47 24 -65c0 -43 -38 -67 -74 -67
c-31 0 -61 20 -61 77c0 42 23 88 59 88c16 0 34 -9 52 -33z" />
    <glyph glyph-name="ntilde" unicode="&#xf1;" horiz-adv-x="689" 
d="M193 513c-4 -15 -8 -28 -10 -40c16 22 31 49 49 75c71 112 154 239 260 239c74 0 95 -53 89 -125c-6 -74 -39 -172 -73 -265c-29 -85 -58 -174 -65 -231c-1 -27 1 -77 23 -77c58 -1 229 328 259 386c0 1 2 5 3 6l4 8c6 12 10 21 24 21c13 0 20 -8 25 -19
c-9 -16 -22 -40 -32 -63c-79 -157 -208 -420 -332 -420c-92 0 -123 58 -123 137c0 8 0 20 1 29c12 103 63 243 103 347c27 72 50 131 53 158c1 13 -2 18 -9 18c-72 0 -222 -259 -277 -352v1l-16 -28h1c-22 -54 -40 -131 -45 -193c-1 -11 -1 -21 -1 -31c0 -32 5 -55 9 -69
c2 -6 3 -10 3 -14c0 -11 -9 -14 -22 -14c-97 0 -122 85 -122 167c0 13 1 27 2 41c7 87 33 196 55 280c18 71 34 137 38 182c1 21 -2 37 -4 50c-1 7 -2 12 -2 17c1 18 19 24 38 24c101 0 119 -73 114 -139c-3 -36 -11 -74 -20 -106zM119 1060c-2 16 0 44 10 28
c110 -123 442 141 443 -134c-2 -16 -7 -44 -15 -26c-115 157 -405 -112 -438 132z" />
    <glyph glyph-name="ograve" unicode="&#xf2;" horiz-adv-x="684" 
d="M201 7c-152 0 -199 180 -199 323c0 20 0 40 2 56c5 63 14 120 29 159c26 32 64 46 101 46c21 0 45 -6 63 -15c14 141 59 294 218 294c130 0 184 -115 184 -262c0 -20 -1 -39 -3 -57v1c-10 -103 -45 -218 -96 -314c103 21 158 123 209 222l22 40c6 3 13 6 17 6
c7 0 14 -4 18 -20c-45 -107 -143 -295 -298 -304c-68 -103 -160 -175 -267 -175zM308 520c0 -113 21 -257 132 -278c52 84 89 202 98 307c2 18 2 35 2 52c0 115 -39 208 -128 208c-62 0 -90 -96 -100 -203c-2 -24 -4 -54 -4 -86zM399 186c-133 40 -188 134 -202 256
c-4 -21 -6 -45 -8 -67c-2 -21 -3 -42 -3 -62c0 -99 23 -191 93 -191c45 0 83 22 120 64zM365 1227c17 -62 42 -203 123 -243c14 -7 30 2 21 -8c-26 -29 -52 -38 -78 -36c-82 8 -157 140 -170 204c-12 69 75 110 104 83z" />
    <glyph glyph-name="oacute" unicode="&#xf3;" horiz-adv-x="684" 
d="M201 7c-152 0 -199 180 -199 323c0 20 0 40 2 56c5 63 14 120 29 159c26 32 64 46 101 46c21 0 45 -6 63 -15c14 141 59 294 218 294c130 0 184 -115 184 -262c0 -20 -1 -39 -3 -57v1c-10 -103 -45 -218 -96 -314c103 21 158 123 209 222l22 40c6 3 13 6 17 6
c7 0 14 -4 18 -20c-45 -107 -143 -295 -298 -304c-68 -103 -160 -175 -267 -175zM308 520c0 -113 21 -257 132 -278c52 84 89 202 98 307c2 18 2 35 2 52c0 115 -39 208 -128 208c-62 0 -90 -96 -100 -203c-2 -24 -4 -54 -4 -86zM399 186c-133 40 -188 134 -202 256
c-4 -21 -6 -45 -8 -67c-2 -21 -3 -42 -3 -62c0 -99 23 -191 93 -191c45 0 83 22 120 64zM465 1216c33 27 114 -14 90 -83c-25 -64 -122 -196 -206 -204c-26 -2 -52 7 -72 36c-6 10 7 1 23 8c87 40 138 181 165 243z" />
    <glyph glyph-name="ocircumflex" unicode="&#xf4;" horiz-adv-x="684" 
d="M201 7c-152 0 -199 180 -199 323c0 20 0 40 2 56c5 63 14 120 29 159c26 32 64 46 101 46c21 0 45 -6 63 -15c14 141 59 294 218 294c130 0 184 -115 184 -262c0 -20 -1 -39 -3 -57v1c-10 -103 -45 -218 -96 -314c103 21 158 123 209 222l22 40c6 3 13 6 17 6
c7 0 14 -4 18 -20c-45 -107 -143 -295 -298 -304c-68 -103 -160 -175 -267 -175zM308 520c0 -113 21 -257 132 -278c52 84 89 202 98 307c2 18 2 35 2 52c0 115 -39 208 -128 208c-62 0 -90 -96 -100 -203c-2 -24 -4 -54 -4 -86zM399 186c-133 40 -188 134 -202 256
c-4 -21 -6 -45 -8 -67c-2 -21 -3 -42 -3 -62c0 -99 23 -191 93 -191c45 0 83 22 120 64zM535 884h1c-34 17 -82 95 -119 156l-17 29c-18 -17 -42 -45 -70 -74c-66 -71 -145 -159 -188 -164c-15 -1 -45 12 -45 31c-1 7 23 26 41 42c10 9 17 17 20 20l10 10v-1
c41 43 155 166 203 196c3 5 9 6 18 7c13 2 37 -6 44 -20c38 -44 106 -154 118 -176c1 -3 7 -12 14 -21c11 -15 22 -28 19 -34c-7 -12 -37 -10 -49 -1z" />
    <glyph glyph-name="otilde" unicode="&#xf5;" horiz-adv-x="684" 
d="M201 7c-152 0 -199 180 -199 323c0 20 0 40 2 56c5 63 14 120 29 159c26 32 64 46 101 46c21 0 45 -6 63 -15c14 141 59 294 218 294c130 0 184 -115 184 -262c0 -20 -1 -39 -3 -57v1c-10 -103 -45 -218 -96 -314c103 21 158 123 209 222l22 40c6 3 13 6 17 6
c7 0 14 -4 18 -20c-45 -107 -143 -295 -298 -304c-68 -103 -160 -175 -267 -175zM308 520c0 -113 21 -257 132 -278c52 84 89 202 98 307c2 18 2 35 2 52c0 115 -39 208 -128 208c-62 0 -90 -96 -100 -203c-2 -24 -4 -54 -4 -86zM399 186c-133 40 -188 134 -202 256
c-4 -21 -6 -45 -8 -67c-2 -21 -3 -42 -3 -62c0 -99 23 -191 93 -191c45 0 83 22 120 64zM116 1060c-2 16 0 44 10 28c110 -123 442 141 443 -134c-2 -16 -7 -44 -15 -26c-115 157 -405 -112 -438 132z" />
    <glyph glyph-name="odieresis" unicode="&#xf6;" horiz-adv-x="684" 
d="M201 7c-152 0 -199 180 -199 323c0 20 0 40 2 56c5 63 14 120 29 159c26 32 64 46 101 46c21 0 45 -6 63 -15c14 141 59 294 218 294c130 0 184 -115 184 -262c0 -20 -1 -39 -3 -57v1c-10 -103 -45 -218 -96 -314c103 21 158 123 209 222l22 40c6 3 13 6 17 6
c7 0 14 -4 18 -20c-45 -107 -143 -295 -298 -304c-68 -103 -160 -175 -267 -175zM308 520c0 -113 21 -257 132 -278c52 84 89 202 98 307c2 18 2 35 2 52c0 115 -39 208 -128 208c-62 0 -90 -96 -100 -203c-2 -24 -4 -54 -4 -86zM399 186c-133 40 -188 134 -202 256
c-4 -21 -6 -45 -8 -67c-2 -21 -3 -42 -3 -62c0 -99 23 -191 93 -191c45 0 83 22 120 64zM361 1074c17 -25 24 -47 24 -65c0 -43 -38 -67 -74 -67c-31 0 -61 20 -61 77c0 42 23 88 59 88c16 0 34 -9 52 -33zM543 1074c17 -25 24 -47 24 -65c0 -43 -38 -67 -74 -67
c-31 0 -61 20 -61 77c0 42 23 88 59 88c16 0 34 -9 52 -33z" />
    <glyph glyph-name="oslash" unicode="&#xf8;" horiz-adv-x="684" 
d="M116 -77c-11 -26 -11 -50 -16 -56c-3 -13 -13 -13 -21 -4c-31 28 -42 58 -43 91c-2 36 13 80 32 122c-49 65 -66 166 -66 254c0 20 0 40 2 56c5 63 14 120 29 159c26 32 64 46 101 46c21 0 45 -6 63 -15c14 141 59 294 218 294c42 0 77 -13 104 -34c24 38 48 80 67 124
c12 26 13 50 16 56c4 13 14 13 23 4c31 -28 44 -58 43 -92c4 -63 -48 -157 -81 -214c8 -32 12 -68 12 -106c0 -20 -1 -39 -3 -57v1c-10 -103 -45 -218 -96 -314c103 21 158 123 209 222l22 40c6 3 13 6 17 6c7 0 14 -4 18 -20c-45 -107 -143 -295 -298 -304
c-68 -103 -160 -175 -267 -175c-13 0 -25 1 -37 4zM540 601c0 11 -1 22 -1 32l-193 -318c20 -37 50 -65 94 -73c52 84 89 202 98 307c2 18 2 35 2 52zM308 520v-33l177 293c-19 18 -43 29 -73 29c-62 0 -90 -96 -100 -203c-2 -24 -4 -54 -4 -86zM399 186
c-41 12 -74 29 -101 50l-61 -100c11 -9 25 -14 42 -14c45 0 83 22 120 64zM186 313v-29l35 58c-12 30 -20 64 -24 100c-4 -21 -6 -45 -8 -67c-2 -21 -3 -42 -3 -62z" />
    <glyph glyph-name="ugrave" unicode="&#xf9;" horiz-adv-x="710" 
d="M185 741c39 -24 50 -76 46 -128c-5 -58 -25 -121 -39 -161c-25 -76 -69 -226 -78 -306c-1 -29 1 -54 13 -54c54 0 202 252 260 348l-1 -1c26 81 47 136 53 217c1 10 -1 23 -3 33c-1 7 -2 15 -2 15c2 26 19 35 64 35c63 0 80 -54 74 -114c-7 -73 -35 -170 -61 -258
c-24 -79 -47 -152 -50 -200c-3 -26 0 -78 22 -78c63 0 252 371 263 392l3 7h-1c6 13 10 22 25 22c13 0 20 -8 25 -19c-9 -16 -22 -40 -33 -63c-78 -157 -207 -420 -331 -420c-93 0 -123 54 -123 131v29c1 20 5 43 10 65c-2 -2 -3 -6 -5 -8c-70 -108 -147 -226 -255 -226
c-69 0 -93 51 -93 126c0 13 1 27 2 41c8 88 41 209 68 308c22 80 43 157 47 201c2 21 -2 35 -5 45v-1c-2 6 -2 10 -2 15c1 18 19 24 37 24c26 0 58 -10 70 -17zM336 1102c17 -62 42 -203 123 -243c14 -7 30 2 21 -8c-26 -29 -52 -38 -78 -36c-82 8 -157 140 -170 204
c-12 69 75 110 104 83z" />
    <glyph glyph-name="uacute" unicode="&#xfa;" horiz-adv-x="710" 
d="M185 741c39 -24 50 -76 46 -128c-5 -58 -25 -121 -39 -161c-25 -76 -69 -226 -78 -306c-1 -29 1 -54 13 -54c54 0 202 252 260 348l-1 -1c26 81 47 136 53 217c1 10 -1 23 -3 33c-1 7 -2 15 -2 15c2 26 19 35 64 35c63 0 80 -54 74 -114c-7 -73 -35 -170 -61 -258
c-24 -79 -47 -152 -50 -200c-3 -26 0 -78 22 -78c63 0 252 371 263 392l3 7h-1c6 13 10 22 25 22c13 0 20 -8 25 -19c-9 -16 -22 -40 -33 -63c-78 -157 -207 -420 -331 -420c-93 0 -123 54 -123 131v29c1 20 5 43 10 65c-2 -2 -3 -6 -5 -8c-70 -108 -147 -226 -255 -226
c-69 0 -93 51 -93 126c0 13 1 27 2 41c8 88 41 209 68 308c22 80 43 157 47 201c2 21 -2 35 -5 45v-1c-2 6 -2 10 -2 15c1 18 19 24 37 24c26 0 58 -10 70 -17zM395 1102c33 27 114 -14 90 -83c-25 -64 -122 -196 -206 -204c-26 -2 -52 7 -72 36c-6 10 7 1 23 8
c87 40 138 181 165 243z" />
    <glyph glyph-name="ucircumflex" unicode="&#xfb;" horiz-adv-x="710" 
d="M185 741c39 -24 50 -76 46 -128c-5 -58 -25 -121 -39 -161c-25 -76 -69 -226 -78 -306c-1 -29 1 -54 13 -54c54 0 202 252 260 348l-1 -1c26 81 47 136 53 217c1 10 -1 23 -3 33c-1 7 -2 15 -2 15c2 26 19 35 64 35c63 0 80 -54 74 -114c-7 -73 -35 -170 -61 -258
c-24 -79 -47 -152 -50 -200c-3 -26 0 -78 22 -78c63 0 252 371 263 392l3 7h-1c6 13 10 22 25 22c13 0 20 -8 25 -19c-9 -16 -22 -40 -33 -63c-78 -157 -207 -420 -331 -420c-93 0 -123 54 -123 131v29c1 20 5 43 10 65c-2 -2 -3 -6 -5 -8c-70 -108 -147 -226 -255 -226
c-69 0 -93 51 -93 126c0 13 1 27 2 41c8 88 41 209 68 308c22 80 43 157 47 201c2 21 -2 35 -5 45v-1c-2 6 -2 10 -2 15c1 18 19 24 37 24c26 0 58 -10 70 -17zM548 884h1c-34 17 -82 95 -119 156l-17 29c-18 -17 -42 -45 -70 -74c-66 -71 -145 -159 -188 -164
c-15 -1 -45 12 -45 31c-1 7 23 26 41 42c10 9 17 17 20 20l10 10v-1c41 43 155 166 203 196c3 5 9 6 18 7c13 2 37 -6 44 -20c38 -44 106 -154 118 -176c1 -3 7 -12 14 -21c11 -15 22 -28 19 -34c-7 -12 -37 -10 -49 -1z" />
    <glyph glyph-name="udieresis" unicode="&#xfc;" horiz-adv-x="710" 
d="M185 741c39 -24 50 -76 46 -128c-5 -58 -25 -121 -39 -161c-25 -76 -69 -226 -78 -306c-1 -29 1 -54 13 -54c54 0 202 252 260 348l-1 -1c26 81 47 136 53 217c1 10 -1 23 -3 33c-1 7 -2 15 -2 15c2 26 19 35 64 35c63 0 80 -54 74 -114c-7 -73 -35 -170 -61 -258
c-24 -79 -47 -152 -50 -200c-3 -26 0 -78 22 -78c63 0 252 371 263 392l3 7h-1c6 13 10 22 25 22c13 0 20 -8 25 -19c-9 -16 -22 -40 -33 -63c-78 -157 -207 -420 -331 -420c-93 0 -123 54 -123 131v29c1 20 5 43 10 65c-2 -2 -3 -6 -5 -8c-70 -108 -147 -226 -255 -226
c-69 0 -93 51 -93 126c0 13 1 27 2 41c8 88 41 209 68 308c22 80 43 157 47 201c2 21 -2 35 -5 45v-1c-2 6 -2 10 -2 15c1 18 19 24 37 24c26 0 58 -10 70 -17zM307 1068c17 -25 24 -47 24 -65c0 -43 -38 -67 -74 -67c-31 0 -61 20 -61 77c0 42 23 88 59 88
c16 0 34 -9 52 -33zM489 1068c17 -25 24 -47 24 -65c0 -43 -38 -67 -74 -67c-31 0 -61 20 -61 77c0 42 23 88 59 88c16 0 34 -9 52 -33z" />
    <glyph glyph-name="yacute" unicode="&#xfd;" horiz-adv-x="658" 
d="M702 494l4 3c1 0 3 0 6 1c9 2 21 5 36 -9c-69 -142 -182 -340 -273 -399c-90 -438 -235 -906 -494 -875c-74 9 -123 80 -123 174c0 23 3 46 9 70c66 245 235 413 417 571c14 70 31 150 52 255l-13 -19c-85 -135 -178 -267 -280 -267c-69 0 -94 51 -94 126c0 13 1 27 2 41
c8 88 42 209 69 308c22 80 43 157 47 201c2 21 -2 35 -4 45c-1 5 -2 8 -2 14c1 18 18 24 36 24c26 0 58 -10 70 -17c38 -26 51 -77 47 -128c-4 -52 -20 -103 -33 -142l-6 -19c-25 -77 -70 -227 -79 -306c-1 -29 1 -54 13 -54c49 0 177 216 242 328v-1c5 8 11 16 15 24l-1 -1
c20 102 31 176 32 199c2 23 -2 40 -4 54c-2 8 -2 14 -2 18c2 18 18 23 39 24c88 0 121 -43 128 -98c-11 -136 -28 -268 -67 -468c74 60 155 211 211 323zM-87 -608c0 -35 14 -61 50 -61c31 4 61 28 87 63c78 103 141 302 185 444c8 24 13 48 20 68v-1l10 39
c-93 -73 -182 -169 -251 -274c-29 -48 -101 -194 -101 -278zM369 1102c33 27 114 -14 90 -83c-25 -64 -122 -196 -206 -204c-26 -2 -52 7 -72 36c-6 10 7 1 23 8c87 40 138 181 165 243z" />
    <glyph glyph-name="ydieresis" unicode="&#xff;" horiz-adv-x="658" 
d="M702 494l4 3c1 0 3 0 6 1c9 2 21 5 36 -9c-69 -142 -182 -340 -273 -399c-90 -438 -235 -906 -494 -875c-74 9 -123 80 -123 174c0 23 3 46 9 70c66 245 235 413 417 571c14 70 31 150 52 255l-13 -19c-85 -135 -178 -267 -280 -267c-69 0 -94 51 -94 126c0 13 1 27 2 41
c8 88 42 209 69 308c22 80 43 157 47 201c2 21 -2 35 -4 45c-1 5 -2 8 -2 14c1 18 18 24 36 24c26 0 58 -10 70 -17c38 -26 51 -77 47 -128c-4 -52 -20 -103 -33 -142l-6 -19c-25 -77 -70 -227 -79 -306c-1 -29 1 -54 13 -54c49 0 177 216 242 328v-1c5 8 11 16 15 24l-1 -1
c20 102 31 176 32 199c2 23 -2 40 -4 54c-2 8 -2 14 -2 18c2 18 18 23 39 24c88 0 121 -43 128 -98c-11 -136 -28 -268 -67 -468c74 60 155 211 211 323zM-87 -608c0 -35 14 -61 50 -61c31 4 61 28 87 63c78 103 141 302 185 444c8 24 13 48 20 68v-1l10 39
c-93 -73 -182 -169 -251 -274c-29 -48 -101 -194 -101 -278zM281 1068c17 -25 24 -47 24 -65c0 -43 -38 -67 -74 -67c-31 0 -61 20 -61 77c0 42 23 88 59 88c16 0 34 -9 52 -33zM463 1068c17 -25 24 -47 24 -65c0 -43 -38 -67 -74 -67c-31 0 -61 20 -61 77c0 42 23 88 59 88
c16 0 34 -9 52 -33z" />
    <glyph glyph-name="eth" unicode="&#xf0;" horiz-adv-x="716" 
d="M568 1229c8 15 9 28 11 31c3 8 10 4 16 -3c23 -23 32 -42 34 -63c2 -44 -47 -96 -69 -119c109 -118 156 -322 156 -457c0 -206 -82 -623 -372 -623c-194 0 -339 193 -339 375c0 137 73 339 237 339c119 0 232 -99 276 -204c11 79 20 160 20 240c0 59 -13 171 -51 255
l-35 -37c-22 -21 -46 -44 -62 -71c-8 -13 -10 -28 -11 -30c-3 -6 -11 -3 -16 4c-24 23 -34 44 -34 63c-3 44 48 97 69 119l33 34c-21 18 -45 29 -74 29c-15 0 -30 -4 -43 -9v1c-17 -6 -21 18 -21 29c15 24 40 36 68 36c46 0 87 -12 123 -32c8 7 15 15 23 23
c10 10 18 21 61 70zM473 381c0 89 -36 234 -148 234c-133 0 -201 -220 -201 -325c0 -86 42 -192 144 -192c129 0 205 174 205 283zM313 1102l8 -7l-7 7h-1z" />
    <glyph glyph-name="Eth" unicode="&#xd0;" horiz-adv-x="1395" 
d="M748 543c16 3 27 12 31 12c7 2 9 -5 8 -14c-2 -33 -10 -53 -25 -67c-23 -24 -68 -28 -103 -29c-33 -190 -64 -365 -78 -439v1c-25 -70 -68 -140 -166 -140c-22 0 -29 0 -34 1h1c-24 9 -45 18 -34 42c-2 8 3 16 6 21c7 10 18 30 28 52c36 117 64 303 86 470
c-29 1 -60 4 -90 -2c-15 -2 -27 -11 -30 -12c-7 -1 -9 6 -8 15c2 33 10 54 25 67c25 27 80 29 116 28l4 29l7 54c18 136 34 264 55 329c-65 -38 -154 -74 -223 -85c-79 -7 -144 27 -144 90c0 24 12 53 34 86c70 92 220 172 288 203c151 67 289 98 400 98
c335 0 487 -268 487 -599c0 -122 -31 -285 -68 -411c-113 -310 -376 -644 -689 -764c-87 -27 -189 -46 -276 -46c-117 0 -233 33 -325 97c-104 82 -177 207 -177 353c0 48 10 108 25 161c64 167 250 306 382 306c85 0 149 -50 149 -170c0 -26 -2 -51 -7 -75v1
c-14 -25 -32 -21 -43 -10c1 14 2 28 2 40c0 97 -36 138 -86 138c-86 0 -208 -115 -252 -248c-19 -64 -30 -127 -30 -179c0 -108 34 -200 102 -264c59 -60 143 -84 230 -84s180 26 255 69c196 118 374 412 465 696c44 143 73 305 73 435c0 256 -94 451 -324 451
c-71 0 -166 -22 -268 -66c-108 -45 -197 -102 -237 -146c-23 -26 -35 -50 -35 -67c0 -20 21 -31 61 -22c54 16 129 58 187 92l41 24c29 16 54 30 68 35c28 11 55 17 72 17c58 0 68 -52 64 -123l-1 -1h1c-18 -117 -45 -285 -73 -452c13 0 32 1 73 2z" />
    <glyph glyph-name="Idieresis" unicode="&#xcf;" horiz-adv-x="1053" 
d="M1090 1085c-23 -159 -70 -340 -123 -537c-87 -345 -128 -506 -128 -643c0 -158 52 -288 241 -280c28 -22 20 -37 -9 -56c-29 -4 -57 -6 -84 -6c-248 0 -316 171 -316 371c0 127 31 275 91 526c57 219 143 553 143 708c0 59 -14 92 -44 84c-88 -28 -196 -92 -294 -171
c-77 -60 -454 -386 -454 -577c0 -16 3 -33 10 -47l3 -8c5 -13 14 -34 0 -45c-19 -14 -71 31 -81 47c-19 37 -30 82 -30 122c0 182 163 402 366 562c145 114 352 222 505 222c117 0 205 -65 205 -240c0 -10 0 -21 -1 -32zM842 1549c17 -25 24 -47 24 -65
c0 -43 -38 -67 -74 -67c-31 0 -61 20 -61 77c0 42 23 88 59 88c16 0 34 -9 52 -33zM1024 1549c17 -25 24 -47 24 -65c0 -43 -38 -67 -74 -67c-31 0 -61 20 -61 77c0 42 23 88 59 88c16 0 34 -9 52 -33z" />
    <glyph glyph-name="Agrave" unicode="&#xc0;" horiz-adv-x="1680" 
d="M344 646c117 0 195 -77 195 -179c0 -27 -5 -56 -17 -89c160 123 383 166 531 123c163 261 305 563 377 845v-1c3 8 10 17 18 19c8 11 22 16 41 16c120 0 148 -84 148 -177c0 -13 0 -35 -1 -50c-20 -183 -88 -467 -151 -733c106 2 208 62 297 182c23 17 36 5 40 -17
c-108 -163 -222 -208 -351 -220c-17 -94 -26 -205 -26 -312c0 -249 57 -493 251 -493c39 0 89 12 142 36c18 -6 29 -14 29 -24c0 -9 -8 -24 -18 -36c-81 -35 -152 -49 -219 -49c-277 0 -375 306 -375 623c0 86 8 181 22 267c-68 12 -129 28 -200 48
c-117 -182 -257 -357 -398 -480c-93 -80 -196 -155 -331 -155c-198 0 -380 156 -380 400c0 208 141 456 376 456zM1013 436l-2 5c-48 12 -91 16 -130 16c-160 0 -302 -83 -421 -218c-8 -5 -20 -10 -28 -10c-16 0 -31 9 -30 27c49 55 95 135 82 215c-21 57 -63 78 -95 81
c-100 4 -215 -168 -244 -339c-26 -140 37 -366 222 -366c41 0 81 12 126 33c155 83 346 295 520 556zM1419 1075l-6 2c-72 -176 -176 -388 -301 -596c60 -18 115 -35 175 -48c60 269 105 487 132 642zM1541 1718c17 -62 42 -203 123 -243c14 -7 30 2 21 -8
c-26 -29 -52 -38 -78 -36c-82 8 -157 140 -170 204c-12 69 75 110 104 83z" />
    <glyph glyph-name="Aacute" unicode="&#xc1;" horiz-adv-x="1680" 
d="M344 646c117 0 195 -77 195 -179c0 -27 -5 -56 -17 -89c160 123 383 166 531 123c163 261 305 563 377 845v-1c3 8 10 17 18 19c8 11 22 16 41 16c120 0 148 -84 148 -177c0 -13 0 -35 -1 -50c-20 -183 -88 -467 -151 -733c106 2 208 62 297 182c23 17 36 5 40 -17
c-108 -163 -222 -208 -351 -220c-17 -94 -26 -205 -26 -312c0 -249 57 -493 251 -493c39 0 89 12 142 36c18 -6 29 -14 29 -24c0 -9 -8 -24 -18 -36c-81 -35 -152 -49 -219 -49c-277 0 -375 306 -375 623c0 86 8 181 22 267c-68 12 -129 28 -200 48
c-117 -182 -257 -357 -398 -480c-93 -80 -196 -155 -331 -155c-198 0 -380 156 -380 400c0 208 141 456 376 456zM1013 436l-2 5c-48 12 -91 16 -130 16c-160 0 -302 -83 -421 -218c-8 -5 -20 -10 -28 -10c-16 0 -31 9 -30 27c49 55 95 135 82 215c-21 57 -63 78 -95 81
c-100 4 -215 -168 -244 -339c-26 -140 37 -366 222 -366c41 0 81 12 126 33c155 83 346 295 520 556zM1419 1075l-6 2c-72 -176 -176 -388 -301 -596c60 -18 115 -35 175 -48c60 269 105 487 132 642zM1627 1707c33 27 114 -14 90 -83c-25 -64 -122 -196 -206 -204
c-26 -2 -52 7 -72 36c-6 10 7 1 23 8c87 40 138 181 165 243z" />
    <glyph glyph-name="Acircumflex" unicode="&#xc2;" horiz-adv-x="1680" 
d="M344 646c117 0 195 -77 195 -179c0 -27 -5 -56 -17 -89c160 123 383 166 531 123c163 261 305 563 377 845v-1c3 8 10 17 18 19c8 11 22 16 41 16c120 0 148 -84 148 -177c0 -13 0 -35 -1 -50c-20 -183 -88 -467 -151 -733c106 2 208 62 297 182c23 17 36 5 40 -17
c-108 -163 -222 -208 -351 -220c-17 -94 -26 -205 -26 -312c0 -249 57 -493 251 -493c39 0 89 12 142 36c18 -6 29 -14 29 -24c0 -9 -8 -24 -18 -36c-81 -35 -152 -49 -219 -49c-277 0 -375 306 -375 623c0 86 8 181 22 267c-68 12 -129 28 -200 48
c-117 -182 -257 -357 -398 -480c-93 -80 -196 -155 -331 -155c-198 0 -380 156 -380 400c0 208 141 456 376 456zM1013 436l-2 5c-48 12 -91 16 -130 16c-160 0 -302 -83 -421 -218c-8 -5 -20 -10 -28 -10c-16 0 -31 9 -30 27c49 55 95 135 82 215c-21 57 -63 78 -95 81
c-100 4 -215 -168 -244 -339c-26 -140 37 -366 222 -366c41 0 81 12 126 33c155 83 346 295 520 556zM1419 1075l-6 2c-72 -176 -176 -388 -301 -596c60 -18 115 -35 175 -48c60 269 105 487 132 642zM1728 1407h1c-34 17 -82 95 -119 156l-17 29c-18 -17 -42 -45 -70 -74
c-66 -71 -145 -159 -188 -164c-15 -1 -45 12 -45 31c-1 7 23 26 41 42c10 9 17 17 20 20l10 10v-1c41 43 155 166 203 196c3 5 9 6 18 7c13 2 37 -6 44 -20c38 -44 106 -154 118 -176c1 -3 7 -12 14 -21c11 -15 22 -28 19 -34c-7 -12 -37 -10 -49 -1z" />
    <glyph glyph-name="Atilde" unicode="&#xc3;" horiz-adv-x="1680" 
d="M344 646c117 0 195 -77 195 -179c0 -27 -5 -56 -17 -89c160 123 383 166 531 123c163 261 305 563 377 845v-1c3 8 10 17 18 19c8 11 22 16 41 16c120 0 148 -84 148 -177c0 -13 0 -35 -1 -50c-20 -183 -88 -467 -151 -733c106 2 208 62 297 182c23 17 36 5 40 -17
c-108 -163 -222 -208 -351 -220c-17 -94 -26 -205 -26 -312c0 -249 57 -493 251 -493c39 0 89 12 142 36c18 -6 29 -14 29 -24c0 -9 -8 -24 -18 -36c-81 -35 -152 -49 -219 -49c-277 0 -375 306 -375 623c0 86 8 181 22 267c-68 12 -129 28 -200 48
c-117 -182 -257 -357 -398 -480c-93 -80 -196 -155 -331 -155c-198 0 -380 156 -380 400c0 208 141 456 376 456zM1013 436l-2 5c-48 12 -91 16 -130 16c-160 0 -302 -83 -421 -218c-8 -5 -20 -10 -28 -10c-16 0 -31 9 -30 27c49 55 95 135 82 215c-21 57 -63 78 -95 81
c-100 4 -215 -168 -244 -339c-26 -140 37 -366 222 -366c41 0 81 12 126 33c155 83 346 295 520 556zM1419 1075l-6 2c-72 -176 -176 -388 -301 -596c60 -18 115 -35 175 -48c60 269 105 487 132 642zM1298 1546c-2 16 0 44 10 28c110 -123 442 141 443 -134
c-2 -16 -7 -44 -15 -26c-115 157 -405 -112 -438 132z" />
    <glyph glyph-name="Adieresis" unicode="&#xc4;" horiz-adv-x="1680" 
d="M344 646c117 0 195 -77 195 -179c0 -27 -5 -56 -17 -89c160 123 383 166 531 123c163 261 305 563 377 845v-1c3 8 10 17 18 19c8 11 22 16 41 16c120 0 148 -84 148 -177c0 -13 0 -35 -1 -50c-20 -183 -88 -467 -151 -733c106 2 208 62 297 182c23 17 36 5 40 -17
c-108 -163 -222 -208 -351 -220c-17 -94 -26 -205 -26 -312c0 -249 57 -493 251 -493c39 0 89 12 142 36c18 -6 29 -14 29 -24c0 -9 -8 -24 -18 -36c-81 -35 -152 -49 -219 -49c-277 0 -375 306 -375 623c0 86 8 181 22 267c-68 12 -129 28 -200 48
c-117 -182 -257 -357 -398 -480c-93 -80 -196 -155 -331 -155c-198 0 -380 156 -380 400c0 208 141 456 376 456zM1013 436l-2 5c-48 12 -91 16 -130 16c-160 0 -302 -83 -421 -218c-8 -5 -20 -10 -28 -10c-16 0 -31 9 -30 27c49 55 95 135 82 215c-21 57 -63 78 -95 81
c-100 4 -215 -168 -244 -339c-26 -140 37 -366 222 -366c41 0 81 12 126 33c155 83 346 295 520 556zM1419 1075l-6 2c-72 -176 -176 -388 -301 -596c60 -18 115 -35 175 -48c60 269 105 487 132 642zM1513 1564c17 -25 24 -47 24 -65c0 -43 -38 -67 -74 -67
c-31 0 -61 20 -61 77c0 42 23 88 59 88c16 0 34 -9 52 -33zM1695 1564c17 -25 24 -47 24 -65c0 -43 -38 -67 -74 -67c-31 0 -61 20 -61 77c0 42 23 88 59 88c16 0 34 -9 52 -33z" />
    <glyph glyph-name="Aring" unicode="&#xc5;" horiz-adv-x="1680" 
d="M344 646c117 0 195 -77 195 -179c0 -27 -5 -56 -17 -89c160 123 383 166 531 123c163 261 305 563 377 845v-1c3 8 10 17 18 19c8 11 22 16 41 16c120 0 148 -84 148 -177c0 -13 0 -35 -1 -50c-20 -183 -88 -467 -151 -733c106 2 208 62 297 182c23 17 36 5 40 -17
c-108 -163 -222 -208 -351 -220c-17 -94 -26 -205 -26 -312c0 -249 57 -493 251 -493c39 0 89 12 142 36c18 -6 29 -14 29 -24c0 -9 -8 -24 -18 -36c-81 -35 -152 -49 -219 -49c-277 0 -375 306 -375 623c0 86 8 181 22 267c-68 12 -129 28 -200 48
c-117 -182 -257 -357 -398 -480c-93 -80 -196 -155 -331 -155c-198 0 -380 156 -380 400c0 208 141 456 376 456zM1013 436l-2 5c-48 12 -91 16 -130 16c-160 0 -302 -83 -421 -218c-8 -5 -20 -10 -28 -10c-16 0 -31 9 -30 27c49 55 95 135 82 215c-21 57 -63 78 -95 81
c-100 4 -215 -168 -244 -339c-26 -140 37 -366 222 -366c41 0 81 12 126 33c155 83 346 295 520 556zM1419 1075l-6 2c-72 -176 -176 -388 -301 -596c60 -18 115 -35 175 -48c60 269 105 487 132 642zM1608 1684c104 0 104 -68 100 -121c-5 -56 -47 -145 -146 -145
c-90 0 -103 77 -99 126c4 52 56 140 145 140zM1609 1647c-37 0 -59 -104 -61 -125c-2 -19 -4 -68 24 -68c34 0 60 70 65 125c3 39 -4 68 -28 68z" />
    <glyph glyph-name="Ccedilla" unicode="&#xc7;" horiz-adv-x="1378" 
d="M1452 456l-31 -58c-99 -170 -229 -394 -354 -544c-144 -169 -372 -272 -555 -249c-394 50 -312 580 -206 907c-157 4 -239 161 -232 335c12 131 85 337 195 358c30 6 42 -20 41 -36c1 -10 -4 -15 -9 -15c-6 -1 -11 0 -16 1h-8c-64 -13 -117 -152 -127 -250
c-3 -146 65 -295 205 -286c120 301 399 724 766 724c73 0 139 -31 185 -98c58 -87 87 -212 82 -320c-5 -116 -52 -210 -148 -230c-77 -12 -175 35 -176 150c-89 -102 -251 -219 -436 -288c-49 -136 -90 -289 -102 -432c-2 -22 -3 -45 -4 -67c-19 -119 22 -259 121 -310
c119 -63 272 31 372 130c131 145 261 366 352 521h-1l41 71c20 13 34 9 45 -14zM1122 947c-4 -13 -6 -27 -8 -40c-7 -90 40 -172 113 -163c40 13 66 69 69 141c10 168 -69 392 -206 373c-153 -34 -316 -314 -423 -583c157 53 327 143 414 293c30 32 50 4 41 -21zM501 -312
c-23 -89 -40 -243 -165 -243c-17 0 -29 2 -23 -8c20 -29 46 -38 72 -36c84 8 191 112 215 176c24 69 -66 138 -99 111z" />
    <glyph glyph-name="Egrave" unicode="&#xc8;" horiz-adv-x="1462" 
d="M544 -503c-206 36 -288 180 -288 345c0 221 146 485 342 595c-78 33 -130 90 -159 146c-141 14 -254 112 -284 275c-4 20 -6 47 -6 72c0 10 0 25 1 35c8 113 48 243 130 274c33 10 53 -13 54 -30c0 -7 -1 -13 -8 -16c-5 -2 -13 -2 -20 -2c-4 0 -7 0 -9 -1
c-48 -19 -74 -104 -78 -186c-2 -24 -1 -55 3 -79c23 -108 94 -224 188 -246c-1 17 -2 39 -1 58c15 262 324 588 587 630c9 1 24 1 32 1c242 0 335 -240 333 -447c-6 -104 -54 -215 -139 -236c-78 -11 -180 36 -186 151c-65 -78 -194 -176 -324 -245c16 -28 54 -43 85 -49
c12 -2 29 -4 40 -4c20 0 37 2 55 5c2 0 3 1 5 1s3 1 5 1c25 3 48 5 67 1c21 -6 30 -19 28 -34c0 -16 -12 -33 -32 -43c-161 -80 -408 -393 -408 -623c0 -81 36 -156 116 -201c29 -14 62 -22 91 -22c147 0 302 162 385 276c99 141 214 332 346 571c16 8 28 11 35 6
c4 -3 6 -11 5 -20c-126 -239 -244 -433 -338 -574c-134 -193 -358 -391 -585 -391c-22 0 -45 2 -68 6zM1094 945c-3 -16 -5 -29 -5 -42c-5 -89 48 -173 117 -165c36 15 62 71 63 142c3 143 -35 338 -164 338c-33 0 -76 -16 -123 -45c-157 -106 -327 -312 -335 -477
c-1 -8 -1 -21 0 -30c152 52 319 146 404 302c8 10 17 13 24 13c16 0 24 -20 19 -36zM1023 1687c17 -62 42 -203 123 -243c14 -7 30 2 21 -8c-26 -29 -52 -38 -78 -36c-82 8 -157 140 -170 204c-12 69 75 110 104 83z" />
    <glyph glyph-name="Eacute" unicode="&#xc9;" horiz-adv-x="1462" 
d="M544 -503c-206 36 -288 180 -288 345c0 221 146 485 342 595c-78 33 -130 90 -159 146c-141 14 -254 112 -284 275c-4 20 -6 47 -6 72c0 10 0 25 1 35c8 113 48 243 130 274c33 10 53 -13 54 -30c0 -7 -1 -13 -8 -16c-5 -2 -13 -2 -20 -2c-4 0 -7 0 -9 -1
c-48 -19 -74 -104 -78 -186c-2 -24 -1 -55 3 -79c23 -108 94 -224 188 -246c-1 17 -2 39 -1 58c15 262 324 588 587 630c9 1 24 1 32 1c242 0 335 -240 333 -447c-6 -104 -54 -215 -139 -236c-78 -11 -180 36 -186 151c-65 -78 -194 -176 -324 -245c16 -28 54 -43 85 -49
c12 -2 29 -4 40 -4c20 0 37 2 55 5c2 0 3 1 5 1s3 1 5 1c25 3 48 5 67 1c21 -6 30 -19 28 -34c0 -16 -12 -33 -32 -43c-161 -80 -408 -393 -408 -623c0 -81 36 -156 116 -201c29 -14 62 -22 91 -22c147 0 302 162 385 276c99 141 214 332 346 571c16 8 28 11 35 6
c4 -3 6 -11 5 -20c-126 -239 -244 -433 -338 -574c-134 -193 -358 -391 -585 -391c-22 0 -45 2 -68 6zM1094 945c-3 -16 -5 -29 -5 -42c-5 -89 48 -173 117 -165c36 15 62 71 63 142c3 143 -35 338 -164 338c-33 0 -76 -16 -123 -45c-157 -106 -327 -312 -335 -477
c-1 -8 -1 -21 0 -30c152 52 319 146 404 302c8 10 17 13 24 13c16 0 24 -20 19 -36zM1134 1698c33 27 114 -14 90 -83c-25 -64 -122 -196 -206 -204c-26 -2 -52 7 -72 36c-6 10 7 1 23 8c87 40 138 181 165 243z" />
    <glyph glyph-name="Ecircumflex" unicode="&#xca;" horiz-adv-x="1462" 
d="M544 -503c-206 36 -288 180 -288 345c0 221 146 485 342 595c-78 33 -130 90 -159 146c-141 14 -254 112 -284 275c-4 20 -6 47 -6 72c0 10 0 25 1 35c8 113 48 243 130 274c33 10 53 -13 54 -30c0 -7 -1 -13 -8 -16c-5 -2 -13 -2 -20 -2c-4 0 -7 0 -9 -1
c-48 -19 -74 -104 -78 -186c-2 -24 -1 -55 3 -79c23 -108 94 -224 188 -246c-1 17 -2 39 -1 58c15 262 324 588 587 630c9 1 24 1 32 1c242 0 335 -240 333 -447c-6 -104 -54 -215 -139 -236c-78 -11 -180 36 -186 151c-65 -78 -194 -176 -324 -245c16 -28 54 -43 85 -49
c12 -2 29 -4 40 -4c20 0 37 2 55 5c2 0 3 1 5 1s3 1 5 1c25 3 48 5 67 1c21 -6 30 -19 28 -34c0 -16 -12 -33 -32 -43c-161 -80 -408 -393 -408 -623c0 -81 36 -156 116 -201c29 -14 62 -22 91 -22c147 0 302 162 385 276c99 141 214 332 346 571c16 8 28 11 35 6
c4 -3 6 -11 5 -20c-126 -239 -244 -433 -338 -574c-134 -193 -358 -391 -585 -391c-22 0 -45 2 -68 6zM1094 945c-3 -16 -5 -29 -5 -42c-5 -89 48 -173 117 -165c36 15 62 71 63 142c3 143 -35 338 -164 338c-33 0 -76 -16 -123 -45c-157 -106 -327 -312 -335 -477
c-1 -8 -1 -21 0 -30c152 52 319 146 404 302c8 10 17 13 24 13c16 0 24 -20 19 -36zM1229 1417h1c-34 17 -82 95 -119 156l-17 29c-18 -17 -42 -45 -70 -74c-66 -71 -145 -159 -188 -164c-15 -1 -45 12 -45 31c-1 7 23 26 41 42c10 9 17 17 20 20l10 10v-1
c41 43 155 166 203 196c3 5 9 6 18 7c13 2 37 -6 44 -20c38 -44 106 -154 118 -176c1 -3 7 -12 14 -21c11 -15 22 -28 19 -34c-7 -12 -37 -10 -49 -1z" />
    <glyph glyph-name="Edieresis" unicode="&#xcb;" horiz-adv-x="1462" 
d="M544 -503c-206 36 -288 180 -288 345c0 221 146 485 342 595c-78 33 -130 90 -159 146c-141 14 -254 112 -284 275c-4 20 -6 47 -6 72c0 10 0 25 1 35c8 113 48 243 130 274c33 10 53 -13 54 -30c0 -7 -1 -13 -8 -16c-5 -2 -13 -2 -20 -2c-4 0 -7 0 -9 -1
c-48 -19 -74 -104 -78 -186c-2 -24 -1 -55 3 -79c23 -108 94 -224 188 -246c-1 17 -2 39 -1 58c15 262 324 588 587 630c9 1 24 1 32 1c242 0 335 -240 333 -447c-6 -104 -54 -215 -139 -236c-78 -11 -180 36 -186 151c-65 -78 -194 -176 -324 -245c16 -28 54 -43 85 -49
c12 -2 29 -4 40 -4c20 0 37 2 55 5c2 0 3 1 5 1s3 1 5 1c25 3 48 5 67 1c21 -6 30 -19 28 -34c0 -16 -12 -33 -32 -43c-161 -80 -408 -393 -408 -623c0 -81 36 -156 116 -201c29 -14 62 -22 91 -22c147 0 302 162 385 276c99 141 214 332 346 571c16 8 28 11 35 6
c4 -3 6 -11 5 -20c-126 -239 -244 -433 -338 -574c-134 -193 -358 -391 -585 -391c-22 0 -45 2 -68 6zM1094 945c-3 -16 -5 -29 -5 -42c-5 -89 48 -173 117 -165c36 15 62 71 63 142c3 143 -35 338 -164 338c-33 0 -76 -16 -123 -45c-157 -106 -327 -312 -335 -477
c-1 -8 -1 -21 0 -30c152 52 319 146 404 302c8 10 17 13 24 13c16 0 24 -20 19 -36zM1025 1575c17 -25 24 -47 24 -65c0 -43 -38 -67 -74 -67c-31 0 -61 20 -61 77c0 42 23 88 59 88c16 0 34 -9 52 -33zM1207 1575c17 -25 24 -47 24 -65c0 -43 -38 -67 -74 -67
c-31 0 -61 20 -61 77c0 42 23 88 59 88c16 0 34 -9 52 -33z" />
    <glyph glyph-name="Igrave" unicode="&#xcc;" horiz-adv-x="1053" 
d="M1090 1085c-23 -159 -70 -340 -123 -537c-87 -345 -128 -506 -128 -643c0 -158 52 -288 241 -280c28 -22 20 -37 -9 -56c-29 -4 -57 -6 -84 -6c-248 0 -316 171 -316 371c0 127 31 275 91 526c57 219 143 553 143 708c0 59 -14 92 -44 84c-88 -28 -196 -92 -294 -171
c-77 -60 -454 -386 -454 -577c0 -16 3 -33 10 -47l3 -8c5 -13 14 -34 0 -45c-19 -14 -71 31 -81 47c-19 37 -30 82 -30 122c0 182 163 402 366 562c145 114 352 222 505 222c117 0 205 -65 205 -240c0 -10 0 -21 -1 -32zM917 1677c17 -62 42 -203 123 -243c14 -7 30 2 21 -8
c-26 -29 -52 -38 -78 -36c-82 8 -157 140 -170 204c-12 69 75 110 104 83z" />
    <glyph glyph-name="Iacute" unicode="&#xcd;" horiz-adv-x="1053" 
d="M1090 1085c-23 -159 -70 -340 -123 -537c-87 -345 -128 -506 -128 -643c0 -158 52 -288 241 -280c28 -22 20 -37 -9 -56c-29 -4 -57 -6 -84 -6c-248 0 -316 171 -316 371c0 127 31 275 91 526c57 219 143 553 143 708c0 59 -14 92 -44 84c-88 -28 -196 -92 -294 -171
c-77 -60 -454 -386 -454 -577c0 -16 3 -33 10 -47l3 -8c5 -13 14 -34 0 -45c-19 -14 -71 31 -81 47c-19 37 -30 82 -30 122c0 182 163 402 366 562c145 114 352 222 505 222c117 0 205 -65 205 -240c0 -10 0 -21 -1 -32zM1017 1703c33 27 114 -14 90 -83
c-25 -64 -122 -196 -206 -204c-26 -2 -52 7 -72 36c-6 10 7 1 23 8c87 40 138 181 165 243z" />
    <glyph glyph-name="Icircumflex" unicode="&#xce;" horiz-adv-x="1053" 
d="M1090 1085c-23 -159 -70 -340 -123 -537c-87 -345 -128 -506 -128 -643c0 -158 52 -288 241 -280c28 -22 20 -37 -9 -56c-29 -4 -57 -6 -84 -6c-248 0 -316 171 -316 371c0 127 31 275 91 526c57 219 143 553 143 708c0 59 -14 92 -44 84c-88 -28 -196 -92 -294 -171
c-77 -60 -454 -386 -454 -577c0 -16 3 -33 10 -47l3 -8c5 -13 14 -34 0 -45c-19 -14 -71 31 -81 47c-19 37 -30 82 -30 122c0 182 163 402 366 562c145 114 352 222 505 222c117 0 205 -65 205 -240c0 -10 0 -21 -1 -32zM1088 1428h1c-34 17 -82 95 -119 156l-17 29
c-18 -17 -42 -45 -70 -74c-66 -71 -145 -159 -188 -164c-15 -1 -45 12 -45 31c-1 7 23 26 41 42c10 9 17 17 20 20l10 10v-1c41 43 155 166 203 196c3 5 9 6 18 7c13 2 37 -6 44 -20c38 -44 106 -154 118 -176c1 -3 7 -12 14 -21c11 -15 22 -28 19 -34
c-7 -12 -37 -10 -49 -1z" />
    <glyph glyph-name="Ntilde" unicode="&#xd1;" horiz-adv-x="1830" 
d="M1333 1050c16 -24 26 -86 33 -131l3 -28h1c44 -245 54 -500 107 -751c113 280 191 568 320 855c65 135 164 265 294 275c46 -1 109 -16 161 -50c10 -22 8 -35 -21 -43c-27 13 -55 20 -80 20c-15 0 -31 -3 -47 -8c-71 -26 -130 -112 -173 -200
c-118 -238 -260 -751 -350 -921c-20 -40 -53 -79 -100 -79c-16 0 -32 3 -49 11c-8 5 -13 12 -14 18c-2 3 -6 10 -6 13c-67 219 -69 479 -106 731c-13 -45 -28 -93 -44 -139c-11 -34 -23 -70 -34 -106l-22 -68c-28 -96 -65 -208 -101 -303c-103 -277 -258 -558 -511 -689
c-65 -33 -145 -52 -220 -52c-48 0 -94 7 -136 20c-199 59 -295 234 -277 443c3 31 9 66 22 109v-1c53 204 217 385 414 404c191 11 263 -161 248 -334c-2 -18 -5 -42 -8 -60c-1 -3 -1 -10 -2 -12c-6 -33 -22 -94 -54 -82c-22 7 -16 25 -10 41l6 14v-1c5 18 9 47 13 85
c9 109 -16 229 -103 234c-93 23 -272 -144 -354 -322c-17 -45 -32 -103 -36 -147c-13 -146 51 -277 157 -301l-1 1h28c321 0 531 459 634 727c65 175 120 365 166 530l13 45c5 17 11 35 15 52c21 66 34 120 38 148c3 23 -1 42 -5 54c-4 13 -5 21 -5 23c2 19 24 26 50 25
c69 3 121 -12 146 -50zM1446 1427c-2 16 0 44 10 28c110 -123 442 141 443 -134c-2 -16 -7 -44 -15 -26c-115 157 -405 -112 -438 132z" />
    <glyph glyph-name="Ograve" unicode="&#xd2;" horiz-adv-x="1364" 
d="M523 660l1 -5c-1 -9 -2 -18 -5 -29c-20 -95 -54 -264 -69 -431c24 2 50 6 75 8h13c4 0 6 0 10 1c-9 83 -20 208 -20 350c0 54 1 114 7 171c29 286 136 581 434 581c258 0 368 -234 368 -533c0 -35 -2 -77 -5 -114c-50 -507 -376 -1136 -811 -1136
c-230 0 -356 189 -391 420c-47 -35 -84 -76 -88 -110c-1 -3 1 -13 3 -20c1 -5 1 -13 1 -16c0 -7 -6 -14 -15 -14c-15 0 -39 30 -43 39c-3 16 -6 41 -6 55c8 62 60 129 136 183c-3 27 -3 52 -3 81c0 57 3 111 8 163c11 128 33 246 59 327v-1c45 58 117 86 186 86
c57 0 114 -21 155 -56zM681 110c-42 10 -78 13 -106 13c-49 0 -89 -11 -129 -23c-2 -206 47 -389 233 -389c305 0 550 512 588 942c3 36 4 73 4 108c0 263 -90 476 -304 476c-150 0 -218 -225 -241 -461c-6 -63 -9 -133 -9 -195c0 -130 14 -284 28 -377l11 -61
c4 -14 7 -26 6 -34s-7 -12 -14 -12c-9 0 -24 3 -42 8c-4 0 -9 1 -13 2zM1010 1629c17 -62 42 -203 123 -243c14 -7 30 2 21 -8c-26 -29 -52 -38 -78 -36c-82 8 -157 140 -170 204c-12 69 75 110 104 83z" />
    <glyph glyph-name="Oacute" unicode="&#xd3;" horiz-adv-x="1364" 
d="M523 660l1 -5c-1 -9 -2 -18 -5 -29c-20 -95 -54 -264 -69 -431c24 2 50 6 75 8h13c4 0 6 0 10 1c-9 83 -20 208 -20 350c0 54 1 114 7 171c29 286 136 581 434 581c258 0 368 -234 368 -533c0 -35 -2 -77 -5 -114c-50 -507 -376 -1136 -811 -1136
c-230 0 -356 189 -391 420c-47 -35 -84 -76 -88 -110c-1 -3 1 -13 3 -20c1 -5 1 -13 1 -16c0 -7 -6 -14 -15 -14c-15 0 -39 30 -43 39c-3 16 -6 41 -6 55c8 62 60 129 136 183c-3 27 -3 52 -3 81c0 57 3 111 8 163c11 128 33 246 59 327v-1c45 58 117 86 186 86
c57 0 114 -21 155 -56zM681 110c-42 10 -78 13 -106 13c-49 0 -89 -11 -129 -23c-2 -206 47 -389 233 -389c305 0 550 512 588 942c3 36 4 73 4 108c0 263 -90 476 -304 476c-150 0 -218 -225 -241 -461c-6 -63 -9 -133 -9 -195c0 -130 14 -284 28 -377l11 -61
c4 -14 7 -26 6 -34s-7 -12 -14 -12c-9 0 -24 3 -42 8c-4 0 -9 1 -13 2zM1090 1655c33 27 114 -14 90 -83c-25 -64 -122 -196 -206 -204c-26 -2 -52 7 -72 36c-6 10 7 1 23 8c87 40 138 181 165 243z" />
    <glyph glyph-name="Ocircumflex" unicode="&#xd4;" horiz-adv-x="1364" 
d="M523 660l1 -5c-1 -9 -2 -18 -5 -29c-20 -95 -54 -264 -69 -431c24 2 50 6 75 8h13c4 0 6 0 10 1c-9 83 -20 208 -20 350c0 54 1 114 7 171c29 286 136 581 434 581c258 0 368 -234 368 -533c0 -35 -2 -77 -5 -114c-50 -507 -376 -1136 -811 -1136
c-230 0 -356 189 -391 420c-47 -35 -84 -76 -88 -110c-1 -3 1 -13 3 -20c1 -5 1 -13 1 -16c0 -7 -6 -14 -15 -14c-15 0 -39 30 -43 39c-3 16 -6 41 -6 55c8 62 60 129 136 183c-3 27 -3 52 -3 81c0 57 3 111 8 163c11 128 33 246 59 327v-1c45 58 117 86 186 86
c57 0 114 -21 155 -56zM681 110c-42 10 -78 13 -106 13c-49 0 -89 -11 -129 -23c-2 -206 47 -389 233 -389c305 0 550 512 588 942c3 36 4 73 4 108c0 263 -90 476 -304 476c-150 0 -218 -225 -241 -461c-6 -63 -9 -133 -9 -195c0 -130 14 -284 28 -377l11 -61
c4 -14 7 -26 6 -34s-7 -12 -14 -12c-9 0 -24 3 -42 8c-4 0 -9 1 -13 2zM1269 1381h1c-34 17 -82 95 -119 156l-17 29c-18 -17 -42 -45 -70 -74c-66 -71 -145 -159 -188 -164c-15 -1 -45 12 -45 31c-1 7 23 26 41 42c10 9 17 17 20 20l10 10v-1c41 43 155 166 203 196
c3 5 9 6 18 7c13 2 37 -6 44 -20c38 -44 106 -154 118 -176c1 -3 7 -12 14 -21c11 -15 22 -28 19 -34c-7 -12 -37 -10 -49 -1z" />
    <glyph glyph-name="Otilde" unicode="&#xd5;" horiz-adv-x="1364" 
d="M523 660l1 -5c-1 -9 -2 -18 -5 -29c-20 -95 -54 -264 -69 -431c24 2 50 6 75 8h13c4 0 6 0 10 1c-9 83 -20 208 -20 350c0 54 1 114 7 171c29 286 136 581 434 581c258 0 368 -234 368 -533c0 -35 -2 -77 -5 -114c-50 -507 -376 -1136 -811 -1136
c-230 0 -356 189 -391 420c-47 -35 -84 -76 -88 -110c-1 -3 1 -13 3 -20c1 -5 1 -13 1 -16c0 -7 -6 -14 -15 -14c-15 0 -39 30 -43 39c-3 16 -6 41 -6 55c8 62 60 129 136 183c-3 27 -3 52 -3 81c0 57 3 111 8 163c11 128 33 246 59 327v-1c45 58 117 86 186 86
c57 0 114 -21 155 -56zM681 110c-42 10 -78 13 -106 13c-49 0 -89 -11 -129 -23c-2 -206 47 -389 233 -389c305 0 550 512 588 942c3 36 4 73 4 108c0 263 -90 476 -304 476c-150 0 -218 -225 -241 -461c-6 -63 -9 -133 -9 -195c0 -130 14 -284 28 -377l11 -61
c4 -14 7 -26 6 -34s-7 -12 -14 -12c-9 0 -24 3 -42 8c-4 0 -9 1 -13 2zM788 1484c-2 16 0 44 10 28c110 -123 442 141 443 -134c-2 -16 -7 -44 -15 -26c-115 157 -405 -112 -438 132z" />
    <glyph glyph-name="Odieresis" unicode="&#xd6;" horiz-adv-x="1364" 
d="M523 660l1 -5c-1 -9 -2 -18 -5 -29c-20 -95 -54 -264 -69 -431c24 2 50 6 75 8h13c4 0 6 0 10 1c-9 83 -20 208 -20 350c0 54 1 114 7 171c29 286 136 581 434 581c258 0 368 -234 368 -533c0 -35 -2 -77 -5 -114c-50 -507 -376 -1136 -811 -1136
c-230 0 -356 189 -391 420c-47 -35 -84 -76 -88 -110c-1 -3 1 -13 3 -20c1 -5 1 -13 1 -16c0 -7 -6 -14 -15 -14c-15 0 -39 30 -43 39c-3 16 -6 41 -6 55c8 62 60 129 136 183c-3 27 -3 52 -3 81c0 57 3 111 8 163c11 128 33 246 59 327v-1c45 58 117 86 186 86
c57 0 114 -21 155 -56zM681 110c-42 10 -78 13 -106 13c-49 0 -89 -11 -129 -23c-2 -206 47 -389 233 -389c305 0 550 512 588 942c3 36 4 73 4 108c0 263 -90 476 -304 476c-150 0 -218 -225 -241 -461c-6 -63 -9 -133 -9 -195c0 -130 14 -284 28 -377l11 -61
c4 -14 7 -26 6 -34s-7 -12 -14 -12c-9 0 -24 3 -42 8c-4 0 -9 1 -13 2zM1048 1502c17 -25 24 -47 24 -65c0 -43 -38 -67 -74 -67c-31 0 -61 20 -61 77c0 42 23 88 59 88c16 0 34 -9 52 -33zM1230 1502c17 -25 24 -47 24 -65c0 -43 -38 -67 -74 -67c-31 0 -61 20 -61 77
c0 42 23 88 59 88c16 0 34 -9 52 -33z" />
    <glyph glyph-name="Oslash" unicode="&#xd8;" horiz-adv-x="1364" 
d="M523 660l1 -5c-1 -9 -2 -18 -5 -29c-20 -95 -54 -264 -69 -431c24 2 50 6 75 8h13c4 0 6 0 10 1c-9 83 -20 208 -20 350c0 54 1 114 7 171c29 286 136 581 434 581c55 0 104 -11 146 -31c4 15 8 30 13 45c15 46 20 90 23 100c5 24 14 23 19 7c20 -55 26 -110 20 -172
l-3 -28c103 -93 150 -260 150 -454c0 -35 -2 -77 -5 -114c-47 -478 -340 -1064 -738 -1130c-6 -19 -14 -40 -22 -64c-13 -46 -17 -90 -22 -100c-4 -24 -12 -23 -18 -6c-20 53 -24 106 -20 165c-224 4 -348 191 -382 419c-47 -35 -84 -76 -88 -110c-1 -3 1 -13 3 -20
c1 -5 1 -13 1 -16c0 -7 -6 -14 -15 -14c-15 0 -39 30 -43 39c-3 16 -6 41 -6 55c8 62 60 129 136 183c-3 27 -3 52 -3 81c0 57 3 111 8 163c11 128 33 246 59 327v-1c45 58 117 86 186 86c57 0 114 -21 155 -56zM666 -265l-9 -23c7 0 14 -1 22 -1c305 0 550 512 588 942
c3 36 4 73 4 108c0 154 -31 291 -100 378c-27 -117 -75 -247 -98 -310c-59 -156 -353 -953 -407 -1094zM1035 1052c19 48 39 100 57 155c-36 19 -77 30 -125 30c-150 0 -218 -225 -241 -461c-6 -63 -9 -133 -9 -195c0 -111 10 -239 21 -332zM681 110c-42 10 -78 13 -106 13
c-49 0 -89 -11 -129 -23c-2 -151 25 -290 113 -353c25 83 53 161 71 206c11 31 31 86 57 155z" />
    <glyph glyph-name="Ugrave" unicode="&#xd9;" horiz-adv-x="1623" 
d="M1491 964c1 19 -3 34 -6 46c-2 6 -4 6 -3 16c2 18 22 25 44 26c118 4 148 -63 144 -123c-14 -148 -96 -416 -167 -651l-56 -184c-22 -73 -53 -176 -61 -273c-12 -138 22 -265 204 -265c13 0 30 2 45 3c33 -15 25 -30 -9 -50c-45 -8 -87 -11 -125 -11
c-264 0 -310 171 -294 354c7 82 29 173 50 245c22 96 51 193 86 308c-379 -510 -504 -653 -607 -653c-22 0 -47 7 -73 21c-34 20 -44 59 -40 107c3 39 20 97 31 134c6 22 14 43 20 65c48 150 103 318 139 477c15 68 29 150 36 233c20 220 -13 457 -249 502h1
c-145 14 -315 -147 -351 -328v1c-2 -12 -5 -25 -6 -36c-13 -153 66 -299 159 -301c103 -12 208 130 242 221c1 5 3 10 4 15c4 20 8 38 37 38c19 0 23 -13 21 -31c-1 -17 -8 -35 -12 -44c-3 -5 -3 -7 -3 -8c-54 -141 -195 -279 -352 -279c-28 0 -55 5 -83 14
c-135 50 -198 176 -186 313c3 38 9 73 24 110c74 212 284 377 529 376c118 1 237 -43 308 -111c116 -118 147 -282 132 -455c-6 -70 -19 -142 -36 -214c-46 -185 -89 -355 -148 -524c-12 -34 -17 -61 -18 -79c-2 -14 -2 -25 1 -29c45 -26 389 430 535 648
c41 141 86 307 93 376zM1306 1422c17 -62 42 -203 123 -243c14 -7 30 2 21 -8c-26 -29 -52 -38 -78 -36c-82 8 -157 140 -170 204c-12 69 75 110 104 83z" />
    <glyph glyph-name="Uacute" unicode="&#xda;" horiz-adv-x="1623" 
d="M1491 964c1 19 -3 34 -6 46c-2 6 -4 6 -3 16c2 18 22 25 44 26c118 4 148 -63 144 -123c-14 -148 -96 -416 -167 -651l-56 -184c-22 -73 -53 -176 -61 -273c-12 -138 22 -265 204 -265c13 0 30 2 45 3c33 -15 25 -30 -9 -50c-45 -8 -87 -11 -125 -11
c-264 0 -310 171 -294 354c7 82 29 173 50 245c22 96 51 193 86 308c-379 -510 -504 -653 -607 -653c-22 0 -47 7 -73 21c-34 20 -44 59 -40 107c3 39 20 97 31 134c6 22 14 43 20 65c48 150 103 318 139 477c15 68 29 150 36 233c20 220 -13 457 -249 502h1
c-145 14 -315 -147 -351 -328v1c-2 -12 -5 -25 -6 -36c-13 -153 66 -299 159 -301c103 -12 208 130 242 221c1 5 3 10 4 15c4 20 8 38 37 38c19 0 23 -13 21 -31c-1 -17 -8 -35 -12 -44c-3 -5 -3 -7 -3 -8c-54 -141 -195 -279 -352 -279c-28 0 -55 5 -83 14
c-135 50 -198 176 -186 313c3 38 9 73 24 110c74 212 284 377 529 376c118 1 237 -43 308 -111c116 -118 147 -282 132 -455c-6 -70 -19 -142 -36 -214c-46 -185 -89 -355 -148 -524c-12 -34 -17 -61 -18 -79c-2 -14 -2 -25 1 -29c45 -26 389 430 535 648
c41 141 86 307 93 376zM1354 1417c33 27 114 -14 90 -83c-25 -64 -122 -196 -206 -204c-26 -2 -52 7 -72 36c-6 10 7 1 23 8c87 40 138 181 165 243z" />
    <glyph glyph-name="Ucircumflex" unicode="&#xdb;" horiz-adv-x="1623" 
d="M1491 964c1 19 -3 34 -6 46c-2 6 -4 6 -3 16c2 18 22 25 44 26c118 4 148 -63 144 -123c-14 -148 -96 -416 -167 -651l-56 -184c-22 -73 -53 -176 -61 -273c-12 -138 22 -265 204 -265c13 0 30 2 45 3c33 -15 25 -30 -9 -50c-45 -8 -87 -11 -125 -11
c-264 0 -310 171 -294 354c7 82 29 173 50 245c22 96 51 193 86 308c-379 -510 -504 -653 -607 -653c-22 0 -47 7 -73 21c-34 20 -44 59 -40 107c3 39 20 97 31 134c6 22 14 43 20 65c48 150 103 318 139 477c15 68 29 150 36 233c20 220 -13 457 -249 502h1
c-145 14 -315 -147 -351 -328v1c-2 -12 -5 -25 -6 -36c-13 -153 66 -299 159 -301c103 -12 208 130 242 221c1 5 3 10 4 15c4 20 8 38 37 38c19 0 23 -13 21 -31c-1 -17 -8 -35 -12 -44c-3 -5 -3 -7 -3 -8c-54 -141 -195 -279 -352 -279c-28 0 -55 5 -83 14
c-135 50 -198 176 -186 313c3 38 9 73 24 110c74 212 284 377 529 376c118 1 237 -43 308 -111c116 -118 147 -282 132 -455c-6 -70 -19 -142 -36 -214c-46 -185 -89 -355 -148 -524c-12 -34 -17 -61 -18 -79c-2 -14 -2 -25 1 -29c45 -26 389 430 535 648
c41 141 86 307 93 376zM1508 1184h1c-34 17 -82 95 -119 156l-17 29c-18 -17 -42 -45 -70 -74c-66 -71 -145 -159 -188 -164c-15 -1 -45 12 -45 31c-1 7 23 26 41 42c10 9 17 17 20 20l10 10v-1c41 43 155 166 203 196c3 5 9 6 18 7c13 2 37 -6 44 -20
c38 -44 106 -154 118 -176c1 -3 7 -12 14 -21c11 -15 22 -28 19 -34c-7 -12 -37 -10 -49 -1z" />
    <glyph glyph-name="Udieresis" unicode="&#xdc;" horiz-adv-x="1623" 
d="M1491 964c1 19 -3 34 -6 46c-2 6 -4 6 -3 16c2 18 22 25 44 26c118 4 148 -63 144 -123c-14 -148 -96 -416 -167 -651l-56 -184c-22 -73 -53 -176 -61 -273c-12 -138 22 -265 204 -265c13 0 30 2 45 3c33 -15 25 -30 -9 -50c-45 -8 -87 -11 -125 -11
c-264 0 -310 171 -294 354c7 82 29 173 50 245c22 96 51 193 86 308c-379 -510 -504 -653 -607 -653c-22 0 -47 7 -73 21c-34 20 -44 59 -40 107c3 39 20 97 31 134c6 22 14 43 20 65c48 150 103 318 139 477c15 68 29 150 36 233c20 220 -13 457 -249 502h1
c-145 14 -315 -147 -351 -328v1c-2 -12 -5 -25 -6 -36c-13 -153 66 -299 159 -301c103 -12 208 130 242 221c1 5 3 10 4 15c4 20 8 38 37 38c19 0 23 -13 21 -31c-1 -17 -8 -35 -12 -44c-3 -5 -3 -7 -3 -8c-54 -141 -195 -279 -352 -279c-28 0 -55 5 -83 14
c-135 50 -198 176 -186 313c3 38 9 73 24 110c74 212 284 377 529 376c118 1 237 -43 308 -111c116 -118 147 -282 132 -455c-6 -70 -19 -142 -36 -214c-46 -185 -89 -355 -148 -524c-12 -34 -17 -61 -18 -79c-2 -14 -2 -25 1 -29c45 -26 389 430 535 648
c41 141 86 307 93 376zM1246 1274c17 -25 24 -47 24 -65c0 -43 -38 -67 -74 -67c-31 0 -61 20 -61 77c0 42 23 88 59 88c16 0 34 -9 52 -33zM1428 1274c17 -25 24 -47 24 -65c0 -43 -38 -67 -74 -67c-31 0 -61 20 -61 77c0 42 23 88 59 88c16 0 34 -9 52 -33z" />
    <glyph glyph-name="Yacute" unicode="&#xdd;" horiz-adv-x="1602" 
d="M1224 -118c57 210 100 409 144 611c-129 -195 -236 -342 -313 -433c-102 -113 -181 -171 -249 -171c-24 0 -49 5 -75 16c-43 18 -55 65 -55 116c0 40 7 84 14 117l17 63c34 133 74 291 94 430c7 61 14 132 14 204c0 202 -54 425 -304 464h1c-150 13 -308 -133 -328 -299
v1c-14 -150 87 -303 190 -305c105 -11 198 117 226 201c0 4 2 8 2 12c2 17 7 34 35 34c20 0 24 -12 24 -27c0 -17 -3 -30 -6 -39c-2 -3 -3 -6 -3 -10c-46 -127 -170 -251 -333 -251c-28 0 -57 3 -87 11c-146 47 -223 163 -223 291c0 31 5 64 15 95c57 192 255 342 504 341
c124 1 249 -38 327 -100c133 -108 180 -261 180 -420c0 -62 -6 -128 -15 -189c-10 -77 -32 -168 -53 -252c-16 -65 -31 -130 -42 -191l-3 -14c-5 -26 -13 -66 -13 -95c0 -20 4 -35 13 -40c17 -5 52 19 92 63c115 122 298 390 387 545l-1 -1c12 69 21 129 21 169
c0 17 -6 32 -10 44c-2 6 -4 6 -4 15c0 17 19 23 41 24c114 4 149 -59 150 -117c-16 -321 -165 -873 -257 -1189c-79 -269 -206 -627 -384 -649c-11 -1 -23 -2 -34 -2c-80 0 -130 37 -160 95c-24 46 -32 93 -32 140c0 43 7 86 22 129c75 220 321 433 471 563zM981 -826
c72 146 155 419 208 598c-129 -118 -308 -296 -369 -462c-11 -37 -20 -75 -20 -108c0 -10 1 -22 4 -34c11 -66 37 -96 68 -96c34 -1 77 37 109 102zM1329 1412c33 27 114 -14 90 -83c-25 -64 -122 -196 -206 -204c-26 -2 -52 7 -72 36c-6 10 7 1 23 8c87 40 138 181 165 243
z" />
    <glyph glyph-name="Scaron" unicode="&#x160;" horiz-adv-x="1177" 
d="M88 41c9 0 12 -8 9 -22l-7 -14c-6 -11 -13 -23 -13 -42c0 -11 3 -28 10 -49c41 -153 185 -220 346 -220c73 0 154 15 221 38c100 41 267 133 267 238c0 17 -3 32 -7 43c-20 41 -73 69 -133 86c-56 13 -131 27 -188 37l-26 4c-217 36 -443 82 -513 283
c-11 39 -22 88 -22 129c0 73 20 168 57 271c89 245 297 458 521 495h-1c37 10 68 13 97 13c262 0 503 -279 503 -555c0 -17 -1 -39 -3 -58c-29 -183 -207 -325 -356 -325c-79 0 -152 48 -185 142c-6 19 -5 37 8 48c17 12 31 -9 42 -31c26 -64 72 -93 116 -93
c90 0 185 118 185 282h1c-11 228 -197 494 -399 495c-222 2 -319 -228 -325 -453c-1 -17 -2 -34 -2 -51c0 -78 11 -143 36 -200c56 -140 202 -197 328 -242l22 -8c41 -15 84 -31 118 -49c80 -38 154 -103 185 -198c10 -33 15 -66 15 -100c0 -177 -142 -335 -310 -409
c-63 -26 -136 -40 -209 -40c-247 0 -500 162 -485 380c5 51 37 175 97 175zM963 1621h-1c14 9 44 11 49 -1c3 -6 -12 -19 -25 -34c-9 -9 -15 -18 -18 -21c-16 -22 -102 -132 -148 -176c-9 -14 -35 -22 -48 -20c-9 1 -15 2 -16 7c-44 30 -136 153 -169 196v-1l-8 10
c-3 3 -8 11 -18 20c-14 16 -34 35 -33 42c4 19 36 32 51 31c41 -5 106 -93 160 -164c22 -29 42 -57 56 -74l23 29c47 61 109 139 145 156z" />
    <glyph glyph-name="scaron" unicode="&#x161;" horiz-adv-x="456" 
d="M35 904c24 21 59 32 92 32c46 0 88 -21 88 -75c0 -41 -22 -96 -47 -156c-12 -30 -25 -61 -36 -93c103 -154 194 -324 196 -417c61 90 121 205 154 272c1 2 3 5 3 5l8 16h-1c6 13 10 22 25 22c12 0 21 -8 26 -20l-6 -12l-3 -3c-58 -118 -182 -366 -288 -446
c-65 -44 -160 -71 -236 -71c-88 0 -157 32 -151 101c2 19 22 43 43 43c16 0 16 -18 15 -34c-1 -43 46 -50 85 -48c106 4 151 72 155 182c-1 71 -40 188 -90 265l-44 -99l-36 13l53 125c-46 59 -79 145 -79 227c0 64 20 127 74 171zM101 651l10 24c25 59 60 148 50 170h1
c-4 8 -8 12 -13 13c-23 4 -60 -77 -60 -148c0 -21 4 -41 12 -59zM292 1234h-1c14 9 44 11 49 -1c3 -6 -12 -19 -25 -34c-9 -9 -15 -18 -18 -21c-16 -22 -102 -132 -148 -176c-9 -14 -35 -22 -48 -20c-9 1 -15 2 -16 7c-44 30 -136 153 -169 196v-1l-8 10c-3 3 -8 11 -18 20
c-14 16 -34 35 -33 42c4 19 36 32 51 31c41 -5 106 -93 160 -164c22 -29 42 -57 56 -74l23 29c47 61 109 139 145 156z" />
    <glyph glyph-name="Ydieresis" unicode="&#x178;" horiz-adv-x="1602" 
d="M1224 -118c57 210 100 409 144 611c-129 -195 -236 -342 -313 -433c-102 -113 -181 -171 -249 -171c-24 0 -49 5 -75 16c-43 18 -55 65 -55 116c0 40 7 84 14 117l17 63c34 133 74 291 94 430c7 61 14 132 14 204c0 202 -54 425 -304 464h1c-150 13 -308 -133 -328 -299
v1c-14 -150 87 -303 190 -305c105 -11 198 117 226 201c0 4 2 8 2 12c2 17 7 34 35 34c20 0 24 -12 24 -27c0 -17 -3 -30 -6 -39c-2 -3 -3 -6 -3 -10c-46 -127 -170 -251 -333 -251c-28 0 -57 3 -87 11c-146 47 -223 163 -223 291c0 31 5 64 15 95c57 192 255 342 504 341
c124 1 249 -38 327 -100c133 -108 180 -261 180 -420c0 -62 -6 -128 -15 -189c-10 -77 -32 -168 -53 -252c-16 -65 -31 -130 -42 -191l-3 -14c-5 -26 -13 -66 -13 -95c0 -20 4 -35 13 -40c17 -5 52 19 92 63c115 122 298 390 387 545l-1 -1c12 69 21 129 21 169
c0 17 -6 32 -10 44c-2 6 -4 6 -4 15c0 17 19 23 41 24c114 4 149 -59 150 -117c-16 -321 -165 -873 -257 -1189c-79 -269 -206 -627 -384 -649c-11 -1 -23 -2 -34 -2c-80 0 -130 37 -160 95c-24 46 -32 93 -32 140c0 43 7 86 22 129c75 220 321 433 471 563zM981 -826
c72 146 155 419 208 598c-129 -118 -308 -296 -369 -462c-11 -37 -20 -75 -20 -108c0 -10 1 -22 4 -34c11 -66 37 -96 68 -96c34 -1 77 37 109 102zM1256 1253c17 -25 24 -47 24 -65c0 -43 -38 -67 -74 -67c-31 0 -61 20 -61 77c0 42 23 88 59 88c16 0 34 -9 52 -33z
M1438 1253c17 -25 24 -47 24 -65c0 -43 -38 -67 -74 -67c-31 0 -61 20 -61 77c0 42 23 88 59 88c16 0 34 -9 52 -33z" />
    <glyph glyph-name="exclamdown" unicode="&#xa1;" horiz-adv-x="228" 
d="M172 621c9 43 42 152 12 199c-11 26 -41 35 -80 44c-10 3 -21 -2 -21 -12c1 -4 10 -22 7 -43c0 -45 -11 -91 -24 -131c-8 -34 -30 -145 -103 -445c-8 -38 -31 -141 2 -183c12 -22 38 -23 79 -31c11 -3 22 1 20 10c1 4 -9 19 -6 38c-2 39 8 80 19 115c6 30 27 130 95 439z
M136 986c-13 25 -16 47 -12 65c8 43 50 67 85 67c31 0 56 -20 46 -77c-8 -42 -38 -88 -73 -88c-16 0 -32 9 -46 33z" />
    <glyph glyph-name="periodcentered" unicode="&#xb7;" horiz-adv-x="213" 
d="M147 652c15 -25 20 -47 18 -65c-4 -43 -44 -67 -80 -67c-31 0 -59 20 -54 77c4 42 31 88 67 88c16 0 33 -9 49 -33z" />
    <glyph glyph-name="questiondown" unicode="&#xbf;" horiz-adv-x="597" 
d="M284 652l54 75h3l78 112c9 21 10 39 13 44c2 11 15 12 24 5c38 -18 53 -42 56 -67c5 -41 -28 -101 -60 -145l-6 -13l-1 -3v1c-21 -29 -46 -62 -79 -102h-1c-19 -29 -44 -60 -71 -95l-3 1c-55 -71 -140 -167 -148 -258c-1 -16 0 -31 3 -42c5 -28 23 -38 46 -42
c109 -10 332 143 331 280v-1c-8 36 18 32 32 21c24 -23 31 -54 28 -89c-6 -79 -66 -174 -116 -223c-77 -75 -156 -109 -224 -109c-111 0 -192 91 -178 246c4 44 18 88 77 193c30 45 75 112 142 211zM433 970c-15 25 -20 47 -18 65c4 43 44 67 80 67c31 0 59 -20 54 -77
c-4 -42 -31 -88 -67 -88c-16 0 -33 9 -49 33z" />
    <glyph glyph-name="thorn" unicode="&#xfe;" horiz-adv-x="698" 
d="M-10 293l6 -1c21 125 60 289 95 434c33 140 63 261 67 311c1 22 -2 38 -4 50c-1 7 -2 13 -2 18c1 18 18 23 36 23c104 0 121 -70 115 -139c-11 -108 -52 -270 -92 -420c-4 -18 -5 -17 -10 -37c70 104 161 193 260 193c105 0 140 -77 140 -166c0 -11 -1 -22 -2 -33
c-10 -107 -81 -278 -174 -399c123 91 253 228 324 376l1 1c16 17 30 11 43 -8c-56 -134 -240 -378 -452 -477c-54 -25 -124 -51 -190 -51c-18 0 -33 2 -49 6c-7 2 -13 4 -19 7c-16 -85 -27 -153 -29 -189c-1 -26 2 -46 4 -60c1 -8 2 -16 2 -21c-1 -23 -17 -28 -35 -28
c-99 0 -115 85 -109 167c9 116 41 280 74 443zM384 627c-76 0 -169 -152 -223 -253l1 1l-6 -24c-6 -22 -13 -49 -20 -79h2l-20 -106l-2 -8c-1 -12 -1 -23 -1 -33c0 -37 7 -63 29 -63c9 0 18 3 29 9c127 66 249 363 258 466c4 38 0 90 -47 90z" />
    <glyph glyph-name="Thorn" unicode="&#xde;" horiz-adv-x="698" 
d="M303 989c-8 -72 -28 -167 -52 -267c47 33 102 55 169 55c139 0 190 -126 190 -264c0 -17 0 -34 -2 -52v1c-19 -223 -165 -488 -350 -488c-72 0 -125 44 -155 103l-20 -96c-16 -85 -27 -153 -29 -189c-1 -26 2 -46 4 -60c1 -8 2 -16 2 -21c-1 -23 -17 -28 -35 -28
c-99 0 -115 85 -109 167c9 116 41 280 74 443l6 -1c21 125 60 289 95 434c33 140 63 261 67 311c1 22 -2 38 -4 50c-1 7 -2 13 -2 18c1 18 18 23 36 23c104 0 121 -70 115 -139zM211 569l-10 -37l-74 -343c1 -49 17 -94 48 -94c80 0 221 258 248 448c1 11 2 24 2 35
c0 63 -19 118 -79 118c-43 0 -81 -22 -116 -54z" />
    <glyph glyph-name="degree" unicode="&#xb0;" horiz-adv-x="259" 
d="M149 1099c104 0 104 -68 100 -121c-5 -56 -47 -145 -146 -145c-90 0 -103 77 -99 126c4 52 56 140 145 140zM150 1062c-37 0 -59 -104 -61 -125c-2 -19 -4 -68 24 -68c34 0 60 70 65 125c3 39 -4 68 -28 68z" />
    <glyph glyph-name="copyright" unicode="&#xa9;" horiz-adv-x="842" 
d="M556 605c-38 -63 -92 -145 -194 -145c-78 0 -107 64 -107 134c0 9 0 17 1 25v-1c11 111 90 242 193 242c67 0 105 -60 100 -118c-1 -13 -3 -36 -26 -36c-4 1 -7 2 -16 8c3 12 6 21 7 26c2 25 -5 51 -21 51c-40 0 -112 -124 -128 -213v-7c0 -3 -1 -6 -1 -10
c0 -27 10 -51 37 -51c52 0 96 65 125 105c14 20 23 38 30 51c4 8 10 16 14 24h-1l15 26v-1l6 9c7 3 10 5 11 5c8 0 14 -6 18 -16l-8 -13l1 1c-11 -24 -31 -58 -56 -96zM492 1056c604 0 315 -779 -185 -779c-282 0 -312 228 -293 369c21 152 195 410 478 410zM500 1013
c-351 0 -565 -694 -166 -694c303 0 593 694 166 694z" />
    <glyph glyph-name="registered" unicode="&#xae;" horiz-adv-x="842" 
d="M492 1056c604 0 315 -779 -185 -779c-282 0 -312 228 -293 369c21 152 195 410 478 410zM250 666c6 1 13 5 19 11c0 2 1 3 1 4c4 4 7 11 9 19c13 10 25 16 30 -8c0 -7 -4 -19 -12 -36c-10 -13 -24 -22 -41 -27h1c-10 -4 -22 -6 -31 -6c-48 0 -74 35 -79 79
c-65 -185 -27 -383 187 -383c68 0 136 35 195 90c-76 21 -114 91 -136 154c-20 -56 -52 -98 -109 -98c-16 0 -35 3 -51 10c-13 15 -15 27 5 34c8 -2 14 -3 24 -3c35 0 56 43 68 78c16 58 26 136 31 189c0 2 -1 6 -3 8l-1 11c0 10 9 14 19 14c41 2 50 -19 50 -43
c1 -35 -5 -75 -12 -117v-1c46 6 73 62 73 117s-32 111 -105 111c-16 0 -44 -5 -71 -12h1c-49 -20 -97 -69 -112 -120c-1 -6 -2 -14 -2 -17c0 -30 15 -58 43 -58h9zM500 1013c-107 0 -201 -65 -269 -154c21 17 43 30 65 42c37 19 82 30 119 30c35 0 70 -8 98 -26
c42 -29 62 -75 62 -123c0 -78 -56 -160 -135 -177l10 -19c30 -55 66 -117 116 -139c176 201 243 566 -66 566z" />
    <glyph glyph-name="onequarter" unicode="&#xbc;" horiz-adv-x="1058" 
d="M880 223c-10 -41 -16 -75 -21 -126c-3 -44 6 -68 6 -75c-1 -4 -5 -4 -10 -4c-61 5 -74 80 -69 139c1 22 7 51 14 84c-22 1 -44 2 -65 3c-36 2 -76 4 -99 4c-5 0 -16 -1 -25 -2v1l-4 -1l-13 -3c-1 -1 -3 -1 -5 -1c-11 -1 -16 4 -18 10c1 10 6 24 13 33h-1l8 3
c118 82 277 303 280 356l7 -2v4c1 9 9 12 18 11c28 -3 45 -15 53 -33c21 -45 -4 -145 -14 -187l-37 -143c10 0 19 1 29 2c15 3 29 6 35 9c3 1 6 2 9 2s8 -2 9 -7c-1 -37 -49 -55 -86 -59v1c-2 0 -3 -1 -6 -1c-1 0 -2 -1 -4 -1c-1 -6 -2 -11 -4 -17zM807 296c1 0 3 -1 4 -1
c18 77 40 165 55 229c-48 -79 -111 -169 -164 -222h9c32 -1 65 -3 96 -6zM292 743c-11 -37 -18 -68 -24 -115c-3 -27 1 -46 4 -57c1 -4 2 -7 1 -10c0 -4 -8 -6 -14 -6c-68 7 -88 76 -82 128c7 52 35 146 63 233c15 49 26 84 34 118c-29 -29 -58 -56 -77 -72
c-26 -21 -62 -42 -88 -42c-12 0 -22 4 -30 12v-1c-1 1 -1 2 -1 4c-2 3 -2 4 1 6v0c-2 -2 5 3 10 6c8 4 23 14 38 25c30 24 52 44 75 66l84 93c3 7 12 9 22 8c34 -2 55 -14 65 -31c9 -18 11 -41 7 -66c-4 -39 -17 -82 -25 -104l-28 -90c-12 -36 -24 -71 -35 -105zM280 57
c-11 -26 -11 -50 -16 -56c-3 -13 -13 -13 -21 -4c-31 28 -42 58 -43 91c-3 75 65 189 95 237c52 89 325 541 371 619c30 45 61 96 84 150c12 26 13 50 16 56c4 13 14 13 23 4c31 -28 44 -58 43 -92c5 -73 -66 -189 -95 -238c-53 -88 -324 -536 -374 -616
c-13 -22 -24 -45 -83 -151z" />
    <glyph glyph-name="onehalf" unicode="&#xbd;" horiz-adv-x="1058" 
d="M292 743c-11 -37 -18 -68 -24 -115c-3 -27 1 -46 4 -57c1 -4 2 -7 1 -10c0 -4 -8 -6 -14 -6c-68 7 -88 76 -82 128c7 52 35 146 63 233c15 49 26 84 34 118c-29 -29 -58 -56 -77 -72c-26 -21 -62 -42 -88 -42c-12 0 -22 4 -30 12v-1c-1 1 -1 2 -1 4c-2 3 -2 4 1 6v0
c-2 -2 5 3 10 6c8 4 23 14 38 25c30 24 52 44 75 66l84 93c3 7 12 9 22 8c34 -2 55 -14 65 -31c9 -18 11 -41 7 -66c-4 -39 -17 -82 -25 -104l-28 -90c-12 -36 -24 -71 -35 -105zM616 16c-5 0 -12 0 -17 -1c-13 -1 -26 -2 -28 14v0c-2 8 0 15 5 26l10 17l2 1v0
c17 20 38 43 64 70c87 90 215 220 224 312c2 22 -2 42 -29 49c-67 6 -202 -83 -203 -164v0c6 -20 -10 -19 -19 -12c-14 13 -19 32 -17 52c5 47 41 102 72 131c45 44 94 64 136 64c67 0 116 -53 107 -144c-2 -17 -5 -35 -10 -54c-32 -104 -123 -206 -183 -272l-17 -17l54 -5
l42 -3c22 -1 40 -1 68 6c17 2 29 8 36 12c3 2 5 3 5 3v-1c4 1 5 -2 5 -8c-2 -49 -44 -75 -75 -82c-15 -2 -32 -3 -52 -3c-29 0 -65 2 -98 5c-29 2 -59 4 -82 4zM280 57c-11 -26 -11 -50 -16 -56c-3 -13 -13 -13 -21 -4c-31 28 -42 58 -43 91c-3 75 65 189 95 237
c52 89 325 541 371 619c30 45 61 96 84 150c12 26 13 50 16 56c4 13 14 13 23 4c31 -28 44 -58 43 -92c5 -73 -66 -189 -95 -238c-53 -88 -324 -536 -374 -616c-13 -22 -24 -45 -83 -151z" />
    <glyph glyph-name="threequarters" unicode="&#xbe;" horiz-adv-x="1058" 
d="M880 223c-10 -41 -16 -75 -21 -126c-3 -44 6 -68 6 -75c-1 -4 -5 -4 -10 -4c-61 5 -74 80 -69 139c1 22 7 51 14 84c-22 1 -44 2 -65 3c-36 2 -76 4 -99 4c-5 0 -16 -1 -25 -2v1l-4 -1l-13 -3c-1 -1 -3 -1 -5 -1c-11 -1 -16 4 -18 10c1 10 6 24 13 33h-1l8 3
c118 82 277 303 280 356l7 -2v4c1 9 9 12 18 11c28 -3 45 -15 53 -33c21 -45 -4 -145 -14 -187l-37 -143c10 0 19 1 29 2c15 3 29 6 35 9c3 1 6 2 9 2s8 -2 9 -7c-1 -37 -49 -55 -86 -59v1c-2 0 -3 -1 -6 -1c-1 0 -2 -1 -4 -1c-1 -6 -2 -11 -4 -17zM807 296c1 0 3 -1 4 -1
c18 77 40 165 55 229c-48 -79 -111 -169 -164 -222h9c32 -1 65 -3 96 -6zM58 689c9 -37 46 -61 92 -67c75 -9 144 55 149 137c6 88 -43 132 -123 114c-12 -2 -22 -2 -29 3c-15 10 -5 16 4 26c16 19 30 36 43 50c88 101 88 104 85 104c-34 -4 -71 -8 -108 -10
c-22 -2 -76 -5 -95 18c-6 12 -11 28 -7 53c1 8 4 14 6 14c5 -1 13 -8 24 -9c34 -8 182 13 235 3c27 -5 37 -22 37 -42c0 -65 -60 -117 -101 -170c56 -2 112 -55 118 -112c11 -136 -80 -225 -226 -225c-52 0 -137 43 -131 100c0 4 1 10 3 16c4 7 24 11 24 -3v0zM280 57
c-11 -26 -11 -50 -16 -56c-3 -13 -13 -13 -21 -4c-31 28 -42 58 -43 91c-3 75 65 189 95 237c52 89 325 541 371 619c30 45 61 96 84 150c12 26 13 50 16 56c4 13 14 13 23 4c31 -28 44 -58 43 -92c5 -73 -66 -189 -95 -238c-53 -88 -324 -536 -374 -616
c-13 -22 -24 -45 -83 -151z" />
    <glyph glyph-name="dagger" unicode="&#x2020;" horiz-adv-x="500" 
d="M254 101c-1 -38 5 -68 4 -78c0 -17 -9 -21 -19 -15c-39 15 -62 40 -73 79c-28 84 3 258 15 329c20 123 40 240 59 351l-50 2c-30 1 -63 4 -94 -2c-15 -2 -27 -11 -30 -12c-7 -1 -9 6 -8 15c2 33 10 54 25 67c30 32 104 29 135 28l39 -2c8 48 15 97 17 146
c3 36 -4 66 -4 73c2 17 11 21 21 15c40 -14 62 -39 72 -79c13 -38 14 -99 9 -160h1c14 -1 28 0 93 1c16 3 27 12 31 12c7 2 9 -5 8 -14c-2 -33 -10 -53 -25 -67c-27 -28 -84 -29 -119 -29c-4 -28 -9 -53 -12 -71c-21 -131 -42 -248 -62 -367c-7 -33 -11 -66 -33 -222z" />
    <glyph glyph-name="daggerdbl" unicode="&#x2021;" horiz-adv-x="500" 
d="M254 101c-1 -38 5 -68 4 -78c0 -17 -9 -21 -19 -15c-39 15 -62 40 -73 79c-18 54 -12 147 -1 225c-7 1 -13 0 -19 1c-30 1 -63 4 -94 -2c-15 -2 -27 -11 -30 -12c-7 -1 -9 6 -8 15c2 33 10 54 25 67c30 32 104 29 135 28h6c0 2 0 5 1 7c20 123 40 240 59 351l-50 2
c-30 1 -63 4 -94 -2c-15 -2 -27 -11 -30 -12c-7 -1 -9 6 -8 15c2 33 10 54 25 67c30 32 104 29 135 28l39 -2c8 48 15 97 17 146c3 36 -4 66 -4 73c2 17 11 21 21 15c40 -14 62 -39 72 -79c13 -38 14 -99 9 -160h1c14 -1 28 0 93 1c16 3 27 12 31 12c7 2 9 -5 8 -14
c-2 -33 -10 -53 -25 -67c-27 -28 -84 -29 -119 -29c-4 -28 -9 -53 -12 -71l-49 -287c10 -1 19 -1 29 -1c14 -1 28 0 93 1c16 3 27 12 31 12c7 2 9 -5 8 -14c-2 -33 -10 -53 -25 -67c-31 -32 -104 -29 -135 -28h-17c-6 -30 -12 -74 -30 -205z" />
    <glyph glyph-name="Euro" unicode="&#x20ac;" horiz-adv-x="855" 
d="M545 492c20 3 35 12 41 12c9 2 11 -5 10 -15c-3 -34 -14 -55 -33 -70c-41 -33 -138 -30 -179 -29c-7 0 -15 0 -22 1c-3 -18 -6 -36 -8 -53c0 -4 -1 -12 -1 -17c-1 -13 -2 -28 -2 -39c0 -100 28 -188 114 -188c112 0 209 129 280 251c39 29 47 7 46 -28
c-93 -170 -222 -338 -428 -338c-186 0 -255 193 -255 404v16c-18 0 -36 -1 -53 -3c-21 -2 -35 -12 -40 -13c-10 -1 -12 6 -11 16c3 34 14 56 34 70c17 14 45 22 75 26c4 39 11 80 19 120c-18 0 -37 -2 -55 -5c-20 -2 -35 -11 -39 -12c-10 -1 -13 6 -11 16c3 34 13 56 33 70
c22 18 60 25 97 28c77 263 238 501 430 501c155 0 248 -182 240 -354c-3 -35 -8 -93 -48 -94c-8 2 -14 4 -22 13c7 28 11 54 13 76c5 89 -19 183 -70 183c-68 0 -167 -149 -243 -333c17 0 41 1 109 2c22 3 35 13 40 13c12 2 13 -5 12 -15c-2 -34 -13 -55 -32 -70
c-38 -30 -120 -31 -167 -30c-13 -37 -24 -75 -34 -112c12 -1 24 -2 36 -2c19 -1 37 0 124 2z" />
    <glyph glyph-name="florin" unicode="&#x192;" horiz-adv-x="290" 
d="M584 837c-11 -21 -32 8 -46 11c-57 17 -202 -5 -304 -30c-24 -236 -21 -505 -79 -720c-46 -164 -168 -325 -362 -227c-16 16 -17 27 10 34c145 -55 190 116 210 221c37 193 21 423 33 632c-89 -36 -185 -84 -234 -136c-10 -10 -14 -37 -33 -33c-9 1 -9 16 -6 27
c26 80 143 170 281 232c13 127 43 242 109 329c62 84 229 183 326 85c18 -21 18 -35 -11 -45c-63 61 -158 -28 -182 -91c-24 -65 -40 -139 -52 -217c147 28 282 11 331 -48c7 -7 13 -17 9 -24z" />
    <glyph glyph-name="section" unicode="&#xa7;" horiz-adv-x="643" 
d="M37 505c0 128 48 232 167 294c18 9 38 16 57 22c-58 18 -106 48 -126 110c-5 17 -9 41 -9 60c0 34 8 78 24 124c38 112 127 208 221 227c14 5 28 6 41 6c112 0 215 -129 215 -256c0 -7 0 -18 -1 -27c-12 -84 -90 -150 -154 -150c-33 0 -67 25 -82 67c-4 10 -4 20 2 26
c16 9 22 -1 29 -15c10 -27 27 -39 43 -39c35 0 71 55 73 123c-8 98 -82 218 -162 218c-88 0 -128 -100 -131 -200c0 -4 -1 -8 -1 -11v-11c0 -35 5 -63 16 -89c21 -57 84 -86 134 -106c1 -1 7 -3 9 -3l9 -4c14 -6 27 -11 41 -20h-1c35 -18 66 -48 80 -92v1c5 -15 7 -30 7 -47
c0 -82 -60 -155 -133 -189c-26 -12 -57 -18 -89 -18c-61 0 -122 24 -162 63c2 -27 7 -50 16 -71c21 -57 84 -86 134 -106c1 -1 7 -3 9 -3l9 -4c14 -6 27 -11 41 -20h-1c35 -18 66 -48 80 -92v1c5 -15 7 -30 7 -47c0 -82 -60 -155 -133 -189c-26 -12 -57 -18 -89 -18
c-106 0 -214 75 -208 175c2 25 17 85 46 85c8 0 12 -5 10 -15l-4 -7c0 -1 -1 -2 -1 -3c-2 -4 -4 -8 -4 -15c0 -5 1 -12 4 -22c15 -66 74 -95 140 -95c29 0 62 7 89 17c42 19 109 59 109 103c0 6 -1 12 -3 17c-8 16 -29 28 -51 36l-70 15c-3 0 -5 2 -8 2l-12 2
c-93 15 -188 37 -218 130c-5 17 -9 41 -9 60zM494 746c-26 51 -173 51 -237 15c-38 -22 -70 -51 -87 -88c24 -44 74 -64 129 -64c29 0 62 7 89 17c42 19 109 59 109 103c0 6 -1 12 -3 17z" />
    <glyph glyph-name="Sacute" unicode="&#x15a;" horiz-adv-x="1177" 
d="M88 41c9 0 12 -8 9 -22l-7 -14c-6 -11 -13 -23 -13 -42c0 -11 3 -28 10 -49c41 -153 185 -220 346 -220c73 0 154 15 221 38c100 41 267 133 267 238c0 17 -3 32 -7 43c-20 41 -73 69 -133 86c-56 13 -131 27 -188 37l-26 4c-217 36 -443 82 -513 283
c-11 39 -22 88 -22 129c0 73 20 168 57 271c89 245 297 458 521 495h-1c37 10 68 13 97 13c262 0 503 -279 503 -555c0 -17 -1 -39 -3 -58c-29 -183 -207 -325 -356 -325c-79 0 -152 48 -185 142c-6 19 -5 37 8 48c17 12 31 -9 42 -31c26 -64 72 -93 116 -93
c90 0 185 118 185 282h1c-11 228 -197 494 -399 495c-222 2 -319 -228 -325 -453c-1 -17 -2 -34 -2 -51c0 -78 11 -143 36 -200c56 -140 202 -197 328 -242l22 -8c41 -15 84 -31 118 -49c80 -38 154 -103 185 -198c10 -33 15 -66 15 -100c0 -177 -142 -335 -310 -409
c-63 -26 -136 -40 -209 -40c-247 0 -500 162 -485 380c5 51 37 175 97 175zM918 1651c33 27 114 -14 90 -83c-25 -64 -122 -196 -206 -204c-26 -2 -52 7 -72 36c-6 10 7 1 23 8c87 40 138 181 165 243z" />
    <glyph glyph-name="Tcaron" unicode="&#x164;" horiz-adv-x="1260" 
d="M126 899c34 -53 177 -62 240 -64c197 -3 403 82 608 151l1 -12c-1 -25 -6 -70 -19 -134c-35 -188 -65 -379 -118 -578c-70 -255 -221 -706 -544 -686c-138 19 -214 229 -158 418c53 173 210 324 301 303c99 -18 118 -193 108 -291c-1 -19 -12 -47 17 -50
c32 0 33 56 35 80c17 177 -61 373 -257 359c-180 -21 -310 -187 -339 -375c-38 -230 71 -439 288 -498c110 -28 228 -16 324 36c227 123 332 378 400 638c40 152 66 302 98 439c26 120 46 231 54 406c111 33 183 62 290 98c264 88 651 249 673 -14c4 -88 -44 -222 -152 -244
c-95 -13 -167 121 -174 175c-9 7 -27 13 -40 -15c15 -104 108 -215 240 -215c27 0 55 4 80 13c133 48 203 202 175 329c-56 145 -174 209 -314 208c-533 -3 -1151 -427 -1662 -467c-28 -3 -100 -10 -123 15c-8 9 -6 19 -24 15c-18 -5 -16 -26 -8 -40zM1252 1460h-1
c14 9 44 11 49 -1c3 -6 -12 -19 -25 -34c-9 -9 -15 -18 -18 -21c-16 -22 -102 -132 -148 -176c-9 -14 -35 -22 -48 -20c-9 1 -15 2 -16 7c-44 30 -136 153 -169 196v-1l-8 10c-3 3 -8 11 -18 20c-14 16 -34 35 -33 42c4 19 36 32 51 31c41 -5 106 -93 160 -164
c22 -29 42 -57 56 -74l23 29c47 61 109 139 145 156z" />
    <glyph glyph-name="Zcaron" unicode="&#x17d;" horiz-adv-x="1457" 
d="M1635 1133c80 -1 205 35 185 64c-22 31 -163 -57 -185 -64zM471 -92c36 40 67 90 65 136c0 59 -45 88 -95 88c-28 0 -59 -10 -80 -28c-55 -47 -78 -100 -78 -148c0 -82 66 -152 156 -152c31 0 66 7 100 25c40 20 74 44 110 73c-50 0 -96 -12 -130 -33c2 3 -12 -8 -17 -13
c-20 -16 -39 -35 -59 -11c-19 22 -2 36 15 51zM803 393l-1 -1c-15 -12 -26 10 -19 26h-1c49 124 128 157 215 157c24 0 47 -1 70 -5c80 166 167 330 279 456c-116 19 -249 59 -374 96c-171 53 -342 104 -479 104c-49 0 -96 -6 -137 -23c-111 -40 -161 -149 -161 -251
c0 -32 4 -63 14 -91c17 -56 64 -88 121 -87c61 4 116 121 133 192c2 2 2 7 4 12c2 17 5 40 26 37c28 -5 21 -40 14 -57c-19 -79 -63 -173 -129 -227c-39 -30 -82 -45 -120 -45c-75 0 -143 55 -163 129c-10 38 -15 73 -15 109c0 106 52 199 123 265c119 103 313 161 468 161
c28 0 55 -2 82 -5c129 -16 267 -56 398 -94c119 -36 243 -71 353 -87c82 55 168 92 251 92c24 0 45 -3 67 -9c34 -10 48 -37 34 -68c-43 -94 -188 -142 -309 -156c-109 -132 -207 -339 -270 -478l-6 -11c12 -1 27 -2 38 -2c34 0 72 10 101 25c22 16 21 -16 14 -32
c-28 -67 -78 -88 -141 -88c-17 0 -35 0 -53 3c-73 -158 -164 -326 -275 -464c87 -21 180 -62 266 -106c237 -128 448 -328 448 -507c0 -31 -6 -60 -15 -84c-11 -19 -67 -81 -92 -68c-20 11 -7 41 -2 53c3 10 5 21 5 31c0 186 -441 444 -533 490c-58 31 -121 57 -184 79
c-88 -79 -189 -133 -297 -146c-13 -2 -31 -2 -45 -2c-142 0 -321 72 -347 210c-3 12 -4 23 -4 35c0 74 49 154 106 206c45 39 103 57 154 57c105 0 196 -70 180 -191c-3 -23 -8 -42 -21 -63c51 25 109 36 176 35c110 133 192 301 275 471c-14 1 -31 2 -43 2
c-70 0 -132 -20 -179 -85zM1476 1559h-1c14 9 44 11 49 -1c3 -6 -12 -19 -25 -34c-9 -9 -15 -18 -18 -21c-16 -22 -102 -132 -148 -176c-9 -14 -35 -22 -48 -20c-9 1 -15 2 -16 7c-44 30 -136 153 -169 196v-1l-8 10c-3 3 -8 11 -18 20c-14 16 -34 35 -33 42
c4 19 36 32 51 31c41 -5 106 -93 160 -164c22 -29 42 -57 56 -74l23 29c47 61 109 139 145 156z" />
    <glyph glyph-name="Zacute" unicode="&#x179;" horiz-adv-x="1457" 
d="M1635 1133c80 -1 205 35 185 64c-22 31 -163 -57 -185 -64zM471 -92c36 40 67 90 65 136c0 59 -45 88 -95 88c-28 0 -59 -10 -80 -28c-55 -47 -78 -100 -78 -148c0 -82 66 -152 156 -152c31 0 66 7 100 25c40 20 74 44 110 73c-50 0 -96 -12 -130 -33c2 3 -12 -8 -17 -13
c-20 -16 -39 -35 -59 -11c-19 22 -2 36 15 51zM803 393l-1 -1c-15 -12 -26 10 -19 26h-1c49 124 128 157 215 157c24 0 47 -1 70 -5c80 166 167 330 279 456c-116 19 -249 59 -374 96c-171 53 -342 104 -479 104c-49 0 -96 -6 -137 -23c-111 -40 -161 -149 -161 -251
c0 -32 4 -63 14 -91c17 -56 64 -88 121 -87c61 4 116 121 133 192c2 2 2 7 4 12c2 17 5 40 26 37c28 -5 21 -40 14 -57c-19 -79 -63 -173 -129 -227c-39 -30 -82 -45 -120 -45c-75 0 -143 55 -163 129c-10 38 -15 73 -15 109c0 106 52 199 123 265c119 103 313 161 468 161
c28 0 55 -2 82 -5c129 -16 267 -56 398 -94c119 -36 243 -71 353 -87c82 55 168 92 251 92c24 0 45 -3 67 -9c34 -10 48 -37 34 -68c-43 -94 -188 -142 -309 -156c-109 -132 -207 -339 -270 -478l-6 -11c12 -1 27 -2 38 -2c34 0 72 10 101 25c22 16 21 -16 14 -32
c-28 -67 -78 -88 -141 -88c-17 0 -35 0 -53 3c-73 -158 -164 -326 -275 -464c87 -21 180 -62 266 -106c237 -128 448 -328 448 -507c0 -31 -6 -60 -15 -84c-11 -19 -67 -81 -92 -68c-20 11 -7 41 -2 53c3 10 5 21 5 31c0 186 -441 444 -533 490c-58 31 -121 57 -184 79
c-88 -79 -189 -133 -297 -146c-13 -2 -31 -2 -45 -2c-142 0 -321 72 -347 210c-3 12 -4 23 -4 35c0 74 49 154 106 206c45 39 103 57 154 57c105 0 196 -70 180 -191c-3 -23 -8 -42 -21 -63c51 25 109 36 176 35c110 133 192 301 275 471c-14 1 -31 2 -43 2
c-70 0 -132 -20 -179 -85zM1540 1537c33 27 114 -14 90 -83c-25 -64 -122 -196 -206 -204c-26 -2 -52 7 -72 36c-6 10 7 1 23 8c87 40 138 181 165 243z" />
    <glyph glyph-name="sacute" unicode="&#x15b;" horiz-adv-x="456" 
d="M35 904c24 21 59 32 92 32c46 0 88 -21 88 -75c0 -41 -22 -96 -47 -156c-12 -30 -25 -61 -36 -93c103 -154 194 -324 196 -417c61 90 121 205 154 272c1 2 3 5 3 5l8 16h-1c6 13 10 22 25 22c12 0 21 -8 26 -20l-6 -12l-3 -3c-58 -118 -182 -366 -288 -446
c-65 -44 -160 -71 -236 -71c-88 0 -157 32 -151 101c2 19 22 43 43 43c16 0 16 -18 15 -34c-1 -43 46 -50 85 -48c106 4 151 72 155 182c-1 71 -40 188 -90 265l-44 -99l-36 13l53 125c-46 59 -79 145 -79 227c0 64 20 127 74 171zM101 651l10 24c25 59 60 148 50 170h1
c-4 8 -8 12 -13 13c-23 4 -60 -77 -60 -148c0 -21 4 -41 12 -59zM206 1279c33 27 114 -14 90 -83c-25 -64 -122 -196 -206 -204c-26 -2 -52 7 -72 36c-6 10 7 1 23 8c87 40 138 181 165 243z" />
    <glyph glyph-name="tcaron" unicode="&#x165;" horiz-adv-x="679" 
d="M300 990c-3 -35 -11 -75 -20 -120c117 1 219 -23 265 -125h-1c6 -11 -6 -28 -22 -21c-55 56 -140 71 -233 71h-25c-13 -59 -29 -120 -45 -182l-19 -76l-3 -13c-18 -69 -65 -253 -65 -364c0 -38 5 -69 21 -80c12 -9 40 -2 78 26c83 66 159 219 205 315h-1
c18 37 33 67 48 85c1 1 5 1 11 1c10 0 18 -6 23 -19l-36 -75h1c-86 -179 -202 -420 -347 -420c-119 0 -159 62 -159 167c0 14 1 29 2 45c8 92 63 328 108 520l14 57c-45 -4 -86 -7 -125 -7c-81 0 -147 16 -172 71c-6 14 -5 39 20 24l-1 1c40 -17 88 -23 139 -23
c48 0 105 6 157 11c18 83 33 151 36 179c1 22 -2 37 -4 50c-1 7 -2 13 -2 18c2 19 18 23 37 23c104 0 121 -70 115 -139zM481 1086c-17 14 -12 30 21 55c27 23 73 33 95 1c34 -41 72 -170 28 -239v0c-21 -33 -38 -42 -49 -35c-4 4 -8 17 -4 34v0c9 44 -34 118 -91 184z" />
    <glyph glyph-name="zcaron" unicode="&#x17e;" horiz-adv-x="823" 
d="M877 501l2 2c22 13 33 3 41 -11l-259 -468c0 -6 -1 -19 -2 -26c-3 -9 -7 -16 -16 -16c-39 37 -104 47 -180 47c-50 0 -104 -4 -156 -8c-48 -4 -94 -8 -133 -8c-33 0 -62 3 -83 10c-32 9 -48 30 -48 59c0 25 12 56 41 93c127 161 401 362 523 452l42 32c-8 2 -20 3 -35 3
c-23 0 -57 -2 -89 -5c-43 -4 -94 -8 -141 -8c-71 0 -139 10 -180 44l-154 -296c-16 -5 -32 -6 -45 11l176 334c1 19 12 94 36 90c9 -3 10 -10 13 -20l4 -10c15 -27 82 -36 157 -36c53 0 109 4 157 7c34 2 61 3 79 3c71 -1 153 -38 137 -123c-1 -8 -5 -16 -14 -16
c-3 0 -8 1 -13 5l-2 1c-193 -102 -414 -329 -557 -502c8 -4 23 -5 46 -5c28 0 65 3 105 6c48 3 100 7 146 7c51 0 95 -4 120 -20c19 -12 35 -23 47 -43c19 36 38 71 235 415zM604 1083h-1c14 9 44 11 49 -1c3 -6 -12 -19 -25 -34c-9 -9 -15 -18 -18 -21
c-16 -22 -102 -132 -148 -176c-9 -14 -35 -22 -48 -20c-9 1 -15 2 -16 7c-44 30 -136 153 -169 196v-1l-8 10c-3 3 -8 11 -18 20c-14 16 -34 35 -33 42c4 19 36 32 51 31c41 -5 106 -93 160 -164c22 -29 42 -57 56 -74l23 29c47 61 109 139 145 156z" />
    <glyph glyph-name="zacute" unicode="&#x17a;" horiz-adv-x="823" 
d="M877 501l2 2c22 13 33 3 41 -11l-259 -468c0 -6 -1 -19 -2 -26c-3 -9 -7 -16 -16 -16c-39 37 -104 47 -180 47c-50 0 -104 -4 -156 -8c-48 -4 -94 -8 -133 -8c-33 0 -62 3 -83 10c-32 9 -48 30 -48 59c0 25 12 56 41 93c127 161 401 362 523 452l42 32c-8 2 -20 3 -35 3
c-23 0 -57 -2 -89 -5c-43 -4 -94 -8 -141 -8c-71 0 -139 10 -180 44l-154 -296c-16 -5 -32 -6 -45 11l176 334c1 19 12 94 36 90c9 -3 10 -10 13 -20l4 -10c15 -27 82 -36 157 -36c53 0 109 4 157 7c34 2 61 3 79 3c71 -1 153 -38 137 -123c-1 -8 -5 -16 -14 -16
c-3 0 -8 1 -13 5l-2 1c-193 -102 -414 -329 -557 -502c8 -4 23 -5 46 -5c28 0 65 3 105 6c48 3 100 7 146 7c51 0 95 -4 120 -20c19 -12 35 -23 47 -43c19 36 38 71 235 415zM570 1112c33 27 114 -14 90 -83c-25 -64 -122 -196 -206 -204c-26 -2 -52 7 -72 36
c-6 10 7 1 23 8c87 40 138 181 165 243z" />
    <glyph glyph-name="Lslash" unicode="&#x141;" horiz-adv-x="1161" 
d="M220 -339c-168 37 -228 140 -222 241c2 54 25 109 59 151c45 51 112 79 172 79c85 0 165 -51 172 -151c0 -24 -4 -47 -14 -70c48 34 108 54 179 65c31 62 59 132 84 203c-30 -10 -59 -22 -85 -36c-20 -9 -31 -24 -36 -27c-7 -4 -15 1 -19 10c-11 32 -9 56 3 75
c28 47 129 81 169 97c2 0 4 1 6 2c20 67 37 131 51 185c2 7 5 13 6 20c-32 -10 -62 -14 -94 -14c-36 0 -71 6 -103 12c-189 44 -269 220 -261 392c9 175 116 348 289 376c11 2 26 3 37 3c143 0 231 -129 216 -221c-15 -32 -28 -26 -40 -14c-3 94 -51 125 -82 132
c-11 2 -24 3 -34 3c-142 0 -228 -165 -236 -323c-5 -103 24 -208 91 -257c36 -27 81 -43 130 -43c33 0 75 11 112 26l32 112c68 252 144 522 287 617c45 27 105 45 159 45c65 0 124 -27 143 -95c5 -19 7 -38 6 -62c-10 -196 -263 -533 -433 -627l-29 -118l-17 -68l100 41
c20 12 30 25 36 28c8 4 14 0 18 -9c12 -32 10 -55 -3 -75c-28 -48 -127 -83 -169 -97c-5 -2 -9 -4 -13 -5c-27 -96 -60 -195 -104 -286c89 -7 170 -30 259 -58c282 -91 538 -272 528 -461c-1 -12 -2 -27 -5 -38c-4 -20 -44 -74 -66 -68c-18 6 -14 35 -10 46
c9 185 -523 403 -625 432c-50 18 -72 20 -106 25c-12 2 -24 3 -40 6c-99 -122 -269 -208 -420 -208c-26 0 -53 2 -78 7zM1005 740l-17 -82c119 53 337 346 346 525c6 88 -46 134 -117 72c-130 -114 -181 -362 -212 -515zM281 -200v1c33 39 67 98 70 150c1 10 0 22 -2 32
c-12 49 -53 73 -96 73c-33 0 -68 -15 -91 -42c-27 -31 -40 -74 -43 -115c-3 -61 18 -124 68 -155c31 -20 61 -28 89 -28c90 0 172 82 228 156c-78 -8 -141 -37 -172 -90c-21 -18 -53 -9 -51 18z" />
    <glyph glyph-name="Aogonek" unicode="&#x104;" horiz-adv-x="1680" 
d="M344 646c117 0 195 -77 195 -179c0 -27 -5 -56 -17 -89c160 123 383 166 531 123c163 261 305 563 377 845v-1c3 8 10 17 18 19c8 11 22 16 41 16c120 0 148 -84 148 -177c0 -13 0 -35 -1 -50c-20 -183 -88 -467 -151 -733c106 2 208 62 297 182c23 17 36 5 40 -17
c-108 -163 -222 -208 -351 -220c-17 -94 -26 -205 -26 -312c0 -249 57 -493 251 -493c39 0 89 12 142 36c18 -6 29 -14 29 -24c0 -9 -8 -24 -18 -36c-81 -35 -152 -49 -219 -49c-277 0 -375 306 -375 623c0 86 8 181 22 267c-68 12 -129 28 -200 48
c-117 -182 -257 -357 -398 -480c-93 -80 -196 -155 -331 -155c-198 0 -380 156 -380 400c0 208 141 456 376 456zM1013 436l-2 5c-48 12 -91 16 -130 16c-160 0 -302 -83 -421 -218c-8 -5 -20 -10 -28 -10c-16 0 -31 9 -30 27c49 55 95 135 82 215c-21 57 -63 78 -95 81
c-100 4 -215 -168 -244 -339c-26 -140 37 -366 222 -366c41 0 81 12 126 33c155 83 346 295 520 556zM1419 1075l-6 2c-72 -176 -176 -388 -301 -596c60 -18 115 -35 175 -48c60 269 105 487 132 642zM1678 -458c7 -89 -2 -243 123 -243c17 0 30 2 21 -8
c-26 -29 -52 -38 -78 -36c-82 8 -171 112 -185 176c-12 69 90 138 119 111z" />
    <glyph glyph-name="Scedilla" unicode="&#x15e;" horiz-adv-x="1177" 
d="M88 41c9 0 12 -8 9 -22l-7 -14c-6 -11 -13 -23 -13 -42c0 -11 3 -28 10 -49c41 -153 185 -220 346 -220c73 0 154 15 221 38c100 41 267 133 267 238c0 17 -3 32 -7 43c-20 41 -73 69 -133 86c-56 13 -131 27 -188 37l-26 4c-217 36 -443 82 -513 283
c-11 39 -22 88 -22 129c0 73 20 168 57 271c89 245 297 458 521 495h-1c37 10 68 13 97 13c262 0 503 -279 503 -555c0 -17 -1 -39 -3 -58c-29 -183 -207 -325 -356 -325c-79 0 -152 48 -185 142c-6 19 -5 37 8 48c17 12 31 -9 42 -31c26 -64 72 -93 116 -93
c90 0 185 118 185 282h1c-11 228 -197 494 -399 495c-222 2 -319 -228 -325 -453c-1 -17 -2 -34 -2 -51c0 -78 11 -143 36 -200c56 -140 202 -197 328 -242l22 -8c41 -15 84 -31 118 -49c80 -38 154 -103 185 -198c10 -33 15 -66 15 -100c0 -177 -142 -335 -310 -409
c-63 -26 -136 -40 -209 -40c-247 0 -500 162 -485 380c5 51 37 175 97 175zM458 -447c-23 -89 -40 -243 -165 -243c-17 0 -29 2 -23 -8c20 -29 46 -38 72 -36c84 8 191 112 215 176c24 69 -66 138 -99 111z" />
    <glyph glyph-name="Zdotaccent" unicode="&#x17b;" horiz-adv-x="1457" 
d="M1635 1133c80 -1 205 35 185 64c-22 31 -163 -57 -185 -64zM471 -92c36 40 67 90 65 136c0 59 -45 88 -95 88c-28 0 -59 -10 -80 -28c-55 -47 -78 -100 -78 -148c0 -82 66 -152 156 -152c31 0 66 7 100 25c40 20 74 44 110 73c-50 0 -96 -12 -130 -33c2 3 -12 -8 -17 -13
c-20 -16 -39 -35 -59 -11c-19 22 -2 36 15 51zM803 393l-1 -1c-15 -12 -26 10 -19 26h-1c49 124 128 157 215 157c24 0 47 -1 70 -5c80 166 167 330 279 456c-116 19 -249 59 -374 96c-171 53 -342 104 -479 104c-49 0 -96 -6 -137 -23c-111 -40 -161 -149 -161 -251
c0 -32 4 -63 14 -91c17 -56 64 -88 121 -87c61 4 116 121 133 192c2 2 2 7 4 12c2 17 5 40 26 37c28 -5 21 -40 14 -57c-19 -79 -63 -173 -129 -227c-39 -30 -82 -45 -120 -45c-75 0 -143 55 -163 129c-10 38 -15 73 -15 109c0 106 52 199 123 265c119 103 313 161 468 161
c28 0 55 -2 82 -5c129 -16 267 -56 398 -94c119 -36 243 -71 353 -87c82 55 168 92 251 92c24 0 45 -3 67 -9c34 -10 48 -37 34 -68c-43 -94 -188 -142 -309 -156c-109 -132 -207 -339 -270 -478l-6 -11c12 -1 27 -2 38 -2c34 0 72 10 101 25c22 16 21 -16 14 -32
c-28 -67 -78 -88 -141 -88c-17 0 -35 0 -53 3c-73 -158 -164 -326 -275 -464c87 -21 180 -62 266 -106c237 -128 448 -328 448 -507c0 -31 -6 -60 -15 -84c-11 -19 -67 -81 -92 -68c-20 11 -7 41 -2 53c3 10 5 21 5 31c0 186 -441 444 -533 490c-58 31 -121 57 -184 79
c-88 -79 -189 -133 -297 -146c-13 -2 -31 -2 -45 -2c-142 0 -321 72 -347 210c-3 12 -4 23 -4 35c0 74 49 154 106 206c45 39 103 57 154 57c105 0 196 -70 180 -191c-3 -23 -8 -42 -21 -63c51 25 109 36 176 35c110 133 192 301 275 471c-14 1 -31 2 -43 2
c-70 0 -132 -20 -179 -85zM1495 1399c15 -25 20 -47 18 -65c-4 -43 -44 -67 -80 -67c-31 0 -59 20 -54 77c4 42 31 88 67 88c16 0 33 -9 49 -33z" />
    <glyph glyph-name="uni00AD" unicode="&#xad;" horiz-adv-x="487" 
d="M425 549c16 3 27 12 31 12c7 2 9 -5 8 -14c-2 -33 -10 -53 -25 -67c-31 -32 -104 -29 -135 -28c-55 2 -106 5 -155 7c-30 1 -63 4 -94 -2c-15 -2 -27 -11 -30 -12c-7 -1 -9 6 -8 15c2 33 10 54 25 67c30 32 104 29 135 28c55 -2 105 -5 155 -7c14 -1 28 0 93 1z" />
    <glyph glyph-name="lslash" unicode="&#x142;" horiz-adv-x="455" 
d="M387 1105c67 0 87 -93 83 -150c-16 -178 -163 -364 -301 -490c-1 0 -14 -50 -26 -110l36 27c15 11 29 22 90 72c13 15 17 29 22 32c4 7 12 3 16 -3c18 -27 23 -47 18 -68c-12 -49 -83 -102 -113 -124l-87 -66v-30c0 -64 15 -114 59 -114c109 0 219 225 279 349
c16 36 30 65 38 75c5 4 12 5 16 5c12 0 19 -8 24 -19l-34 -69h1c-84 -179 -203 -426 -350 -426c-93 0 -137 62 -154 138c-11 -9 -22 -20 -32 -30c-14 -13 -19 -28 -22 -32c-6 -6 -13 -3 -17 5c-19 25 -24 47 -19 68c8 33 47 70 80 97c0 15 1 30 2 44v-1
c16 190 157 820 391 820zM401 1026c-43 0 -141 -205 -210 -476c55 49 217 239 231 391c4 34 -1 85 -21 85z" />
    <glyph glyph-name="aogonek" unicode="&#x105;" horiz-adv-x="731" 
d="M533 472l-1 -1c-3 -4 -20 -9 -25 -9c-7 0 -15 4 -21 12c5 14 7 27 9 41c3 68 -24 153 -97 153c-141 0 -296 -363 -306 -480c-3 -38 1 -90 48 -90c84 0 190 191 240 289c4 15 16 35 14 59c-2 18 19 23 39 24c79 -7 105 -39 109 -81c4 -43 -14 -95 -21 -138
c-5 -27 -31 -184 19 -139c65 65 148 215 200 314c15 32 31 63 42 81c5 2 10 3 15 3c12 0 19 -8 24 -19l-10 -22c-55 -111 -172 -349 -266 -426c-27 -22 -67 -39 -103 -39c-95 0 -103 156 -93 223c0 3 0 1 1 10c-72 -119 -175 -237 -287 -237c-105 0 -139 79 -139 170
c0 8 0 20 1 29c25 201 217 561 444 561c117 0 184 -123 176 -234c-2 -19 -6 -37 -12 -54zM518 71c7 -89 -2 -243 123 -243c17 0 30 2 21 -8c-26 -29 -52 -38 -78 -36c-82 8 -171 112 -185 176c-12 69 90 138 119 111z" />
    <glyph glyph-name="scedilla" unicode="&#x15f;" horiz-adv-x="456" 
d="M35 904c24 21 59 32 92 32c46 0 88 -21 88 -75c0 -41 -22 -96 -47 -156c-12 -30 -25 -61 -36 -93c103 -154 194 -324 196 -417c61 90 121 205 154 272c1 2 3 5 3 5l8 16h-1c6 13 10 22 25 22c12 0 21 -8 26 -20l-6 -12l-3 -3c-58 -118 -182 -366 -288 -446
c-65 -44 -160 -71 -236 -71c-88 0 -157 32 -151 101c2 19 22 43 43 43c16 0 16 -18 15 -34c-1 -43 46 -50 85 -48c106 4 151 72 155 182c-1 71 -40 188 -90 265l-44 -99l-36 13l53 125c-46 59 -79 145 -79 227c0 64 20 127 74 171zM101 651l10 24c25 59 60 148 50 170h1
c-4 8 -8 12 -13 13c-23 4 -60 -77 -60 -148c0 -21 4 -41 12 -59zM56 4c-23 -89 -40 -243 -165 -243c-17 0 -29 2 -23 -8c20 -29 46 -38 72 -36c84 8 191 112 215 176c24 69 -66 138 -99 111z" />
    <glyph glyph-name="Lcaron" unicode="&#x13d;" horiz-adv-x="1161" 
d="M1433 1651h-1c14 9 44 11 49 -1c3 -6 -12 -19 -25 -34c-9 -9 -15 -18 -18 -21c-16 -22 -102 -132 -148 -176c-9 -14 -35 -22 -48 -20c-9 1 -15 2 -16 7c-44 30 -136 153 -169 196v-1l-8 10c-3 3 -8 11 -18 20c-14 16 -34 35 -33 42c4 19 36 32 51 31
c41 -5 106 -93 160 -164c22 -29 42 -57 56 -74l23 29c47 61 109 139 145 156zM220 -339c-168 37 -228 140 -222 241c2 54 25 109 59 151c45 51 112 79 172 79c85 0 165 -51 172 -151c0 -24 -4 -47 -14 -70c48 34 108 54 179 65c80 156 136 367 173 509c2 7 5 13 6 20
c-32 -10 -62 -14 -94 -14c-36 0 -71 6 -103 12c-189 44 -269 220 -261 392c9 175 116 348 289 376c11 2 26 3 37 3c143 0 231 -129 216 -221c-15 -32 -28 -26 -40 -14c-3 94 -51 125 -82 132c-11 2 -24 3 -34 3c-142 0 -228 -165 -236 -323c-5 -103 24 -208 91 -257
c36 -27 81 -43 130 -43c33 0 75 11 112 26l32 112c68 252 144 522 287 617c45 27 105 45 159 45c65 0 124 -27 143 -95c5 -19 7 -38 6 -62c-10 -196 -263 -533 -433 -627l-29 -118c-36 -142 -78 -318 -152 -471c89 -7 170 -30 259 -58c282 -91 538 -272 528 -461
c-1 -12 -2 -27 -5 -38c-4 -20 -44 -74 -66 -68c-18 6 -14 35 -10 46c9 185 -523 403 -625 432c-50 18 -72 20 -106 25c-12 2 -24 3 -40 6c-99 -122 -269 -208 -420 -208c-26 0 -53 2 -78 7zM1005 740l-17 -82c119 53 337 346 346 525c6 88 -46 134 -117 72
c-130 -114 -181 -362 -212 -515zM281 -200v1c33 39 67 98 70 150c1 10 0 22 -2 32c-12 49 -53 73 -96 73c-33 0 -68 -15 -91 -42c-27 -31 -40 -74 -43 -115c-3 -61 18 -124 68 -155c31 -20 61 -28 89 -28c90 0 172 82 228 156c-78 -8 -141 -37 -172 -90
c-21 -18 -53 -9 -51 18z" />
    <glyph glyph-name="lcaron" unicode="&#x13e;" horiz-adv-x="704" 
d="M387 1105c67 0 87 -93 83 -150c-16 -178 -163 -364 -301 -490c-1 0 -32 -118 -42 -223c-2 -17 -2 -32 -2 -47c0 -64 15 -114 59 -114c109 0 219 225 279 349c16 36 30 65 38 75c5 4 12 5 16 5c12 0 19 -8 24 -19l-34 -69h1c-84 -179 -203 -426 -350 -426
c-130 0 -164 122 -164 236c0 18 0 37 2 54v-1c16 190 157 820 391 820zM401 1026c-43 0 -141 -205 -210 -476c55 49 217 239 231 391c4 34 -1 85 -21 85zM506 1086c-17 14 -12 30 21 55c27 23 73 33 95 1c34 -41 72 -170 28 -239v0c-21 -33 -38 -42 -49 -35
c-4 4 -8 17 -4 34v0c9 44 -34 118 -91 184z" />
    <glyph glyph-name="zdotaccent" unicode="&#x17c;" horiz-adv-x="823" 
d="M877 501l2 2c22 13 33 3 41 -11l-259 -468c0 -6 -1 -19 -2 -26c-3 -9 -7 -16 -16 -16c-39 37 -104 47 -180 47c-50 0 -104 -4 -156 -8c-48 -4 -94 -8 -133 -8c-33 0 -62 3 -83 10c-32 9 -48 30 -48 59c0 25 12 56 41 93c127 161 401 362 523 452l42 32c-8 2 -20 3 -35 3
c-23 0 -57 -2 -89 -5c-43 -4 -94 -8 -141 -8c-71 0 -139 10 -180 44l-154 -296c-16 -5 -32 -6 -45 11l176 334c1 19 12 94 36 90c9 -3 10 -10 13 -20l4 -10c15 -27 82 -36 157 -36c53 0 109 4 157 7c34 2 61 3 79 3c71 -1 153 -38 137 -123c-1 -8 -5 -16 -14 -16
c-3 0 -8 1 -13 5l-2 1c-193 -102 -414 -329 -557 -502c8 -4 23 -5 46 -5c28 0 65 3 105 6c48 3 100 7 146 7c51 0 95 -4 120 -20c19 -12 35 -23 47 -43c19 36 38 71 235 415zM561 1001c15 -25 20 -47 18 -65c-4 -43 -44 -67 -80 -67c-31 0 -59 20 -54 77c4 42 31 88 67 88
c16 0 33 -9 49 -33z" />
    <glyph glyph-name="Racute" unicode="&#x154;" horiz-adv-x="1478" 
d="M499 458l1 3c15 18 27 45 32 79c17 13 31 22 46 -14c0 -33 -13 -63 -33 -98c-37 -57 -85 -89 -139 -109c-37 -14 -72 -20 -107 -20c-168 0 -257 160 -257 329c0 47 9 102 27 152c84 242 307 431 505 538c132 67 291 107 425 107c125 0 243 -29 338 -92
c149 -102 214 -275 214 -451c0 -290 -200 -602 -486 -655h1c15 0 -17 -2 -26 -3h-2l66 -128c146 -286 311 -599 608 -599c46 0 53 1 63 2c0 0 1 2 4 3c6 2 13 2 18 -5c14 -17 -5 -37 -15 -40c-65 -14 -125 -21 -181 -21c-432 0 -594 410 -680 716
c-73 -252 -182 -468 -406 -468c-52 0 -111 11 -176 38c-20 21 -21 38 16 49c26 -7 51 -10 81 -10c164 0 243 169 286 334c60 233 97 534 113 752h-1c0 21 -4 44 -8 54l-6 17c0 15 18 23 40 24c119 6 142 -63 144 -136c2 -147 -20 -305 -52 -501c215 -5 351 248 351 499
c0 240 -124 474 -425 474c-74 0 -170 -18 -270 -52c-203 -88 -395 -265 -434 -495c-5 -26 -7 -54 -7 -80c0 -134 64 -258 194 -258h31c41 6 79 27 108 66zM1111 1786c33 27 114 -14 90 -83c-25 -64 -122 -196 -206 -204c-26 -2 -52 7 -72 36c-6 10 7 1 23 8
c87 40 138 181 165 243z" />
    <glyph glyph-name="Abreve" unicode="&#x102;" horiz-adv-x="1680" 
d="M344 646c117 0 195 -77 195 -179c0 -27 -5 -56 -17 -89c160 123 383 166 531 123c163 261 305 563 377 845v-1c3 8 10 17 18 19c8 11 22 16 41 16c120 0 148 -84 148 -177c0 -13 0 -35 -1 -50c-20 -183 -88 -467 -151 -733c106 2 208 62 297 182c23 17 36 5 40 -17
c-108 -163 -222 -208 -351 -220c-17 -94 -26 -205 -26 -312c0 -249 57 -493 251 -493c39 0 89 12 142 36c18 -6 29 -14 29 -24c0 -9 -8 -24 -18 -36c-81 -35 -152 -49 -219 -49c-277 0 -375 306 -375 623c0 86 8 181 22 267c-68 12 -129 28 -200 48
c-117 -182 -257 -357 -398 -480c-93 -80 -196 -155 -331 -155c-198 0 -380 156 -380 400c0 208 141 456 376 456zM1013 436l-2 5c-48 12 -91 16 -130 16c-160 0 -302 -83 -421 -218c-8 -5 -20 -10 -28 -10c-16 0 -31 9 -30 27c49 55 95 135 82 215c-21 57 -63 78 -95 81
c-100 4 -215 -168 -244 -339c-26 -140 37 -366 222 -366c41 0 81 12 126 33c155 83 346 295 520 556zM1419 1075l-6 2c-72 -176 -176 -388 -301 -596c60 -18 115 -35 175 -48c60 269 105 487 132 642zM1297 1619c-1 10 12 43 22 44c12 -2 12 -13 14 -21c-1 -1 0 -2 0 -3
c23 -60 126 -95 225 -95c88 0 174 25 205 73l1 2c2 8 7 19 18 19c8 -2 12 -33 11 -46c-27 -89 -134 -133 -242 -133c-126 0 -254 57 -254 160z" />
    <glyph glyph-name="Lacute" unicode="&#x139;" horiz-adv-x="1161" 
d="M220 -339c-168 37 -228 140 -222 241c2 54 25 109 59 151c45 51 112 79 172 79c85 0 165 -51 172 -151c0 -24 -4 -47 -14 -70c48 34 108 54 179 65c80 156 136 367 173 509c2 7 5 13 6 20c-32 -10 -62 -14 -94 -14c-36 0 -71 6 -103 12c-189 44 -269 220 -261 392
c9 175 116 348 289 376c11 2 26 3 37 3c143 0 231 -129 216 -221c-15 -32 -28 -26 -40 -14c-3 94 -51 125 -82 132c-11 2 -24 3 -34 3c-142 0 -228 -165 -236 -323c-5 -103 24 -208 91 -257c36 -27 81 -43 130 -43c33 0 75 11 112 26l32 112c68 252 144 522 287 617
c45 27 105 45 159 45c65 0 124 -27 143 -95c5 -19 7 -38 6 -62c-10 -196 -263 -533 -433 -627l-29 -118c-36 -142 -78 -318 -152 -471c89 -7 170 -30 259 -58c282 -91 538 -272 528 -461c-1 -12 -2 -27 -5 -38c-4 -20 -44 -74 -66 -68c-18 6 -14 35 -10 46
c9 185 -523 403 -625 432c-50 18 -72 20 -106 25c-12 2 -24 3 -40 6c-99 -122 -269 -208 -420 -208c-26 0 -53 2 -78 7zM1005 740l-17 -82c119 53 337 346 346 525c6 88 -46 134 -117 72c-130 -114 -181 -362 -212 -515zM281 -200v1c33 39 67 98 70 150c1 10 0 22 -2 32
c-12 49 -53 73 -96 73c-33 0 -68 -15 -91 -42c-27 -31 -40 -74 -43 -115c-3 -61 18 -124 68 -155c31 -20 61 -28 89 -28c90 0 172 82 228 156c-78 -8 -141 -37 -172 -90c-21 -18 -53 -9 -51 18zM1273 1713c33 27 114 -14 90 -83c-25 -64 -122 -196 -206 -204
c-26 -2 -52 7 -72 36c-6 10 7 1 23 8c87 40 138 181 165 243z" />
    <glyph glyph-name="Cacute" unicode="&#x106;" horiz-adv-x="1378" 
d="M1452 456l-31 -58c-99 -170 -229 -394 -354 -544c-144 -169 -372 -272 -555 -249c-394 50 -312 580 -206 907c-157 4 -239 161 -232 335c12 131 85 337 195 358c30 6 42 -20 41 -36c1 -10 -4 -15 -9 -15c-6 -1 -11 0 -16 1h-8c-64 -13 -117 -152 -127 -250
c-3 -146 65 -295 205 -286c120 301 399 724 766 724c73 0 139 -31 185 -98c58 -87 87 -212 82 -320c-5 -116 -52 -210 -148 -230c-77 -12 -175 35 -176 150c-89 -102 -251 -219 -436 -288c-49 -136 -90 -289 -102 -432c-2 -22 -3 -45 -4 -67c-19 -119 22 -259 121 -310
c119 -63 272 31 372 130c131 145 261 366 352 521h-1l41 71c20 13 34 9 45 -14zM1122 947c-4 -13 -6 -27 -8 -40c-7 -90 40 -172 113 -163c40 13 66 69 69 141c10 168 -69 392 -206 373c-153 -34 -316 -314 -423 -583c157 53 327 143 414 293c30 32 50 4 41 -21zM1196 1681
c33 27 114 -14 90 -83c-25 -64 -122 -196 -206 -204c-26 -2 -52 7 -72 36c-6 10 7 1 23 8c87 40 138 181 165 243z" />
    <glyph glyph-name="Ccaron" unicode="&#x10c;" horiz-adv-x="1378" 
d="M1452 456l-31 -58c-99 -170 -229 -394 -354 -544c-144 -169 -372 -272 -555 -249c-394 50 -312 580 -206 907c-157 4 -239 161 -232 335c12 131 85 337 195 358c30 6 42 -20 41 -36c1 -10 -4 -15 -9 -15c-6 -1 -11 0 -16 1h-8c-64 -13 -117 -152 -127 -250
c-3 -146 65 -295 205 -286c120 301 399 724 766 724c73 0 139 -31 185 -98c58 -87 87 -212 82 -320c-5 -116 -52 -210 -148 -230c-77 -12 -175 35 -176 150c-89 -102 -251 -219 -436 -288c-49 -136 -90 -289 -102 -432c-2 -22 -3 -45 -4 -67c-19 -119 22 -259 121 -310
c119 -63 272 31 372 130c131 145 261 366 352 521h-1l41 71c20 13 34 9 45 -14zM1122 947c-4 -13 -6 -27 -8 -40c-7 -90 40 -172 113 -163c40 13 66 69 69 141c10 168 -69 392 -206 373c-153 -34 -316 -314 -423 -583c157 53 327 143 414 293c30 32 50 4 41 -21zM1301 1636
h-1c14 9 44 11 49 -1c3 -6 -12 -19 -25 -34c-9 -9 -15 -18 -18 -21c-16 -22 -102 -132 -148 -176c-9 -14 -35 -22 -48 -20c-9 1 -15 2 -16 7c-44 30 -136 153 -169 196v-1l-8 10c-3 3 -8 11 -18 20c-14 16 -34 35 -33 42c4 19 36 32 51 31c41 -5 106 -93 160 -164
c22 -29 42 -57 56 -74l23 29c47 61 109 139 145 156z" />
    <glyph glyph-name="Eogonek" unicode="&#x118;" horiz-adv-x="1462" 
d="M544 -503c-206 36 -288 180 -288 345c0 221 146 485 342 595c-78 33 -130 90 -159 146c-141 14 -254 112 -284 275c-4 20 -6 47 -6 72c0 10 0 25 1 35c8 113 48 243 130 274c33 10 53 -13 54 -30c0 -7 -1 -13 -8 -16c-5 -2 -13 -2 -20 -2c-4 0 -7 0 -9 -1
c-48 -19 -74 -104 -78 -186c-2 -24 -1 -55 3 -79c23 -108 94 -224 188 -246c-1 17 -2 39 -1 58c15 262 324 588 587 630c9 1 24 1 32 1c242 0 335 -240 333 -447c-6 -104 -54 -215 -139 -236c-78 -11 -180 36 -186 151c-65 -78 -194 -176 -324 -245c16 -28 54 -43 85 -49
c12 -2 29 -4 40 -4c20 0 37 2 55 5c2 0 3 1 5 1s3 1 5 1c25 3 48 5 67 1c21 -6 30 -19 28 -34c0 -16 -12 -33 -32 -43c-161 -80 -408 -393 -408 -623c0 -81 36 -156 116 -201c29 -14 62 -22 91 -22c147 0 302 162 385 276c99 141 214 332 346 571c16 8 28 11 35 6
c4 -3 6 -11 5 -20c-126 -239 -244 -433 -338 -574c-134 -193 -358 -391 -585 -391c-22 0 -45 2 -68 6zM1094 945c-3 -16 -5 -29 -5 -42c-5 -89 48 -173 117 -165c36 15 62 71 63 142c3 143 -35 338 -164 338c-33 0 -76 -16 -123 -45c-157 -106 -327 -312 -335 -477
c-1 -8 -1 -21 0 -30c152 52 319 146 404 302c8 10 17 13 24 13c16 0 24 -20 19 -36zM688 -416c7 -89 -2 -243 123 -243c17 0 30 2 21 -8c-26 -29 -52 -38 -78 -36c-82 8 -171 112 -185 176c-12 69 90 138 119 111z" />
    <glyph glyph-name="Ecaron" unicode="&#x11a;" horiz-adv-x="1462" 
d="M544 -503c-206 36 -288 180 -288 345c0 221 146 485 342 595c-78 33 -130 90 -159 146c-141 14 -254 112 -284 275c-4 20 -6 47 -6 72c0 10 0 25 1 35c8 113 48 243 130 274c33 10 53 -13 54 -30c0 -7 -1 -13 -8 -16c-5 -2 -13 -2 -20 -2c-4 0 -7 0 -9 -1
c-48 -19 -74 -104 -78 -186c-2 -24 -1 -55 3 -79c23 -108 94 -224 188 -246c-1 17 -2 39 -1 58c15 262 324 588 587 630c9 1 24 1 32 1c242 0 335 -240 333 -447c-6 -104 -54 -215 -139 -236c-78 -11 -180 36 -186 151c-65 -78 -194 -176 -324 -245c16 -28 54 -43 85 -49
c12 -2 29 -4 40 -4c20 0 37 2 55 5c2 0 3 1 5 1s3 1 5 1c25 3 48 5 67 1c21 -6 30 -19 28 -34c0 -16 -12 -33 -32 -43c-161 -80 -408 -393 -408 -623c0 -81 36 -156 116 -201c29 -14 62 -22 91 -22c147 0 302 162 385 276c99 141 214 332 346 571c16 8 28 11 35 6
c4 -3 6 -11 5 -20c-126 -239 -244 -433 -338 -574c-134 -193 -358 -391 -585 -391c-22 0 -45 2 -68 6zM1094 945c-3 -16 -5 -29 -5 -42c-5 -89 48 -173 117 -165c36 15 62 71 63 142c3 143 -35 338 -164 338c-33 0 -76 -16 -123 -45c-157 -106 -327 -312 -335 -477
c-1 -8 -1 -21 0 -30c152 52 319 146 404 302c8 10 17 13 24 13c16 0 24 -20 19 -36zM1219 1662h-1c14 9 44 11 49 -1c3 -6 -12 -19 -25 -34c-9 -9 -15 -18 -18 -21c-16 -22 -102 -132 -148 -176c-9 -14 -35 -22 -48 -20c-9 1 -15 2 -16 7c-44 30 -136 153 -169 196v-1l-8 10
c-3 3 -8 11 -18 20c-14 16 -34 35 -33 42c4 19 36 32 51 31c41 -5 106 -93 160 -164c22 -29 42 -57 56 -74l23 29c47 61 109 139 145 156z" />
    <glyph glyph-name="Dcaron" unicode="&#x10e;" horiz-adv-x="1395" 
d="M748 994l-1 -1h1c-41 -274 -138 -837 -167 -987v1c-25 -70 -68 -140 -166 -140c-22 0 -29 0 -34 1h1c-24 9 -45 18 -34 42c-2 8 3 16 6 21c7 10 18 30 28 52c46 148 78 405 103 595l7 54c18 136 34 264 55 329c-65 -38 -154 -74 -223 -85c-79 -7 -144 27 -144 90
c0 24 12 53 34 86c70 92 220 172 288 203c151 67 289 98 400 98c335 0 487 -268 487 -599c0 -122 -31 -285 -68 -411c-113 -310 -376 -644 -689 -764c-87 -27 -189 -46 -276 -46c-117 0 -233 33 -325 97c-104 82 -177 207 -177 353c0 48 10 108 25 161
c64 167 250 306 382 306c85 0 149 -50 149 -170c0 -26 -2 -51 -7 -75v1c-14 -25 -32 -21 -43 -10c1 14 2 28 2 40c0 97 -36 138 -86 138c-86 0 -208 -115 -252 -248c-19 -64 -30 -127 -30 -179c0 -108 34 -200 102 -264c59 -60 143 -84 230 -84s180 26 255 69
c196 118 374 412 465 696c44 143 73 305 73 435c0 256 -94 451 -324 451c-71 0 -166 -22 -268 -66c-108 -45 -197 -102 -237 -146c-23 -26 -35 -50 -35 -67c0 -20 21 -31 61 -22c54 16 129 58 187 92l41 24c29 16 54 30 68 35c28 11 55 17 72 17c58 0 68 -52 64 -123z
M1050 1657h-1c14 9 44 11 49 -1c3 -6 -12 -19 -25 -34c-9 -9 -15 -18 -18 -21c-16 -22 -102 -132 -148 -176c-9 -14 -35 -22 -48 -20c-9 1 -15 2 -16 7c-44 30 -136 153 -169 196v-1l-8 10c-3 3 -8 11 -18 20c-14 16 -34 35 -33 42c4 19 36 32 51 31c41 -5 106 -93 160 -164
c22 -29 42 -57 56 -74l23 29c47 61 109 139 145 156z" />
    <glyph glyph-name="Dcroat" unicode="&#x110;" horiz-adv-x="1395" 
d="M748 543c16 3 27 12 31 12c7 2 9 -5 8 -14c-2 -33 -10 -53 -25 -67c-23 -24 -68 -28 -103 -29c-33 -190 -64 -365 -78 -439v1c-25 -70 -68 -140 -166 -140c-22 0 -29 0 -34 1h1c-24 9 -45 18 -34 42c-2 8 3 16 6 21c7 10 18 30 28 52c36 117 64 303 86 470
c-29 1 -60 4 -90 -2c-15 -2 -27 -11 -30 -12c-7 -1 -9 6 -8 15c2 33 10 54 25 67c25 27 80 29 116 28l4 29l7 54c18 136 34 264 55 329c-65 -38 -154 -74 -223 -85c-79 -7 -144 27 -144 90c0 24 12 53 34 86c70 92 220 172 288 203c151 67 289 98 400 98
c335 0 487 -268 487 -599c0 -122 -31 -285 -68 -411c-113 -310 -376 -644 -689 -764c-87 -27 -189 -46 -276 -46c-117 0 -233 33 -325 97c-104 82 -177 207 -177 353c0 48 10 108 25 161c64 167 250 306 382 306c85 0 149 -50 149 -170c0 -26 -2 -51 -7 -75v1
c-14 -25 -32 -21 -43 -10c1 14 2 28 2 40c0 97 -36 138 -86 138c-86 0 -208 -115 -252 -248c-19 -64 -30 -127 -30 -179c0 -108 34 -200 102 -264c59 -60 143 -84 230 -84s180 26 255 69c196 118 374 412 465 696c44 143 73 305 73 435c0 256 -94 451 -324 451
c-71 0 -166 -22 -268 -66c-108 -45 -197 -102 -237 -146c-23 -26 -35 -50 -35 -67c0 -20 21 -31 61 -22c54 16 129 58 187 92l41 24c29 16 54 30 68 35c28 11 55 17 72 17c58 0 68 -52 64 -123l-1 -1h1c-18 -117 -45 -285 -73 -452c13 0 32 1 73 2z" />
    <glyph glyph-name="Nacute" unicode="&#x143;" horiz-adv-x="1830" 
d="M1333 1050c16 -24 26 -86 33 -131l3 -28h1c44 -245 54 -500 107 -751c113 280 191 568 320 855c65 135 164 265 294 275c46 -1 109 -16 161 -50c10 -22 8 -35 -21 -43c-27 13 -55 20 -80 20c-15 0 -31 -3 -47 -8c-71 -26 -130 -112 -173 -200
c-118 -238 -260 -751 -350 -921c-20 -40 -53 -79 -100 -79c-16 0 -32 3 -49 11c-8 5 -13 12 -14 18c-2 3 -6 10 -6 13c-67 219 -69 479 -106 731c-13 -45 -28 -93 -44 -139c-11 -34 -23 -70 -34 -106l-22 -68c-28 -96 -65 -208 -101 -303c-103 -277 -258 -558 -511 -689
c-65 -33 -145 -52 -220 -52c-48 0 -94 7 -136 20c-199 59 -295 234 -277 443c3 31 9 66 22 109v-1c53 204 217 385 414 404c191 11 263 -161 248 -334c-2 -18 -5 -42 -8 -60c-1 -3 -1 -10 -2 -12c-6 -33 -22 -94 -54 -82c-22 7 -16 25 -10 41l6 14v-1c5 18 9 47 13 85
c9 109 -16 229 -103 234c-93 23 -272 -144 -354 -322c-17 -45 -32 -103 -36 -147c-13 -146 51 -277 157 -301l-1 1h28c321 0 531 459 634 727c65 175 120 365 166 530l13 45c5 17 11 35 15 52c21 66 34 120 38 148c3 23 -1 42 -5 54c-4 13 -5 21 -5 23c2 19 24 26 50 25
c69 3 121 -12 146 -50zM1686 1428c33 27 114 -14 90 -83c-25 -64 -122 -196 -206 -204c-26 -2 -52 7 -72 36c-6 10 7 1 23 8c87 40 138 181 165 243z" />
    <glyph glyph-name="Ncaron" unicode="&#x147;" horiz-adv-x="1830" 
d="M1333 1050c16 -24 26 -86 33 -131l3 -28h1c44 -245 54 -500 107 -751c113 280 191 568 320 855c65 135 164 265 294 275c46 -1 109 -16 161 -50c10 -22 8 -35 -21 -43c-27 13 -55 20 -80 20c-15 0 -31 -3 -47 -8c-71 -26 -130 -112 -173 -200
c-118 -238 -260 -751 -350 -921c-20 -40 -53 -79 -100 -79c-16 0 -32 3 -49 11c-8 5 -13 12 -14 18c-2 3 -6 10 -6 13c-67 219 -69 479 -106 731c-13 -45 -28 -93 -44 -139c-11 -34 -23 -70 -34 -106l-22 -68c-28 -96 -65 -208 -101 -303c-103 -277 -258 -558 -511 -689
c-65 -33 -145 -52 -220 -52c-48 0 -94 7 -136 20c-199 59 -295 234 -277 443c3 31 9 66 22 109v-1c53 204 217 385 414 404c191 11 263 -161 248 -334c-2 -18 -5 -42 -8 -60c-1 -3 -1 -10 -2 -12c-6 -33 -22 -94 -54 -82c-22 7 -16 25 -10 41l6 14v-1c5 18 9 47 13 85
c9 109 -16 229 -103 234c-93 23 -272 -144 -354 -322c-17 -45 -32 -103 -36 -147c-13 -146 51 -277 157 -301l-1 1h28c321 0 531 459 634 727c65 175 120 365 166 530l13 45c5 17 11 35 15 52c21 66 34 120 38 148c3 23 -1 42 -5 54c-4 13 -5 21 -5 23c2 19 24 26 50 25
c69 3 121 -12 146 -50zM1791 1372h-1c14 9 44 11 49 -1c3 -6 -12 -19 -25 -34c-9 -9 -15 -18 -18 -21c-16 -22 -102 -132 -148 -176c-9 -14 -35 -22 -48 -20c-9 1 -15 2 -16 7c-44 30 -136 153 -169 196v-1l-8 10c-3 3 -8 11 -18 20c-14 16 -34 35 -33 42c4 19 36 32 51 31
c41 -5 106 -93 160 -164c22 -29 42 -57 56 -74l23 29c47 61 109 139 145 156z" />
    </font>
</defs>
</svg>
