<?xml version="1.0" encoding="utf-8"?>
<!-- Generator: Adobe Illustrator 21.0.0, SVG Export Plug-In . SVG Version: 6.00 Build 0)  -->
<svg version="1.1" xmlns="http://www.w3.org/2000/svg" xmlns:xlink="http://www.w3.org/1999/xlink" x="0px" y="0px"
	 viewBox="0 0 96.8 96.8" style="enable-background:new 0 0 96.8 96.8;" xml:space="preserve">
<style type="text/css">
	.st0{fill:#EFEBE3;}
	.st1{fill:none;stroke:#131313;stroke-width:2;stroke-miterlimit:10;}
	.st2{fill:#131313;}
	.st3{fill-rule:evenodd;clip-rule:evenodd;fill:#EFEBE3;}
	.st4{opacity:0.55;fill:#EFEBE3;}
	.st5{opacity:0.23;}
	.st6{opacity:0.7;}
</style>
<g id="Background">
</g>
<g id="Objects">
	<g>
		<g>
			<path class="st1" d="M48.4,95.8C22.3,95.8,1,74.5,1,48.4S22.3,1,48.4,1s47.4,21.3,47.4,47.4S74.5,95.8,48.4,95.8z"/>
			<circle class="st2" cx="48.4" cy="48.4" r="40.7"/>
		</g>
		<g>
			<path class="st0" d="M44.1,62c1.3-0.3,2.4-0.8,3.4-1.5c0.8-0.6,1.6-1.4,2.1-2.4c0.9-1.4,1.3-3,1.3-4.8c0-1.7-0.4-3.2-1.2-4.4
				c-0.8-1.2-1.9-2.1-3.5-2.6c1-0.5,1.8-1.1,2.3-1.7c0.9-1.1,1.4-2.6,1.4-4.4c0-1.8-0.5-3.3-1.4-4.6c-1.5-2.1-4.1-3.1-7.8-3.2H26.3
				v30h13.5C41.4,62.4,42.8,62.3,44.1,62z M32.3,37.6h6.5c1.4,0,2.6,0.2,3.5,0.5c1.1,0.4,1.6,1.4,1.6,2.8c0,1.3-0.4,2.1-1.2,2.6
				c-0.8,0.5-1.9,0.7-3.2,0.7h-7.3V37.6z M32.3,57.2v-8h7.4c1.3,0,2.3,0.2,3,0.5c1.3,0.6,1.9,1.7,1.9,3.2c0,1.8-0.7,3.1-2,3.8
				c-0.7,0.4-1.7,0.5-3,0.5H32.3z"/>
			<g>
				<path class="st0" d="M56,60.4c2.3,1.8,4.9,2.7,7.8,2.7c3.6,0,6.4-1.1,8.4-3.2c1.3-1.4,2-2.7,2.2-4h-5.9
					c-0.3,0.7-0.7,1.2-1.2,1.5c-0.8,0.7-1.9,1-3.2,1c-1.2,0-2.3-0.3-3.2-0.8c-1.5-0.9-2.2-2.5-2.3-4.7h16.2c0-1.9,0-3.4-0.2-4.4
					c-0.3-1.7-0.9-3.3-1.8-4.6c-1-1.5-2.3-2.6-3.8-3.3c-1.5-0.7-3.3-1-5.2-1c-3.3,0-5.9,1-7.9,3.1c-2,2.1-3.1,5-3.1,8.8
					C52.6,55.7,53.8,58.6,56,60.4z M60.2,45.7c0.8-0.8,2-1.3,3.5-1.3c1.4,0,2.5,0.4,3.4,1.2c0.9,0.8,1.4,2,1.5,3.5h-10
					C58.8,47.7,59.4,46.5,60.2,45.7z"/>
				<rect x="56.7" y="34.1" class="st0" width="13.1" height="3"/>
			</g>
		</g>
	</g>
</g>
<g id="Texture">
</g>
<g id="Designed_by_Freepik">
</g>
</svg>
