<?xml version="1.0" encoding="utf-8"?>
<!-- Generator: Adobe Illustrator 21.0.0, SVG Export Plug-In . SVG Version: 6.00 Build 0)  -->
<svg version="1.1" xmlns="http://www.w3.org/2000/svg" xmlns:xlink="http://www.w3.org/1999/xlink" x="0px" y="0px"
	 viewBox="0 0 96.8 96.8" style="enable-background:new 0 0 96.8 96.8;" xml:space="preserve">
<style type="text/css">
	.st0{fill:#EFEBE3;}
	.st1{fill:none;stroke:#131313;stroke-width:2;stroke-miterlimit:10;}
	.st2{fill:#131313;}
	.st3{fill-rule:evenodd;clip-rule:evenodd;fill:#EFEBE3;}
	.st4{opacity:0.55;fill:#EFEBE3;}
	.st5{opacity:0.23;}
	.st6{opacity:0.7;}
</style>
<g id="Background">
</g>
<g id="Objects">
	<g>
		<g>
			<path class="st1" d="M48.9,95.8C22.7,96.1,1.3,75,1,48.9S21.8,1.3,48,1c26.1-0.2,47.6,20.8,47.9,47S75,95.6,48.9,95.8z"/>
			
				<ellipse transform="matrix(1 -9.483791e-03 9.483791e-03 1 -0.4569 0.4613)" class="st2" cx="48.4" cy="48.4" rx="40.7" ry="40.7"/>
		</g>
		<g>
			<g>
				
					<rect x="29.2" y="40.2" transform="matrix(1 -9.483791e-03 9.483791e-03 1 -0.516 0.3215)" class="st0" width="8.9" height="28.7"/>
				
					<ellipse transform="matrix(1 -9.483791e-03 9.483791e-03 1 -0.2943 0.3179)" class="st0" cx="33.4" cy="31.2" rx="5.2" ry="5.3"/>
			</g>
			<path class="st0" d="M52.3,53.7c0-4,1.8-6.5,5.3-6.5c3.3,0,4.9,2.3,4.9,6.4c0,4.1,0.1,15.1,0.1,15.1l8.8-0.1
				c0,0-0.1-10.5-0.2-18.2c-0.1-7.7-4.5-11.4-10.5-11.3c-6.1,0.1-8.6,4.8-8.6,4.8l0-3.9l-8.5,0.1l0.3,28.7l8.5-0.1
				C52.4,68.7,52.3,58.1,52.3,53.7z"/>
		</g>
	</g>
</g>
<g id="Texture">
</g>
<g id="Designed_by_Freepik">
</g>
</svg>
