<?xml version="1.0" encoding="utf-8"?>
<!-- Generator: Adobe Illustrator 21.0.0, SVG Export Plug-In . SVG Version: 6.00 Build 0)  -->
<svg version="1.1" xmlns="http://www.w3.org/2000/svg" xmlns:xlink="http://www.w3.org/1999/xlink" x="0px" y="0px"
	 viewBox="0 0 96.8 96.8" style="enable-background:new 0 0 96.8 96.8;" xml:space="preserve">
<style type="text/css">
	.st0{fill:#EFEBE3;}
	.st1{fill:none;stroke:#131313;stroke-width:2;stroke-miterlimit:10;}
	.st2{fill:#131313;}
	.st3{fill-rule:evenodd;clip-rule:evenodd;fill:#EFEBE3;}
	.st4{opacity:0.55;fill:#EFEBE3;}
	.st5{opacity:0.23;}
	.st6{opacity:0.7;}
</style>
<g id="Background">
</g>
<g id="Objects">
	<g>
		<g>
			<path class="st1" d="M48.4,95.8C22.3,95.8,1,74.5,1,48.4C1,22.3,22.3,1,48.4,1c26.1,0,47.4,21.3,47.4,47.4
				C95.8,74.5,74.5,95.8,48.4,95.8z"/>
			<circle class="st2" cx="48.4" cy="48.4" r="40.7"/>
		</g>
		<g>
			<path class="st0" d="M56.9,45.7H39.5l0,5h11.7c-1.4,6-5.6,9.7-11.4,9.7c-7.5,0-13.6-6.1-13.6-13.6c0-7.5,6.1-13.6,13.6-13.6
				c3.6,0,6.8,1.4,9.2,3.6l3.8-3.3c-3.4-3.3-8-5.4-13.1-5.4c-10.3,0-18.6,8.3-18.6,18.6s8.3,18.6,18.6,18.6c9.9,0,17-7.5,17-17.8
				L56.9,45.7z"/>
			<g>
				<rect x="62.9" y="45.9" class="st0" width="18.9" height="4.6"/>
				
					<rect x="62.9" y="45.9" transform="matrix(-1.836970e-16 1 -1 -1.836970e-16 120.5258 -24.1315)" class="st0" width="18.9" height="4.6"/>
			</g>
		</g>
	</g>
</g>
<g id="Texture">
</g>
<g id="Designed_by_Freepik">
</g>
</svg>
