<?xml version="1.0" encoding="utf-8"?>
<!-- Generator: Adobe Illustrator 21.0.0, SVG Export Plug-In . SVG Version: 6.00 Build 0)  -->
<svg version="1.1" xmlns="http://www.w3.org/2000/svg" xmlns:xlink="http://www.w3.org/1999/xlink" x="0px" y="0px"
	 viewBox="0 0 96.8 96.8" style="enable-background:new 0 0 96.8 96.8;" xml:space="preserve">
<style type="text/css">
	.st0{fill:#EFEBE3;}
	.st1{fill:none;stroke:#131313;stroke-width:2;stroke-miterlimit:10;}
	.st2{fill:#131313;}
	.st3{fill-rule:evenodd;clip-rule:evenodd;fill:#EFEBE3;}
	.st4{opacity:0.55;fill:#EFEBE3;}
	.st5{opacity:0.23;}
	.st6{opacity:0.7;}
</style>
<g id="Background">
</g>
<g id="Objects">
	<g>
		<g>
			<path class="st1" d="M48.4,95.8C22.3,95.8,1,74.5,1,48.4C1,22.3,22.3,1,48.4,1s47.4,21.3,47.4,47.4
				C95.8,74.5,74.5,95.8,48.4,95.8z"/>
			<circle class="st2" cx="48.4" cy="48.4" r="40.7"/>
		</g>
		<path class="st0" d="M36,55c0.7,0.3,1.3,0,1.5-0.7c0.1-0.5,0.5-1.8,0.6-2.3c0.2-0.7,0.1-1-0.4-1.6c-1.2-1.4-1.9-3.2-1.9-5.7
			c0-7.4,5.5-14,14.4-14c7.9,0,12.2,4.8,12.2,11.2c0,8.4-3.7,15.6-9.3,15.6c-3.1,0-5.4-2.5-4.6-5.6c0.9-3.7,2.6-7.7,2.6-10.4
			c0-2.4-1.3-4.4-3.9-4.4c-3.1,0-5.6,3.2-5.6,7.6c0,2.8,0.9,4.6,0.9,4.6S39.1,62.7,38.5,65c-1.1,4.7-0.2,10.5-0.1,11.1
			c0,0.3,0.5,0.4,0.7,0.2c0.3-0.4,4-5,5.3-9.6c0.4-1.3,2.1-8,2.1-8c1,1.9,4,3.6,7.1,3.6c9.4,0,15.8-8.6,15.8-20.1
			c0-8.7-7.4-16.8-18.5-16.8C37,25.5,30,35.5,30,43.8C30,48.9,31.9,53.3,36,55z"/>
	</g>
</g>
<g id="Texture">
</g>
<g id="Designed_by_Freepik">
</g>
</svg>
