<?xml version="1.0" encoding="utf-8"?>
<!-- Generator: Adobe Illustrator 21.0.0, SVG Export Plug-In . SVG Version: 6.00 Build 0)  -->
<svg version="1.1" xmlns="http://www.w3.org/2000/svg" xmlns:xlink="http://www.w3.org/1999/xlink" x="0px" y="0px"
	 viewBox="0 0 96.8 96.8" style="enable-background:new 0 0 96.8 96.8;" xml:space="preserve">
<style type="text/css">
	.st0{fill:#EFEBE3;}
	.st1{fill:none;stroke:#131313;stroke-width:2;stroke-miterlimit:10;}
	.st2{fill:#131313;}
	.st3{fill-rule:evenodd;clip-rule:evenodd;fill:#EFEBE3;}
	.st4{opacity:0.55;fill:#EFEBE3;}
	.st5{opacity:0.23;}
	.st6{opacity:0.7;}
</style>
<g id="Background">
</g>
<g id="Objects">
	<g>
		<g>
			<path class="st1" d="M48.4,95.8C22.3,95.8,1,74.5,1,48.4S22.3,1,48.4,1s47.4,21.3,47.4,47.4S74.5,95.8,48.4,95.8z"/>
			<circle class="st2" cx="48.4" cy="48.4" r="40.7"/>
		</g>
		<g>
			<path class="st3" d="M72,45.5c-0.3-12.4-10.5-22.3-23.1-22.3c-12.4,0-22.5,9.7-23.1,21.9c0,0.3,0,0.7,0,1c0,4.3,1.2,8.4,3.3,11.8
				L25,70.2l12.8-4.1C41.1,68,44.9,69,48.9,69C61.7,69,72,58.7,72,46.1C72,45.9,72,45.7,72,45.5z M48.9,65.3
				c-3.9,0-7.6-1.2-10.7-3.2l-7.5,2.4l2.4-7.2c-2.3-3.2-3.7-7.1-3.7-11.3c0-0.6,0-1.3,0.1-1.9c1-9.8,9.3-17.4,19.3-17.4
				c10.2,0,18.6,7.8,19.4,17.8c0,0.5,0.1,1,0.1,1.5C68.4,56.7,59.7,65.3,48.9,65.3z"/>
			<path class="st3" d="M59.5,50.7c-0.6-0.3-3.4-1.6-3.9-1.8c-0.5-0.2-0.9-0.3-1.3,0.3c-0.4,0.6-1.5,1.8-1.8,2.2
				c-0.3,0.4-0.7,0.4-1.2,0.1c-0.6-0.3-2.4-0.9-4.6-2.8c-1.7-1.5-2.8-3.3-3.1-3.9c-0.3-0.6,0-0.9,0.2-1.1c0.3-0.3,0.6-0.7,0.9-1
				c0.1-0.1,0.1-0.2,0.2-0.3c0.1-0.2,0.2-0.4,0.4-0.7c0.2-0.4,0.1-0.7,0-1c-0.1-0.3-1.3-3-1.8-4.2c-0.5-1.1-0.9-0.9-1.3-0.9
				c-0.3,0-0.7-0.1-1.1-0.1c-0.4,0-1,0.1-1.5,0.7c-0.5,0.6-2,1.9-2,4.7c0,0.6,0.1,1.3,0.3,1.9c0.6,2,1.8,3.6,2,3.9
				c0.3,0.4,3.9,6.2,9.7,8.5c5.8,2.2,5.8,1.5,6.8,1.4c1-0.1,3.4-1.4,3.8-2.7c0.5-1.3,0.5-2.4,0.3-2.7C60.5,51.1,60.1,51,59.5,50.7z"
				/>
		</g>
	</g>
</g>
<g id="Texture">
</g>
<g id="Designed_by_Freepik">
</g>
</svg>
