<?xml version="1.0" encoding="iso-8859-1"?>
<!-- Generator: Adobe Illustrator 16.0.0, SVG Export Plug-In . SVG Version: 6.00 Build 0)  -->
<!DOCTYPE svg PUBLIC "-//W3C//DTD SVG 1.1//EN" "http://www.w3.org/Graphics/SVG/1.1/DTD/svg11.dtd">
<svg version="1.1" id="Capa_1" xmlns="http://www.w3.org/2000/svg" xmlns:xlink="http://www.w3.org/1999/xlink" x="0px" y="0px"
	 width="189.682px" height="201.466px" viewBox="0 0 189.682 201.466" style="enable-background:new 0 0 189.682 201.466;"
	 xml:space="preserve">
<g>
	<path style="fill:#FAFAFC;" d="M74.752,121.375c-8.816,0-12.05-7.992-12.05-16.744c0-1.078,0-2.156,0.127-3.299v0.064
		c1.205-14.143,10.465-30.949,22.197-30.949c7.484,0,11.86,7.547,11.353,14.714c-0.126,1.522-0.317,4.059-2.474,4.059
		c-0.443-0.064-0.76-0.191-1.269-0.697c0.317-1.143,0.571-2.285,0.636-3.172c0.252-3.552-0.762-7.23-2.981-7.23
		c-5.074,0-14.017,16.363-15.728,28.412c-0.064,0.699-0.128,1.521-0.128,2.221c0,3.994,1.205,7.484,5.011,7.484
		c6.658,0,11.859-8.563,15.156-14.145v0.064c2.03-3.489,3.806-7.104,5.201-9.894c0.634-1.269,1.649-3.044,2.283-4.249
		c0.444-0.191,0.824-0.318,0.951-0.318c0.761,0,1.205,0.508,1.522,1.207l-0.635,1.394c-1.522,3.108-3.868,7.737-6.532,12.369
		C92.89,110.846,86.548,121.375,74.752,121.375"/>
	<path style="fill:#FAFAFC;" d="M106.416,115.975c0,2.283,0.189,3.996,0.634,5.01l2.6-4.883c3.108-6.279,7.548-16.49,7.548-21.627
		c0-2.029-0.571-3.297-2.029-3.614C110.094,89.528,106.416,106.461,106.416,115.975 M125.759,115.594
		c1.014-0.697,1.649-0.508,2.727,0.508c-2.536,5.834-7.736,11.035-13.825,12.049c-2.221,0.318-4.82-0.127-7.039-1.395
		c-1.839,3.678-3.807,7.104-5.328,9.703c-2.981,5.01-7.357,10.719-14.079,10.465c-5.771-0.127-7.42-6.787-7.42-14.904
		c0-6.66,1.077-14.332,1.901-19.914c0.571-3.615,0.953-6.404,0.89-7.674c-0.063-1.141-0.445-2.029-0.698-2.664
		c-0.127-0.317-0.254-0.506-0.254-0.887c-0.127-1.142,0.889-1.586,2.029-1.776c1.648-0.254,3.869,0,4.63,0.317
		c2.664,1.332,3.995,4.44,4.187,7.674c0.127,3.361-0.445,7.674-1.016,10.146c-0.635,3.68-1.648,9.895-1.967,14.715
		c0,0.189-0.063,0.443-0.063,0.635c0,0.76-0.063,1.775-0.063,2.789c0,2.473,0.318,5.201,2.475,5.391
		c2.663,0.254,5.073-3.107,6.468-5.453c1.65-2.727,3.616-6.217,5.899-10.719c-2.283-2.98-3.361-7.801-3.361-12.811
		c0-11.417,5.327-24.735,13.318-24.163c3.615,0.252,4.947,2.662,4.947,6.277c0,5.708-3.489,14.397-7.104,22.325l-3.551,7.357
		c1.268,1.078,2.79,1.711,4.186,1.711c0.507,0,1.142-0.127,1.776-0.254c4.249-1.078,8.181-5.01,10.272-9.322L125.759,115.594z"/>
	<path style="fill:none;stroke:#FAFAFC;stroke-width:1.554;stroke-miterlimit:10;" d="M188.583,94.842l-93.742,93.741L1.099,94.841
		L94.841,1.099L188.583,94.842z M188.583,106.625l-93.742,93.742L1.099,106.625l93.742-93.743L188.583,106.625z"/>
</g>
</svg>
